<svg width="56" height="53" viewBox="0 0 56 53" fill="none" xmlns="http://www.w3.org/2000/svg">
<g filter="url(#filter0_i_291_741)">
<rect width="55.2725" height="52.5574" rx="6.89447" fill="#FF9900"/>
<g filter="url(#filter1_f_291_741)">
<path d="M5.64885 10.5106C5.90066 8.582 9.26427 8.59134 11.1861 8.7576C11.6598 8.79858 11.8078 9.41463 11.4411 9.71733C10.5599 10.4447 9.40359 11.5794 9.07898 12.7396C7.41682 18.6802 7.55432 28.2963 7.83119 34.0527C7.98293 37.2075 7.48281 40.3686 6.22234 43.2646L5.64884 44.5823C5.64884 44.5823 4.40156 20.0634 5.64885 10.5106Z" fill="white" fill-opacity="0.3"/>
<path d="M5.64885 10.5106C5.90066 8.582 9.26427 8.59134 11.1861 8.7576C11.6598 8.79858 11.8078 9.41463 11.4411 9.71733C10.5599 10.4447 9.40359 11.5794 9.07898 12.7396C7.41682 18.6802 7.55432 28.2963 7.83119 34.0527C7.98293 37.2075 7.48281 40.3686 6.22234 43.2646L5.64884 44.5823C5.64884 44.5823 4.40156 20.0634 5.64885 10.5106Z" fill="url(#paint0_linear_291_741)"/>
</g>
<g filter="url(#filter2_f_291_741)">
<path d="M11.8349 6.12598L46.2117 6.12597" stroke="white" stroke-width="0.522674" stroke-linecap="round"/>
</g>
<g filter="url(#filter3_d_291_741)">
<path d="M19.0841 23.5422C19.0841 24.0262 19.1365 24.4186 19.228 24.7064C19.3327 24.9942 19.4635 25.3082 19.6466 25.6483C19.7121 25.7529 19.7382 25.8576 19.7382 25.9491C19.7382 26.08 19.6597 26.2108 19.4897 26.3416L18.6655 26.891C18.5478 26.9695 18.4301 27.0087 18.3254 27.0087C18.1946 27.0087 18.0638 26.9433 17.933 26.8256C17.7498 26.6294 17.5929 26.4201 17.4621 26.2108C17.3312 25.9884 17.2004 25.7398 17.0565 25.439C16.0362 26.6425 14.7542 27.2442 13.2106 27.2442C12.1118 27.2442 11.2353 26.9303 10.5943 26.3023C9.95332 25.6744 9.62628 24.8372 9.62628 23.7907C9.62628 22.6788 10.0187 21.7762 10.8167 21.0959C11.6147 20.4157 12.6743 20.0756 14.0216 20.0756C14.4664 20.0756 14.9243 20.1148 15.4083 20.1802C15.8923 20.2456 16.3894 20.3503 16.9126 20.468V19.5131C16.9126 18.5189 16.7033 17.8256 16.2978 17.4201C15.8792 17.0145 15.1728 16.8183 14.1655 16.8183C13.7077 16.8183 13.2368 16.8706 12.7527 16.9884C12.2687 17.1061 11.7978 17.25 11.3399 17.4331C11.1306 17.5247 10.9737 17.577 10.8821 17.6032C10.7905 17.6294 10.7251 17.6424 10.6728 17.6424C10.4897 17.6424 10.3981 17.5116 10.3981 17.2369V16.5959C10.3981 16.3866 10.4242 16.2297 10.4897 16.1381C10.5551 16.0465 10.6728 15.9549 10.8559 15.8634C11.3138 15.6279 11.8632 15.4317 12.5042 15.2747C13.1452 15.1047 13.8254 15.0262 14.5449 15.0262C16.1016 15.0262 17.2397 15.3794 17.9722 16.0858C18.6917 16.7922 19.058 17.8648 19.058 19.3038V23.5422H19.0841ZM13.7731 25.5305C14.2048 25.5305 14.6495 25.4521 15.1205 25.2951C15.5914 25.1381 16.01 24.8503 16.3632 24.4579C16.5725 24.2093 16.7295 23.9346 16.808 23.6207C16.8865 23.3067 16.9388 22.9273 16.9388 22.4826V21.9332C16.5594 21.8416 16.1539 21.7631 15.7353 21.7108C15.3167 21.6584 14.9112 21.6323 14.5057 21.6323C13.6292 21.6323 12.9882 21.8023 12.5565 22.1555C12.1248 22.5087 11.9155 23.0058 11.9155 23.6599C11.9155 24.2747 12.0725 24.7326 12.3995 25.0465C12.7135 25.3736 13.1713 25.5305 13.7731 25.5305ZM24.2775 26.9433C24.042 26.9433 23.885 26.9041 23.7804 26.8125C23.6757 26.734 23.5842 26.5509 23.5057 26.3023L20.4315 16.1904C20.353 15.9288 20.3138 15.7587 20.3138 15.6672C20.3138 15.4578 20.4185 15.3401 20.6278 15.3401H21.9097C22.1583 15.3401 22.3283 15.3794 22.4199 15.4709C22.5246 15.5494 22.6031 15.7326 22.6815 15.9811L24.8792 24.641L26.9199 15.9811C26.9853 15.7195 27.0638 15.5494 27.1685 15.4709C27.2731 15.3924 27.4563 15.3401 27.6917 15.3401H28.7382C28.9868 15.3401 29.1568 15.3794 29.2615 15.4709C29.3661 15.5494 29.4577 15.7326 29.51 15.9811L31.5769 24.7457L33.84 15.9811C33.9185 15.7195 34.01 15.5494 34.1016 15.4709C34.2063 15.3924 34.3763 15.3401 34.6118 15.3401H35.8284C36.0377 15.3401 36.1554 15.4448 36.1554 15.6672C36.1554 15.7326 36.1423 15.798 36.1292 15.8765C36.1162 15.9549 36.09 16.0596 36.0377 16.2035L32.885 26.3154C32.8066 26.5771 32.715 26.7471 32.6103 26.8256C32.5057 26.9041 32.3356 26.9564 32.1132 26.9564H30.9882C30.7397 26.9564 30.5696 26.9172 30.465 26.8256C30.3603 26.734 30.2688 26.564 30.2164 26.3023L28.1888 17.8648L26.1743 26.2893C26.1089 26.5509 26.0304 26.721 25.9257 26.8125C25.8211 26.9041 25.6379 26.9433 25.4025 26.9433H24.2775ZM41.0871 27.2965C40.4069 27.2965 39.7266 27.218 39.0726 27.0611C38.4185 26.9041 37.9083 26.734 37.5682 26.5378C37.3589 26.4201 37.215 26.2893 37.1627 26.1715C37.1103 26.0538 37.0842 25.923 37.0842 25.8053V25.1381C37.0842 24.8634 37.1888 24.7326 37.3851 24.7326C37.4635 24.7326 37.542 24.7457 37.6205 24.7718C37.699 24.798 37.8167 24.8503 37.9476 24.9026C38.3923 25.0989 38.8763 25.2558 39.3865 25.3605C39.9098 25.4651 40.4199 25.5175 40.9432 25.5175C41.7673 25.5175 42.4083 25.3736 42.8531 25.0858C43.2979 24.798 43.5333 24.3794 43.5333 23.843C43.5333 23.4768 43.4156 23.1759 43.1801 22.9273C42.9447 22.6788 42.4999 22.4564 41.8589 22.2471L39.9621 21.6584C39.0071 21.3576 38.3008 20.9128 37.8691 20.3241C37.4374 19.7486 37.215 19.1076 37.215 18.4273C37.215 17.8779 37.3327 17.3939 37.5682 16.9753C37.8037 16.5567 38.1176 16.1904 38.5101 15.9026C38.9025 15.6017 39.3473 15.3794 39.8705 15.2224C40.3938 15.0654 40.9432 15 41.5188 15C41.8066 15 42.1074 15.0131 42.3952 15.0523C42.6961 15.0916 42.9708 15.1439 43.2455 15.1962C43.5072 15.2616 43.7557 15.327 43.9912 15.4055C44.2266 15.484 44.4098 15.5625 44.5406 15.641C44.7237 15.7456 44.8545 15.8503 44.933 15.968C45.0115 16.0727 45.0508 16.2166 45.0508 16.3997V17.0145C45.0508 17.2892 44.9461 17.4331 44.7499 17.4331C44.6452 17.4331 44.4752 17.3808 44.2528 17.2762C43.5072 16.936 42.6699 16.766 41.7412 16.766C40.9955 16.766 40.4069 16.8837 40.0013 17.1323C39.5958 17.3808 39.3865 17.7602 39.3865 18.2965C39.3865 18.6628 39.5173 18.9768 39.779 19.2253C40.0406 19.4738 40.5246 19.7224 41.2179 19.9448L43.0755 20.5334C44.0173 20.8343 44.6976 21.2529 45.1031 21.7893C45.5086 22.3256 45.7048 22.9404 45.7048 23.6207C45.7048 24.1832 45.5871 24.6933 45.3647 25.1381C45.1293 25.5829 44.8153 25.9753 44.4098 26.2893C44.0042 26.6163 43.5202 26.8518 42.9577 27.0218C42.3691 27.205 41.7542 27.2965 41.0871 27.2965Z" fill="white"/>
<path fill-rule="evenodd" clip-rule="evenodd" d="M43.5595 33.6538C39.2557 36.8326 33.0028 38.5201 27.6263 38.5201C20.0914 38.5201 13.3022 35.7338 8.17425 31.1029C7.76872 30.7367 8.135 30.2396 8.61901 30.5274C14.1655 33.7454 21.0071 35.6945 28.0842 35.6945C32.8589 35.6945 38.1045 34.7003 42.9316 32.6596C43.6511 32.3326 44.2659 33.1306 43.5595 33.6538Z" fill="white"/>
<path fill-rule="evenodd" clip-rule="evenodd" d="M45.3516 31.6132C44.8022 30.9068 41.715 31.2731 40.3153 31.4432C39.8967 31.4955 39.8313 31.1292 40.2106 30.8545C42.6699 29.1278 46.7121 29.6249 47.183 30.2004C47.654 30.7891 47.0522 34.8313 44.7499 36.7673C44.3967 37.0682 44.0566 36.9112 44.2136 36.5188C44.7368 35.2237 45.9011 32.3065 45.3516 31.6132Z" fill="white"/>
</g>
</g>
<defs>
<filter id="filter0_i_291_741" x="-6.27209" y="-6.27209" width="61.5446" height="58.8297" filterUnits="userSpaceOnUse" color-interpolation-filters="sRGB">
<feFlood flood-opacity="0" result="BackgroundImageFix"/>
<feBlend mode="normal" in="SourceGraphic" in2="BackgroundImageFix" result="shape"/>
<feColorMatrix in="SourceAlpha" type="matrix" values="0 0 0 0 0 0 0 0 0 0 0 0 0 0 0 0 0 0 127 0" result="hardAlpha"/>
<feOffset dx="-6.27209" dy="-6.27209"/>
<feGaussianBlur stdDeviation="5.22674"/>
<feComposite in2="hardAlpha" operator="arithmetic" k2="-1" k3="1"/>
<feColorMatrix type="matrix" values="0 0 0 0 0 0 0 0 0 0 0 0 0 0 0 0 0 0 0.3 0"/>
<feBlend mode="normal" in2="shape" result="effect1_innerShadow_291_741"/>
</filter>
<filter id="filter1_f_291_741" x="0.913104" y="4.50806" width="14.9148" height="44.2559" filterUnits="userSpaceOnUse" color-interpolation-filters="sRGB">
<feFlood flood-opacity="0" result="BackgroundImageFix"/>
<feBlend mode="normal" in="SourceGraphic" in2="BackgroundImageFix" result="shape"/>
<feGaussianBlur stdDeviation="2.0907" result="effect1_foregroundBlur_291_741"/>
</filter>
<filter id="filter2_f_291_741" x="7.39217" y="1.68335" width="43.2623" height="8.88525" filterUnits="userSpaceOnUse" color-interpolation-filters="sRGB">
<feFlood flood-opacity="0" result="BackgroundImageFix"/>
<feBlend mode="normal" in="SourceGraphic" in2="BackgroundImageFix" result="shape"/>
<feGaussianBlur stdDeviation="2.0907" result="effect1_foregroundBlur_291_741"/>
</filter>
<filter id="filter3_d_291_741" x="4.54132" y="12.2331" width="50.3998" height="34.5878" filterUnits="userSpaceOnUse" color-interpolation-filters="sRGB">
<feFlood flood-opacity="0" result="BackgroundImageFix"/>
<feColorMatrix in="SourceAlpha" type="matrix" values="0 0 0 0 0 0 0 0 0 0 0 0 0 0 0 0 0 0 127 0" result="hardAlpha"/>
<feOffset dx="2.07521" dy="2.76695"/>
<feGaussianBlur stdDeviation="2.76695"/>
<feComposite in2="hardAlpha" operator="out"/>
<feColorMatrix type="matrix" values="0 0 0 0 0.729412 0 0 0 0 0.439216 0 0 0 0 0.00392157 0 0 0 1 0"/>
<feBlend mode="normal" in2="BackgroundImageFix" result="effect1_dropShadow_291_741"/>
<feBlend mode="normal" in="SourceGraphic" in2="effect1_dropShadow_291_741" result="shape"/>
</filter>
<linearGradient id="paint0_linear_291_741" x1="5.0945" y1="9.64473" x2="8.27109" y2="12.4444" gradientUnits="userSpaceOnUse">
<stop stop-color="white"/>
<stop offset="1" stop-color="white" stop-opacity="0"/>
</linearGradient>
</defs>
</svg>
