<svg width="52" height="52" viewBox="0 0 52 52" fill="none" xmlns="http://www.w3.org/2000/svg">
<g filter="url(#filter0_di_291_450)">
<rect x="3.45868" y="2.76685" width="40" height="40" rx="12" fill="#6366F1" shape-rendering="crispEdges"/>
<path d="M23.4587 17.9778V28.8111M23.4587 17.9778C22.4853 17.3311 21.1637 16.9336 19.7087 16.9336C18.2537 16.9336 16.932 17.3311 15.9587 17.9778V28.8111C16.932 28.1644 18.2537 27.7669 19.7087 27.7669C21.1637 27.7669 22.4853 28.1644 23.4587 28.8111M23.4587 17.9778C24.432 17.3311 25.7537 16.9336 27.2087 16.9336C28.6645 16.9336 29.9853 17.3311 30.9587 17.9778V28.8111C29.9853 28.1644 28.6645 27.7669 27.2087 27.7669C25.7537 27.7669 24.432 28.1644 23.4587 28.8111" stroke="white" stroke-width="1.66667" stroke-linecap="round" stroke-linejoin="round"/>
</g>
<defs>
<filter id="filter0_di_291_450" x="-2.86102e-06" y="-9.98974e-05" width="51.0678" height="51.0678" filterUnits="userSpaceOnUse" color-interpolation-filters="sRGB">
<feFlood flood-opacity="0" result="BackgroundImageFix"/>
<feColorMatrix in="SourceAlpha" type="matrix" values="0 0 0 0 0 0 0 0 0 0 0 0 0 0 0 0 0 0 127 0" result="hardAlpha"/>
<feOffset dx="2.07521" dy="2.76695"/>
<feGaussianBlur stdDeviation="2.76695"/>
<feComposite in2="hardAlpha" operator="out"/>
<feColorMatrix type="matrix" values="0 0 0 0 0.0159073 0 0 0 0 0.321138 0 0 0 0 0.696571 0 0 0 0.35 0"/>
<feBlend mode="normal" in2="BackgroundImageFix" result="effect1_dropShadow_291_450"/>
<feBlend mode="normal" in="SourceGraphic" in2="effect1_dropShadow_291_450" result="shape"/>
<feColorMatrix in="SourceAlpha" type="matrix" values="0 0 0 0 0 0 0 0 0 0 0 0 0 0 0 0 0 0 127 0" result="hardAlpha"/>
<feOffset dx="-0.691736" dy="-0.691736"/>
<feGaussianBlur stdDeviation="2.76695"/>
<feComposite in2="hardAlpha" operator="arithmetic" k2="-1" k3="1"/>
<feColorMatrix type="matrix" values="0 0 0 0 0.216667 0 0 0 0 0.216667 0 0 0 0 0.216667 0 0 0 0.51 0"/>
<feBlend mode="normal" in2="shape" result="effect2_innerShadow_291_450"/>
</filter>
</defs>
</svg>
