<svg width="27" height="31" viewBox="0 0 27 31" fill="none" xmlns="http://www.w3.org/2000/svg">
<path d="M24.022 29.2122V2.47864H24.7868V0H2.17299V2.47864H2.93704V29.2527H0V31H10.824V22.0615H16.1753V31H27V29.2527H24.022V29.2122ZM8.77164 19.4613H5.91502V16.5764H8.77164V19.4613ZM8.77164 13.2447H5.91502V10.3606H8.77164V13.2447ZM8.77164 7.02897H5.91502V4.10355H8.77164V7.02897ZM14.9279 19.4613H12.0713V16.5764H14.9279V19.4613ZM14.9279 13.2447H12.0713V10.3606H14.9279V13.2447ZM14.9279 7.02897H12.0713V4.10355H14.9279V7.02897ZM21.085 19.4613H18.1874V16.5764H21.085V19.4613ZM21.085 13.2447H18.1874V10.3606H21.085V13.2447ZM21.085 7.02897H18.1874V4.10355H21.085V7.02897Z" fill="white"/>
</svg>
