<svg width="19" height="19" viewBox="0 0 19 19" fill="none" xmlns="http://www.w3.org/2000/svg">
<path d="M3.95833 17.4163C3.52292 17.4163 3.15017 17.2613 2.8401 16.9512C2.53003 16.6412 2.375 16.2684 2.375 15.833V4.74967C2.375 4.31426 2.53003 3.94151 2.8401 3.63145C3.15017 3.32138 3.52292 3.16634 3.95833 3.16634H4.75V2.37467C4.75 2.15037 4.82587 1.96235 4.9776 1.81061C5.12934 1.65888 5.31736 1.58301 5.54167 1.58301C5.76597 1.58301 5.95399 1.65888 6.10573 1.81061C6.25747 1.96235 6.33333 2.15037 6.33333 2.37467V3.16634H12.6667V2.37467C12.6667 2.15037 12.7425 1.96235 12.8943 1.81061C13.046 1.65888 13.234 1.58301 13.4583 1.58301C13.6826 1.58301 13.8707 1.65888 14.0224 1.81061C14.1741 1.96235 14.25 2.15037 14.25 2.37467V3.16634H15.0417C15.4771 3.16634 15.8498 3.32138 16.1599 3.63145C16.47 3.94151 16.625 4.31426 16.625 4.74967V15.833C16.625 16.2684 16.47 16.6412 16.1599 16.9512C15.8498 17.2613 15.4771 17.4163 15.0417 17.4163H3.95833ZM3.95833 15.833H15.0417V7.91634H3.95833V15.833ZM9.5 11.083C9.27569 11.083 9.08767 11.0071 8.93594 10.8554C8.7842 10.7037 8.70833 10.5156 8.70833 10.2913C8.70833 10.067 8.7842 9.87901 8.93594 9.72728C9.08767 9.57554 9.27569 9.49967 9.5 9.49967C9.72431 9.49967 9.91233 9.57554 10.0641 9.72728C10.2158 9.87901 10.2917 10.067 10.2917 10.2913C10.2917 10.5156 10.2158 10.7037 10.0641 10.8554C9.91233 11.0071 9.72431 11.083 9.5 11.083ZM5.76927 10.8554C5.61753 10.7037 5.54167 10.5156 5.54167 10.2913C5.54167 10.067 5.61753 9.87901 5.76927 9.72728C5.92101 9.57554 6.10903 9.49967 6.33333 9.49967C6.55764 9.49967 6.74566 9.57554 6.8974 9.72728C7.04913 9.87901 7.125 10.067 7.125 10.2913C7.125 10.5156 7.04913 10.7037 6.8974 10.8554C6.74566 11.0071 6.55764 11.083 6.33333 11.083C6.10903 11.083 5.92101 11.0071 5.76927 10.8554ZM12.6667 11.083C12.4424 11.083 12.2543 11.0071 12.1026 10.8554C11.9509 10.7037 11.875 10.5156 11.875 10.2913C11.875 10.067 11.9509 9.87901 12.1026 9.72728C12.2543 9.57554 12.4424 9.49967 12.6667 9.49967C12.891 9.49967 13.079 9.57554 13.2307 9.72728C13.3825 9.87901 13.4583 10.067 13.4583 10.2913C13.4583 10.5156 13.3825 10.7037 13.2307 10.8554C13.079 11.0071 12.891 11.083 12.6667 11.083ZM9.5 14.2497C9.27569 14.2497 9.08767 14.1738 8.93594 14.0221C8.7842 13.8703 8.70833 13.6823 8.70833 13.458C8.70833 13.2337 8.7842 13.0457 8.93594 12.8939C9.08767 12.7422 9.27569 12.6663 9.5 12.6663C9.72431 12.6663 9.91233 12.7422 10.0641 12.8939C10.2158 13.0457 10.2917 13.2337 10.2917 13.458C10.2917 13.6823 10.2158 13.8703 10.0641 14.0221C9.91233 14.1738 9.72431 14.2497 9.5 14.2497ZM5.76927 14.0221C5.61753 13.8703 5.54167 13.6823 5.54167 13.458C5.54167 13.2337 5.61753 13.0457 5.76927 12.8939C5.92101 12.7422 6.10903 12.6663 6.33333 12.6663C6.55764 12.6663 6.74566 12.7422 6.8974 12.8939C7.04913 13.0457 7.125 13.2337 7.125 13.458C7.125 13.6823 7.04913 13.8703 6.8974 14.0221C6.74566 14.1738 6.55764 14.2497 6.33333 14.2497C6.10903 14.2497 5.92101 14.1738 5.76927 14.0221ZM12.6667 14.2497C12.4424 14.2497 12.2543 14.1738 12.1026 14.0221C11.9509 13.8703 11.875 13.6823 11.875 13.458C11.875 13.2337 11.9509 13.0457 12.1026 12.8939C12.2543 12.7422 12.4424 12.6663 12.6667 12.6663C12.891 12.6663 13.079 12.7422 13.2307 12.8939C13.3825 13.0457 13.4583 13.2337 13.4583 13.458C13.4583 13.6823 13.3825 13.8703 13.2307 14.0221C13.079 14.1738 12.891 14.2497 12.6667 14.2497Z" fill="white"/>
</svg>
