<svg width="12" height="13" viewBox="0 0 12 13" fill="none" xmlns="http://www.w3.org/2000/svg">
<path d="M1.27606 13C0.919471 13 0.617647 12.881 0.370588 12.643C0.123529 12.4049 0 12.1141 0 11.7706V2.66797C0 2.32442 0.123529 2.03362 0.370588 1.79559C0.617647 1.55757 0.919471 1.43855 1.27606 1.43855H2.25335V0.522986C2.25335 0.373934 2.30518 0.249478 2.40882 0.149619C2.51247 0.0498727 2.64165 0 2.79635 0C2.95118 0 3.08035 0.0498727 3.18388 0.149619C3.28753 0.249478 3.33935 0.373934 3.33935 0.522986V1.43855H8.68782V0.510064C8.68782 0.365319 8.73847 0.244094 8.83976 0.146388C8.94118 0.0487959 9.067 0 9.21724 0C9.36747 0 9.49324 0.0487959 9.59453 0.146388C9.69594 0.244094 9.74665 0.365319 9.74665 0.510064V1.43855H10.7239C11.0805 1.43855 11.3824 1.55757 11.6294 1.79559C11.8765 2.03362 12 2.32442 12 2.66797V11.7706C12 12.1141 11.8765 12.4049 11.6294 12.643C11.3824 12.881 11.0805 13 10.7239 13H1.27606ZM1.27606 11.9799H10.7239C10.7783 11.9799 10.8281 11.9581 10.8732 11.9144C10.9185 11.8709 10.9412 11.8229 10.9412 11.7706V5.38832H1.05882V11.7706C1.05882 11.8229 1.08147 11.8709 1.12676 11.9144C1.17194 11.9581 1.22171 11.9799 1.27606 11.9799ZM1.05882 4.36819H10.9412V2.66797C10.9412 2.61561 10.9185 2.56766 10.8732 2.52414C10.8281 2.4805 10.7783 2.45868 10.7239 2.45868H1.27606C1.22171 2.45868 1.17194 2.4805 1.12676 2.52414C1.08147 2.56766 1.05882 2.61561 1.05882 2.66797V4.36819ZM6 7.95173C5.82718 7.95173 5.67988 7.89307 5.55812 7.77575C5.43647 7.65855 5.37565 7.51664 5.37565 7.35002C5.37565 7.18351 5.43647 7.0416 5.55812 6.92429C5.67988 6.80709 5.82718 6.74849 6 6.74849C6.17282 6.74849 6.32012 6.80709 6.44188 6.92429C6.56353 7.0416 6.62435 7.18351 6.62435 7.35002C6.62435 7.51664 6.56353 7.65855 6.44188 7.77575C6.32012 7.89307 6.17282 7.95173 6 7.95173ZM2.73459 7.77575C2.61294 7.65855 2.55212 7.51664 2.55212 7.35002C2.55212 7.18351 2.61294 7.0416 2.73459 6.92429C2.85635 6.80709 3.00365 6.74849 3.17647 6.74849C3.34929 6.74849 3.49659 6.80709 3.61835 6.92429C3.74 7.0416 3.80082 7.18351 3.80082 7.35002C3.80082 7.51664 3.74 7.65855 3.61835 7.77575C3.49659 7.89307 3.34929 7.95173 3.17647 7.95173C3.00365 7.95173 2.85635 7.89307 2.73459 7.77575ZM8.82353 7.95173C8.65071 7.95173 8.50341 7.89307 8.38165 7.77575C8.26 7.65855 8.19918 7.51664 8.19918 7.35002C8.19918 7.18351 8.26 7.0416 8.38165 6.92429C8.50341 6.80709 8.65071 6.74849 8.82353 6.74849C8.99635 6.74849 9.14365 6.80709 9.26541 6.92429C9.38706 7.0416 9.44788 7.18351 9.44788 7.35002C9.44788 7.51664 9.38706 7.65855 9.26541 7.77575C9.14365 7.89307 8.99635 7.95173 8.82353 7.95173ZM6 10.6197C5.82718 10.6197 5.67988 10.561 5.55812 10.4437C5.43647 10.3265 5.37565 10.1847 5.37565 10.0182C5.37565 9.85155 5.43647 9.70963 5.55812 9.59243C5.67988 9.47512 5.82718 9.41646 6 9.41646C6.17282 9.41646 6.32012 9.47512 6.44188 9.59243C6.56353 9.70963 6.62435 9.85155 6.62435 10.0182C6.62435 10.1847 6.56353 10.3265 6.44188 10.4437C6.32012 10.561 6.17282 10.6197 6 10.6197ZM2.73459 10.4437C2.61294 10.3265 2.55212 10.1847 2.55212 10.0182C2.55212 9.85155 2.61294 9.70963 2.73459 9.59243C2.85635 9.47512 3.00365 9.41646 3.17647 9.41646C3.34929 9.41646 3.49659 9.47512 3.61835 9.59243C3.74 9.70963 3.80082 9.85155 3.80082 10.0182C3.80082 10.1847 3.74 10.3265 3.61835 10.4437C3.49659 10.561 3.34929 10.6197 3.17647 10.6197C3.00365 10.6197 2.85635 10.561 2.73459 10.4437ZM8.82353 10.6197C8.65071 10.6197 8.50341 10.561 8.38165 10.4437C8.26 10.3265 8.19918 10.1847 8.19918 10.0182C8.19918 9.85155 8.26 9.70963 8.38165 9.59243C8.50341 9.47512 8.65071 9.41646 8.82353 9.41646C8.99635 9.41646 9.14365 9.47512 9.26541 9.59243C9.38706 9.70963 9.44788 9.85155 9.44788 10.0182C9.44788 10.1847 9.38706 10.3265 9.26541 10.4437C9.14365 10.561 8.99635 10.6197 8.82353 10.6197Z" fill="#6557E3"/>
</svg>
