<svg width="64" height="64" viewBox="0 0 64 64" fill="none" xmlns="http://www.w3.org/2000/svg">
<g filter="url(#filter0_d_291_1080)">
<rect width="60" height="60" rx="15" fill="#FEC224"/>
<rect x="0.5" y="0.5" width="59" height="59" rx="14.5" stroke="white"/>
</g>
<path d="M30.5 15C30.2464 15 29.9928 15.0062 29.7392 15.019C29.4861 15.0313 29.233 15.0499 28.9809 15.0746C28.7282 15.0997 28.4765 15.1306 28.2258 15.1676C27.9746 15.2051 27.7248 15.2484 27.476 15.2977C27.2271 15.3476 26.9797 15.4032 26.7337 15.4644C26.4878 15.5262 26.2432 15.5941 26.0005 15.6677C25.7579 15.7413 25.5171 15.8206 25.2782 15.9061C25.0394 15.9915 24.8029 16.0827 24.5683 16.1801C24.3342 16.2769 24.102 16.38 23.8731 16.4883C23.6437 16.5965 23.4172 16.7105 23.1935 16.8302C22.9699 16.9498 22.7491 17.0747 22.5316 17.2053C22.3141 17.3359 22.0994 17.4713 21.8886 17.6123C21.6777 17.7533 21.4702 17.8991 21.2665 18.0501C21.0628 18.2016 20.8628 18.3574 20.6667 18.5184C20.4706 18.6794 20.2787 18.8451 20.0907 19.0156C19.9031 19.1856 19.7193 19.3603 19.5398 19.5398C19.3603 19.7193 19.1856 19.9031 19.0151 20.0907C18.8451 20.2787 18.6794 20.4711 18.5184 20.6672C18.3574 20.8633 18.2016 21.0632 18.0501 21.267C17.8991 21.4707 17.7533 21.6777 17.6123 21.8886C17.4713 22.0999 17.3354 22.3141 17.2053 22.5316C17.0747 22.7491 16.9498 22.9699 16.8302 23.1935C16.7105 23.4172 16.5965 23.6437 16.4883 23.8731C16.3795 24.1025 16.2769 24.3342 16.1801 24.5683C16.0827 24.8029 15.9915 25.0394 15.9061 25.2782C15.8206 25.5171 15.7413 25.7579 15.6672 26.0005C15.5936 26.2432 15.5262 26.4878 15.4644 26.7337C15.4027 26.9797 15.3471 27.2276 15.2977 27.476C15.2484 27.7248 15.2051 27.9751 15.1676 28.2258C15.1306 28.4765 15.0997 28.7282 15.0746 28.9809C15.0499 29.2335 15.0313 29.4861 15.0185 29.7397C15.0062 29.9928 15 30.2464 15 30.5C15 30.7536 15.0062 31.0072 15.0185 31.2608C15.0313 31.5139 15.0499 31.767 15.0746 32.0191C15.0997 32.2718 15.1306 32.5235 15.1676 32.7742C15.2051 33.0254 15.2484 33.2752 15.2977 33.524C15.3471 33.7729 15.4027 34.0203 15.4644 34.2663C15.5262 34.5122 15.5936 34.7568 15.6672 34.9995C15.7413 35.2421 15.8206 35.4829 15.9061 35.7218C15.9915 35.9606 16.0827 36.1971 16.1801 36.4317C16.2769 36.6658 16.3795 36.898 16.4883 37.1274C16.5965 37.3563 16.7105 37.5828 16.8302 37.8069C16.9498 38.0306 17.0747 38.2509 17.2053 38.4684C17.3354 38.6864 17.4713 38.9006 17.6123 39.1114C17.7533 39.3223 17.8991 39.5298 18.0501 39.7335C18.2016 39.9372 18.3574 40.1372 18.5184 40.3333C18.6794 40.5294 18.8451 40.7213 19.0151 40.9093C19.1856 41.0974 19.3603 41.2807 19.5398 41.4602C19.7193 41.6397 19.9031 41.8144 20.0907 41.9849C20.2787 42.1554 20.4706 42.3207 20.6667 42.4816C20.8628 42.6426 21.0628 42.7989 21.2665 42.9499C21.4702 43.1009 21.6777 43.2471 21.8886 43.3877C22.0994 43.5287 22.3141 43.6646 22.5316 43.7947C22.7491 43.9253 22.9699 44.0502 23.1935 44.1698C23.4172 44.2895 23.6437 44.4035 23.8731 44.5117C24.102 44.6205 24.3342 44.7231 24.5683 44.8204C24.8029 44.9173 25.0394 45.0085 25.2782 45.0939C25.5171 45.1794 25.7579 45.2592 26.0005 45.3328C26.2432 45.4064 26.4878 45.4738 26.7337 45.5356C26.9797 45.5973 27.2271 45.6529 27.476 45.7023C27.7248 45.7516 27.9746 45.7953 28.2258 45.8324C28.4765 45.8694 28.7282 45.9008 28.9809 45.9254C29.233 45.9501 29.4861 45.9691 29.7392 45.9815C29.9928 45.9938 30.2464 46 30.5 46C30.7536 46 31.0072 45.9938 31.2608 45.9815C31.5139 45.9691 31.767 45.9501 32.0191 45.9254C32.2718 45.9008 32.5235 45.8694 32.7742 45.8324C33.0254 45.7953 33.2752 45.7516 33.524 45.7023C33.7729 45.6529 34.0203 45.5973 34.2663 45.5356C34.5122 45.4738 34.7568 45.4064 34.9995 45.3328C35.2421 45.2592 35.4829 45.1794 35.7218 45.0939C35.9606 45.0085 36.1971 44.9173 36.4317 44.8204C36.6658 44.7231 36.8975 44.6205 37.1269 44.5117C37.3563 44.4035 37.5828 44.2895 37.8065 44.1698C38.0301 44.0502 38.2509 43.9253 38.4684 43.7947C38.6859 43.6646 38.9006 43.5287 39.1114 43.3877C39.3223 43.2471 39.5298 43.1009 39.7335 42.9499C39.9372 42.7989 40.1372 42.6426 40.3333 42.4816C40.5294 42.3207 40.7213 42.1554 40.9093 41.9849C41.0969 41.8144 41.2807 41.6397 41.4602 41.4602C41.6397 41.2807 41.8144 41.0974 41.9849 40.9093C42.1549 40.7213 42.3207 40.5294 42.4816 40.3333C42.6426 40.1372 42.7984 39.9372 42.9499 39.7335C43.1009 39.5298 43.2467 39.3223 43.3877 39.1114C43.5287 38.9006 43.6646 38.6864 43.7947 38.4684C43.9253 38.2509 44.0502 38.0306 44.1698 37.8069C44.2895 37.5828 44.4035 37.3563 44.5117 37.1274C44.6205 36.898 44.7231 36.6658 44.8199 36.4317C44.9173 36.1971 45.0085 35.9606 45.0939 35.7218C45.1794 35.4829 45.2587 35.2421 45.3328 34.9995C45.4064 34.7568 45.4738 34.5122 45.5356 34.2663C45.5973 34.0203 45.6529 33.7729 45.7023 33.524C45.7516 33.2752 45.7949 33.0254 45.8324 32.7742C45.8694 32.5235 45.9003 32.2718 45.9254 32.0191C45.9501 31.767 45.9687 31.5139 45.9815 31.2608C45.9938 31.0072 46 30.7536 46 30.5C45.9995 30.2464 45.9934 29.9928 45.9805 29.7397C45.9677 29.4866 45.9487 29.2335 45.9235 28.9813C45.8989 28.7292 45.8675 28.4775 45.83 28.2268C45.7925 27.976 45.7488 27.7262 45.6994 27.4774C45.6495 27.2286 45.594 26.9816 45.5322 26.7356C45.47 26.4897 45.4026 26.2451 45.3285 26.0024C45.2549 25.7598 45.1751 25.5195 45.0897 25.2806C45.0042 25.0418 44.9125 24.8053 44.8157 24.5712C44.7183 24.337 44.6153 24.1053 44.507 23.8759C44.3982 23.647 44.2843 23.4205 44.1646 23.1969C44.0449 22.9732 43.92 22.7528 43.7894 22.5354C43.6589 22.3179 43.5235 22.1037 43.3825 21.8928C43.2414 21.682 43.0956 21.475 42.9442 21.2712C42.7932 21.0675 42.6374 20.8676 42.4764 20.6715C42.3154 20.4758 42.1497 20.284 41.9797 20.0959C41.8092 19.9079 41.6345 19.7246 41.4549 19.5451C41.2759 19.3655 41.0921 19.1908 40.9041 19.0208C40.7165 18.8503 40.5242 18.6846 40.3285 18.5236C40.1324 18.3631 39.9325 18.2068 39.7288 18.0558C39.525 17.9048 39.318 17.7586 39.1072 17.6175C38.8963 17.477 38.6821 17.3411 38.4646 17.2106C38.2472 17.08 38.0268 16.9551 37.8031 16.8354C37.5795 16.7157 37.3534 16.6018 37.1241 16.493C36.8947 16.3847 36.663 16.2817 36.4288 16.1848C36.1947 16.0875 35.9582 15.9963 35.7194 15.9103C35.4805 15.8249 35.2402 15.7451 34.9976 15.6715C34.7549 15.5979 34.5103 15.53 34.2648 15.4682C34.0188 15.406 33.7714 15.3505 33.5226 15.3006C33.2742 15.2512 33.0244 15.2075 32.7732 15.17C32.5225 15.1325 32.2713 15.1016 32.0187 15.0765C31.7665 15.0513 31.5134 15.0323 31.2603 15.0195C31.0072 15.0066 30.7536 15.0005 30.5 15ZM30.5 44.6523C30.2683 44.6523 30.037 44.6466 29.8057 44.6352C29.5745 44.6238 29.3432 44.6067 29.1129 44.5839C28.8826 44.5616 28.6527 44.5331 28.4234 44.4989C28.1945 44.4652 27.9661 44.4253 27.7391 44.3802C27.5121 44.3351 27.286 44.2843 27.0614 44.2282C26.8368 44.1717 26.6136 44.11 26.3918 44.043C26.1701 43.9756 25.9502 43.9029 25.7322 43.8251C25.5143 43.7472 25.2982 43.6636 25.084 43.5748C24.8703 43.4865 24.6585 43.3924 24.4491 43.2937C24.2397 43.1944 24.0331 43.0904 23.8289 42.9812C23.6242 42.872 23.4229 42.758 23.2244 42.6388C23.0259 42.5196 22.8303 42.3957 22.6375 42.267C22.4451 42.1383 22.2557 42.0053 22.0695 41.8671C21.8833 41.7294 21.701 41.587 21.522 41.4398C21.3429 41.293 21.1677 41.1415 20.9958 40.9862C20.8244 40.8305 20.6567 40.6709 20.4929 40.5071C20.3291 40.3433 20.1695 40.1756 20.0138 40.0042C19.8585 39.8323 19.707 39.6571 19.5602 39.478C19.4135 39.299 19.271 39.1167 19.1329 38.9305C18.9947 38.7443 18.8617 38.5553 18.733 38.3625C18.6043 38.1702 18.4804 37.9746 18.3612 37.7756C18.242 37.5771 18.128 37.3758 18.0188 37.1716C17.9096 36.9669 17.8056 36.7603 17.7068 36.5509C17.6076 36.3415 17.5135 36.1297 17.4252 35.916C17.3364 35.7018 17.2533 35.4857 17.1749 35.2678C17.0971 35.0498 17.0244 34.8299 16.9574 34.6082C16.89 34.3864 16.8283 34.1637 16.7718 33.9386C16.7157 33.714 16.6649 33.4884 16.6198 33.2609C16.5747 33.0339 16.5348 32.8055 16.5011 32.5766C16.4669 32.3477 16.4389 32.1179 16.4161 31.8871C16.3933 31.6568 16.3762 31.426 16.3648 31.1943C16.3534 30.963 16.3477 30.7317 16.3477 30.5C16.3477 30.2683 16.3534 30.037 16.3648 29.8057C16.3762 29.5745 16.3933 29.3432 16.4161 29.1129C16.4389 28.8826 16.4669 28.6527 16.5011 28.4234C16.5348 28.1945 16.5747 27.9665 16.6198 27.7391C16.6649 27.5121 16.7157 27.286 16.7718 27.0614C16.8283 26.8368 16.89 26.6136 16.9574 26.3918C17.0244 26.1701 17.0971 25.9502 17.1749 25.7322C17.2533 25.5143 17.3364 25.2982 17.4252 25.0845C17.5135 24.8703 17.6076 24.6585 17.7068 24.4491C17.8056 24.2397 17.9096 24.0331 18.0188 23.8289C18.128 23.6247 18.242 23.4229 18.3612 23.2244C18.4804 23.0259 18.6043 22.8303 18.733 22.6375C18.8617 22.4451 18.9947 22.2557 19.1329 22.0695C19.271 21.8838 19.4135 21.701 19.5602 21.522C19.707 21.3429 19.8585 21.1677 20.0138 20.9963C20.1695 20.8244 20.3291 20.6567 20.4929 20.4929C20.6567 20.3291 20.8244 20.1695 20.9958 20.0142C21.1677 19.8585 21.3429 19.7075 21.522 19.5602C21.701 19.4135 21.8833 19.271 22.0695 19.1329C22.2557 18.9951 22.4451 18.8617 22.6375 18.733C22.8303 18.6043 23.0259 18.4804 23.2244 18.3612C23.4229 18.2425 23.6242 18.128 23.8289 18.0188C24.0331 17.9096 24.2397 17.8056 24.4491 17.7068C24.6585 17.6076 24.8703 17.514 25.084 17.4252C25.2982 17.3364 25.5143 17.2533 25.7322 17.1754C25.9502 17.0971 26.1701 17.0244 26.3918 16.9574C26.6136 16.89 26.8368 16.8283 27.0614 16.7722C27.286 16.7157 27.5121 16.6649 27.7391 16.6198C27.9661 16.5747 28.1945 16.5353 28.4234 16.5011C28.6527 16.4669 28.8826 16.4389 29.1129 16.4161C29.3432 16.3933 29.5745 16.3762 29.8057 16.3648C30.037 16.3534 30.2683 16.3477 30.5 16.3477C30.7317 16.3477 30.963 16.3534 31.1943 16.3648C31.4255 16.3762 31.6568 16.3933 31.8871 16.4161C32.1174 16.4389 32.3473 16.4669 32.5766 16.5011C32.8055 16.5353 33.0339 16.5747 33.2609 16.6198C33.4879 16.6649 33.714 16.7157 33.9386 16.7722C34.1632 16.8283 34.3864 16.89 34.6082 16.9574C34.8299 17.0244 35.0498 17.0971 35.2678 17.1754C35.4857 17.2533 35.7018 17.3364 35.916 17.4252C36.1297 17.514 36.3415 17.6076 36.5509 17.7068C36.7603 17.8056 36.9669 17.9096 37.1711 18.0188C37.3758 18.128 37.5771 18.2425 37.7756 18.3612C37.9741 18.4804 38.1697 18.6043 38.3625 18.733C38.5549 18.8617 38.7443 18.9951 38.9305 19.1329C39.1167 19.271 39.299 19.4135 39.478 19.5602C39.6571 19.7075 39.8323 19.8585 40.0042 20.0142C40.1756 20.1695 40.3433 20.3291 40.5071 20.4929C40.6709 20.6567 40.8305 20.8244 40.9862 20.9963C41.1415 21.1677 41.293 21.3429 41.4398 21.522C41.5865 21.701 41.729 21.8838 41.8671 22.0695C42.0053 22.2557 42.1383 22.4451 42.267 22.6375C42.3957 22.8303 42.5196 23.0259 42.6388 23.2244C42.758 23.4229 42.872 23.6247 42.9812 23.8289C43.0904 24.0331 43.1944 24.2397 43.2932 24.4491C43.3924 24.6585 43.4865 24.8703 43.5748 25.0845C43.6636 25.2982 43.7467 25.5143 43.8251 25.7322C43.9029 25.9502 43.9756 26.1701 44.0426 26.3918C44.11 26.6136 44.1717 26.8368 44.2282 27.0614C44.2843 27.286 44.3351 27.5121 44.3802 27.7391C44.4253 27.9665 44.4652 28.1945 44.4989 28.4234C44.5331 28.6527 44.5611 28.8826 44.5839 29.1129C44.6067 29.3432 44.6238 29.5745 44.6352 29.8057C44.6466 30.037 44.6523 30.2683 44.6523 30.5C44.6518 30.7317 44.6461 30.963 44.6343 31.1943C44.6229 31.4255 44.6058 31.6563 44.5825 31.8866C44.5597 32.117 44.5312 32.3468 44.497 32.5757C44.4628 32.8051 44.4229 33.033 44.3778 33.26C44.3322 33.487 44.2814 33.713 44.2249 33.9372C44.1684 34.1618 44.1067 34.385 44.0392 34.6067C43.9718 34.828 43.8991 35.0479 43.8213 35.2659C43.7429 35.4838 43.6593 35.6994 43.571 35.9136C43.4822 36.1273 43.3882 36.3391 43.2889 36.548C43.1901 36.7575 43.0857 36.964 42.9765 37.1682C42.8672 37.3724 42.7533 37.5738 42.6341 37.7723C42.5149 37.9708 42.3909 38.1664 42.2622 38.3587C42.1335 38.5515 42.0001 38.7405 41.8624 38.9267C41.7242 39.1124 41.5817 39.2952 41.435 39.4738C41.2883 39.6528 41.1368 39.828 40.9815 39.9999C40.8257 40.1714 40.6662 40.339 40.5023 40.5028C40.339 40.6662 40.1714 40.8262 39.9994 40.9815C39.828 41.1368 39.6528 41.2883 39.4738 41.435C39.2947 41.5822 39.1124 41.7247 38.9267 41.8624C38.7405 42.0006 38.5515 42.1335 38.3587 42.2622C38.1664 42.3909 37.9708 42.5149 37.7723 42.6341C37.5738 42.7533 37.3724 42.8672 37.1682 42.9765C36.964 43.0857 36.7575 43.1901 36.548 43.2889C36.3386 43.3882 36.1273 43.4822 35.9136 43.571C35.6994 43.6598 35.4838 43.7429 35.2659 43.8213C35.0479 43.8991 34.828 43.9723 34.6063 44.0392C34.385 44.1067 34.1618 44.1689 33.9372 44.2249C33.7125 44.2814 33.487 44.3322 33.26 44.3778C33.033 44.4229 32.8046 44.4628 32.5757 44.497C32.3468 44.5312 32.117 44.5597 31.8866 44.5825C31.6563 44.6058 31.4255 44.6229 31.1943 44.6343C30.963 44.6461 30.7317 44.6518 30.5 44.6523Z" fill="white"/>
<mask id="path-4-outside-1_291_1080" maskUnits="userSpaceOnUse" x="22" y="22" width="18" height="18" fill="black">
<rect fill="white" x="22" y="22" width="18" height="18"/>
<path d="M38.4131 33.6225C38.3206 33.5293 38.2199 33.4462 38.1105 33.3729C38.0014 33.2996 37.8864 33.238 37.765 33.1877C37.6435 33.1373 37.5187 33.0993 37.3898 33.0738C37.2608 33.0482 37.1307 33.0354 36.9991 33.0358H33.3313C33.2772 33.0358 33.2242 33.0437 33.1727 33.0599C33.1208 33.076 33.0727 33.0993 33.0283 33.1302C32.9836 33.161 32.9448 33.1974 32.9114 33.2399C32.8779 33.2827 32.8516 33.3293 32.8324 33.3797L32.6324 33.9088C32.6023 33.987 32.5583 34.0562 32.4997 34.1163C32.441 34.1764 32.373 34.2223 32.2956 34.2546C32.2264 34.2843 32.1542 34.2989 32.0786 34.2982C32.0034 34.2978 31.9312 34.282 31.8624 34.2512C31.4102 34.0464 30.9797 33.8029 30.5714 33.5202C30.1631 33.2376 29.7834 32.9212 29.4323 32.5702C29.0811 32.2192 28.7642 31.8396 28.4818 31.4315C28.1991 31.0233 27.9555 30.593 27.7506 30.1409C27.7198 30.0722 27.704 30 27.7032 29.9248C27.7025 29.8493 27.7171 29.7771 27.7468 29.708C27.7792 29.6302 27.8254 29.5622 27.8856 29.5039C27.9457 29.4453 28.0153 29.4013 28.0935 29.3713L28.6217 29.1706C28.6725 29.1514 28.7191 29.1255 28.7616 29.092C28.8044 29.0586 28.8409 29.0195 28.8717 28.9751C28.9025 28.9304 28.9262 28.8823 28.9424 28.8308C28.9582 28.779 28.9665 28.7264 28.9665 28.6722V24.9975C28.9668 24.8667 28.9544 24.7371 28.9292 24.6086C28.904 24.4804 28.8661 24.3556 28.8161 24.235C28.7661 24.114 28.7044 23.9994 28.6315 23.8908C28.5585 23.7821 28.4758 23.6814 28.3826 23.5893C28.2875 23.495 28.1837 23.4108 28.0721 23.3368C27.96 23.2628 27.842 23.2008 27.7175 23.15C27.5935 23.0997 27.4653 23.0617 27.3337 23.0365C27.2017 23.011 27.069 22.9989 26.9348 23.0001H26.7882C26.6637 23.0004 26.5397 23.0072 26.416 23.0196C26.2923 23.0324 26.1693 23.0508 26.0475 23.0756C25.9257 23.1 25.805 23.1309 25.6862 23.1673C25.5674 23.2038 25.4505 23.2459 25.3358 23.294C25.2212 23.3417 25.1088 23.3951 24.9994 23.4541C24.89 23.5131 24.7836 23.5773 24.6802 23.6465C24.5772 23.716 24.4775 23.79 24.3817 23.8693C24.2858 23.9486 24.1941 24.0321 24.1061 24.1204C24.0185 24.2083 23.9354 24.3008 23.8568 24.397C23.7779 24.4932 23.7042 24.5932 23.6354 24.6965C23.5666 24.8002 23.503 24.907 23.4444 25.0167C23.3861 25.1264 23.3335 25.2388 23.2861 25.3538C23.2387 25.4688 23.197 25.5857 23.1613 25.7048C23.1256 25.8239 23.0955 25.9442 23.0714 26.0663C23.0474 26.1885 23.0293 26.311 23.0177 26.435C23.0057 26.5587 22.9996 26.6827 23 26.8071C23 26.9281 23.0038 27.0502 23.0075 27.1724C23.0147 27.3637 23.0267 27.5546 23.0429 27.7455C23.0594 27.9364 23.0801 28.1266 23.1053 28.3163C23.1305 28.5061 23.1598 28.6952 23.194 28.8838C23.2282 29.0721 23.2666 29.2596 23.3091 29.4464C23.3519 29.6328 23.3993 29.8185 23.4504 30.003C23.5019 30.1875 23.5579 30.3705 23.6177 30.5524C23.6779 30.7343 23.7422 30.9144 23.8106 31.0932C23.879 31.2721 23.9516 31.4491 24.0283 31.6246C24.105 31.8001 24.1854 31.9738 24.2704 32.1455C24.3553 32.3173 24.4441 32.4868 24.5366 32.6544C24.6294 32.822 24.726 32.987 24.8264 33.1501C24.9268 33.3132 25.0309 33.4736 25.1392 33.6319C25.2471 33.7901 25.3588 33.9457 25.4738 34.0986C25.5889 34.2516 25.7077 34.4019 25.8298 34.5492C25.952 34.6965 26.078 34.8412 26.2069 34.9825C26.3359 35.1242 26.4678 35.2625 26.6036 35.3982C26.7389 35.5335 26.8773 35.6658 27.019 35.7947C27.1607 35.9236 27.3051 36.0491 27.4529 36.1712C27.6002 36.2934 27.7506 36.4121 27.9036 36.5271C28.0566 36.6421 28.2123 36.7538 28.3702 36.8616C28.5285 36.9695 28.6894 37.074 28.8525 37.1743C29.0153 37.2746 29.1807 37.3712 29.3484 37.4637C29.5161 37.5565 29.6857 37.6452 29.8575 37.7301C30.0293 37.8147 30.203 37.8955 30.3785 37.9721C30.5537 38.0488 30.7312 38.1213 30.9102 38.1897C31.0891 38.2581 31.2692 38.322 31.4512 38.3822C31.6331 38.4423 31.8166 38.4979 32.0008 38.5494C32.1854 38.6005 32.3711 38.6479 32.5576 38.6903C32.7444 38.7332 32.932 38.7715 33.1204 38.8057C33.3091 38.8395 33.4982 38.8692 33.6881 38.8944C33.878 38.9196 34.0682 38.9402 34.2592 38.9564C34.4502 38.9729 34.6411 38.9846 34.8325 38.9921C34.9532 38.9962 35.0727 38.9989 35.1927 39H35.2216C35.3453 38.9996 35.469 38.9929 35.5923 38.9801C35.7153 38.9677 35.8378 38.9489 35.9593 38.9245C36.0807 38.8997 36.2002 38.8692 36.3187 38.8331C36.4371 38.7967 36.5536 38.7546 36.6679 38.7069C36.7822 38.6591 36.8939 38.6058 37.0029 38.5471C37.1119 38.4885 37.218 38.4246 37.321 38.3559C37.4236 38.2867 37.5229 38.2127 37.6184 38.1341C37.7142 38.0552 37.8056 37.9721 37.8932 37.8842C37.9804 37.7966 38.0635 37.7049 38.1417 37.6091C38.2203 37.5133 38.2939 37.4137 38.3627 37.3107C38.4312 37.2077 38.4947 37.1018 38.553 36.9924C38.6116 36.883 38.6643 36.7714 38.7116 36.6568C38.759 36.5425 38.8007 36.426 38.8368 36.3077C38.8725 36.1893 38.9026 36.069 38.9271 35.9476C38.9511 35.8262 38.9692 35.7041 38.9816 35.5808C38.9936 35.4576 39 35.3339 39 35.2103V35.0359C39.0004 34.9044 38.9876 34.7743 38.962 34.6454C38.9365 34.5165 38.8989 34.3918 38.8485 34.2704C38.7981 34.149 38.7361 34.034 38.6628 33.9246C38.5898 33.8156 38.5064 33.7149 38.4131 33.6225ZM37.933 35.0359V35.2095C37.9334 35.3899 37.9157 35.5681 37.8804 35.7451C37.8451 35.9217 37.7924 36.0931 37.7229 36.2592C37.6533 36.4257 37.568 36.5831 37.4668 36.7323C37.3661 36.8815 37.251 37.0195 37.1225 37.1457C36.998 37.2705 36.8623 37.3821 36.7157 37.4802C36.5687 37.5787 36.4138 37.6613 36.251 37.729C36.0878 37.7966 35.9198 37.8474 35.7465 37.882C35.5735 37.9162 35.3987 37.9334 35.222 37.9334H35.2017C35.0919 37.9334 34.9814 37.9301 34.8705 37.9259C34.6957 37.9192 34.5212 37.9083 34.3471 37.8936C34.1727 37.8786 33.999 37.8598 33.8257 37.8365C33.6524 37.8136 33.4794 37.7865 33.3076 37.7557C33.1354 37.7245 32.964 37.6895 32.7937 37.6504C32.6234 37.6114 32.4538 37.5685 32.2854 37.5215C32.117 37.4746 31.9497 37.4238 31.7835 37.369C31.6173 37.3141 31.4527 37.2555 31.2895 37.1931C31.1259 37.1307 30.9643 37.0646 30.8041 36.9943C30.644 36.9244 30.4853 36.8507 30.3285 36.7733C30.1718 36.6959 30.0169 36.6151 29.8639 36.5305C29.7108 36.4456 29.5597 36.3576 29.4108 36.2659C29.262 36.1743 29.1153 36.0792 28.971 35.9807C28.8266 35.8822 28.6845 35.7804 28.5446 35.6752C28.4048 35.5699 28.2679 35.4617 28.133 35.3501C27.9984 35.2385 27.8664 35.1238 27.7371 35.0062C27.6081 34.8886 27.4814 34.768 27.3577 34.6443C27.234 34.5207 27.1134 34.3944 26.9957 34.2651C26.878 34.1358 26.7633 34.0039 26.6517 33.8694C26.54 33.7348 26.4318 33.5977 26.3265 33.4579C26.2212 33.3184 26.1193 33.1764 26.0208 33.0317C25.9223 32.8874 25.8272 32.7408 25.7355 32.592C25.6437 32.4432 25.5558 32.2921 25.4712 32.1391C25.3862 31.9862 25.3054 31.8313 25.2279 31.6746C25.1505 31.5179 25.0768 31.3597 25.0069 31.1992C24.9366 31.0391 24.8704 30.8775 24.808 30.714C24.7456 30.5509 24.6869 30.3863 24.632 30.2202C24.5775 30.0541 24.5264 29.8872 24.4794 29.7185C24.4324 29.5501 24.3896 29.381 24.3505 29.2104C24.3114 29.0402 24.2764 28.8688 24.2452 28.697C24.2144 28.5249 24.1873 28.352 24.1644 28.1788C24.1414 28.0055 24.1222 27.8319 24.1076 27.6579C24.0925 27.4835 24.0816 27.3092 24.0749 27.1344C24.0711 27.0224 24.0685 26.9112 24.0681 26.7996C24.0666 26.6214 24.0828 26.4448 24.1166 26.27C24.1501 26.0953 24.2008 25.9254 24.2685 25.7604C24.3358 25.5954 24.4193 25.4391 24.5178 25.2907C24.6166 25.1426 24.729 25.0054 24.855 24.8795C24.9813 24.751 25.1189 24.6364 25.2682 24.5353C25.417 24.4342 25.5746 24.3489 25.7407 24.279C25.9069 24.2091 26.078 24.1565 26.2547 24.1208C26.431 24.085 26.6096 24.067 26.7897 24.0666H26.9359C27.0652 24.0651 27.1904 24.0888 27.3104 24.1369C27.4307 24.1854 27.5371 24.2549 27.6296 24.3459C27.7164 24.4319 27.7829 24.5319 27.8299 24.645C27.8766 24.7581 27.8999 24.8761 27.8995 24.9987V28.3051L27.7153 28.375C27.6085 28.4156 27.5066 28.4667 27.4104 28.5283C27.3137 28.5896 27.2246 28.6602 27.1423 28.7399C27.0604 28.8196 26.987 28.9064 26.9231 29.0011C26.8588 29.0958 26.8047 29.1958 26.7607 29.3014C26.7179 29.4028 26.6859 29.5077 26.6648 29.6159C26.6438 29.7238 26.634 29.8331 26.6355 29.9432C26.637 30.0534 26.6498 30.1623 26.6739 30.2698C26.6979 30.3773 26.7329 30.481 26.7784 30.5814C27.0096 31.0917 27.2848 31.5773 27.604 32.038C27.9228 32.4988 28.2807 32.9272 28.677 33.3237C29.0732 33.7198 29.5018 34.0772 29.9627 34.3963C30.4237 34.715 30.9094 34.9901 31.4203 35.2212C31.5203 35.267 31.6245 35.302 31.732 35.326C31.8395 35.3501 31.9482 35.3632 32.0583 35.3647C32.1689 35.3662 32.2779 35.3565 32.3862 35.3354C32.4941 35.3144 32.5989 35.2824 32.7005 35.2396C32.8061 35.1956 32.9065 35.1415 33.0008 35.0772C33.0956 35.013 33.1828 34.9401 33.2625 34.8578C33.3418 34.7758 33.4125 34.6868 33.4742 34.5902C33.5355 34.494 33.5866 34.3921 33.6272 34.2854L33.6971 34.1013H36.9984C37.0597 34.1013 37.1206 34.1073 37.1807 34.1189C37.2409 34.1309 37.2995 34.1486 37.3563 34.1719C37.4127 34.1952 37.4668 34.2241 37.518 34.258C37.5691 34.2922 37.6161 34.3309 37.6597 34.3741C37.7029 34.4177 37.7417 34.4647 37.7759 34.5158C37.8101 34.5669 37.8387 34.6206 37.8623 34.6774C37.8857 34.7341 37.9033 34.7928 37.9154 34.8529C37.927 34.913 37.933 34.9739 37.933 35.0352V35.0359Z"/>
</mask>
<path d="M38.4131 33.6225C38.3206 33.5293 38.2199 33.4462 38.1105 33.3729C38.0014 33.2996 37.8864 33.238 37.765 33.1877C37.6435 33.1373 37.5187 33.0993 37.3898 33.0738C37.2608 33.0482 37.1307 33.0354 36.9991 33.0358H33.3313C33.2772 33.0358 33.2242 33.0437 33.1727 33.0599C33.1208 33.076 33.0727 33.0993 33.0283 33.1302C32.9836 33.161 32.9448 33.1974 32.9114 33.2399C32.8779 33.2827 32.8516 33.3293 32.8324 33.3797L32.6324 33.9088C32.6023 33.987 32.5583 34.0562 32.4997 34.1163C32.441 34.1764 32.373 34.2223 32.2956 34.2546C32.2264 34.2843 32.1542 34.2989 32.0786 34.2982C32.0034 34.2978 31.9312 34.282 31.8624 34.2512C31.4102 34.0464 30.9797 33.8029 30.5714 33.5202C30.1631 33.2376 29.7834 32.9212 29.4323 32.5702C29.0811 32.2192 28.7642 31.8396 28.4818 31.4315C28.1991 31.0233 27.9555 30.593 27.7506 30.1409C27.7198 30.0722 27.704 30 27.7032 29.9248C27.7025 29.8493 27.7171 29.7771 27.7468 29.708C27.7792 29.6302 27.8254 29.5622 27.8856 29.5039C27.9457 29.4453 28.0153 29.4013 28.0935 29.3713L28.6217 29.1706C28.6725 29.1514 28.7191 29.1255 28.7616 29.092C28.8044 29.0586 28.8409 29.0195 28.8717 28.9751C28.9025 28.9304 28.9262 28.8823 28.9424 28.8308C28.9582 28.779 28.9665 28.7264 28.9665 28.6722V24.9975C28.9668 24.8667 28.9544 24.7371 28.9292 24.6086C28.904 24.4804 28.8661 24.3556 28.8161 24.235C28.7661 24.114 28.7044 23.9994 28.6315 23.8908C28.5585 23.7821 28.4758 23.6814 28.3826 23.5893C28.2875 23.495 28.1837 23.4108 28.0721 23.3368C27.96 23.2628 27.842 23.2008 27.7175 23.15C27.5935 23.0997 27.4653 23.0617 27.3337 23.0365C27.2017 23.011 27.069 22.9989 26.9348 23.0001H26.7882C26.6637 23.0004 26.5397 23.0072 26.416 23.0196C26.2923 23.0324 26.1693 23.0508 26.0475 23.0756C25.9257 23.1 25.805 23.1309 25.6862 23.1673C25.5674 23.2038 25.4505 23.2459 25.3358 23.294C25.2212 23.3417 25.1088 23.3951 24.9994 23.4541C24.89 23.5131 24.7836 23.5773 24.6802 23.6465C24.5772 23.716 24.4775 23.79 24.3817 23.8693C24.2858 23.9486 24.1941 24.0321 24.1061 24.1204C24.0185 24.2083 23.9354 24.3008 23.8568 24.397C23.7779 24.4932 23.7042 24.5932 23.6354 24.6965C23.5666 24.8002 23.503 24.907 23.4444 25.0167C23.3861 25.1264 23.3335 25.2388 23.2861 25.3538C23.2387 25.4688 23.197 25.5857 23.1613 25.7048C23.1256 25.8239 23.0955 25.9442 23.0714 26.0663C23.0474 26.1885 23.0293 26.311 23.0177 26.435C23.0057 26.5587 22.9996 26.6827 23 26.8071C23 26.9281 23.0038 27.0502 23.0075 27.1724C23.0147 27.3637 23.0267 27.5546 23.0429 27.7455C23.0594 27.9364 23.0801 28.1266 23.1053 28.3163C23.1305 28.5061 23.1598 28.6952 23.194 28.8838C23.2282 29.0721 23.2666 29.2596 23.3091 29.4464C23.3519 29.6328 23.3993 29.8185 23.4504 30.003C23.5019 30.1875 23.5579 30.3705 23.6177 30.5524C23.6779 30.7343 23.7422 30.9144 23.8106 31.0932C23.879 31.2721 23.9516 31.4491 24.0283 31.6246C24.105 31.8001 24.1854 31.9738 24.2704 32.1455C24.3553 32.3173 24.4441 32.4868 24.5366 32.6544C24.6294 32.822 24.726 32.987 24.8264 33.1501C24.9268 33.3132 25.0309 33.4736 25.1392 33.6319C25.2471 33.7901 25.3588 33.9457 25.4738 34.0986C25.5889 34.2516 25.7077 34.4019 25.8298 34.5492C25.952 34.6965 26.078 34.8412 26.2069 34.9825C26.3359 35.1242 26.4678 35.2625 26.6036 35.3982C26.7389 35.5335 26.8773 35.6658 27.019 35.7947C27.1607 35.9236 27.3051 36.0491 27.4529 36.1712C27.6002 36.2934 27.7506 36.4121 27.9036 36.5271C28.0566 36.6421 28.2123 36.7538 28.3702 36.8616C28.5285 36.9695 28.6894 37.074 28.8525 37.1743C29.0153 37.2746 29.1807 37.3712 29.3484 37.4637C29.5161 37.5565 29.6857 37.6452 29.8575 37.7301C30.0293 37.8147 30.203 37.8955 30.3785 37.9721C30.5537 38.0488 30.7312 38.1213 30.9102 38.1897C31.0891 38.2581 31.2692 38.322 31.4512 38.3822C31.6331 38.4423 31.8166 38.4979 32.0008 38.5494C32.1854 38.6005 32.3711 38.6479 32.5576 38.6903C32.7444 38.7332 32.932 38.7715 33.1204 38.8057C33.3091 38.8395 33.4982 38.8692 33.6881 38.8944C33.878 38.9196 34.0682 38.9402 34.2592 38.9564C34.4502 38.9729 34.6411 38.9846 34.8325 38.9921C34.9532 38.9962 35.0727 38.9989 35.1927 39H35.2216C35.3453 38.9996 35.469 38.9929 35.5923 38.9801C35.7153 38.9677 35.8378 38.9489 35.9593 38.9245C36.0807 38.8997 36.2002 38.8692 36.3187 38.8331C36.4371 38.7967 36.5536 38.7546 36.6679 38.7069C36.7822 38.6591 36.8939 38.6058 37.0029 38.5471C37.1119 38.4885 37.218 38.4246 37.321 38.3559C37.4236 38.2867 37.5229 38.2127 37.6184 38.1341C37.7142 38.0552 37.8056 37.9721 37.8932 37.8842C37.9804 37.7966 38.0635 37.7049 38.1417 37.6091C38.2203 37.5133 38.2939 37.4137 38.3627 37.3107C38.4312 37.2077 38.4947 37.1018 38.553 36.9924C38.6116 36.883 38.6643 36.7714 38.7116 36.6568C38.759 36.5425 38.8007 36.426 38.8368 36.3077C38.8725 36.1893 38.9026 36.069 38.9271 35.9476C38.9511 35.8262 38.9692 35.7041 38.9816 35.5808C38.9936 35.4576 39 35.3339 39 35.2103V35.0359C39.0004 34.9044 38.9876 34.7743 38.962 34.6454C38.9365 34.5165 38.8989 34.3918 38.8485 34.2704C38.7981 34.149 38.7361 34.034 38.6628 33.9246C38.5898 33.8156 38.5064 33.7149 38.4131 33.6225ZM37.933 35.0359V35.2095C37.9334 35.3899 37.9157 35.5681 37.8804 35.7451C37.8451 35.9217 37.7924 36.0931 37.7229 36.2592C37.6533 36.4257 37.568 36.5831 37.4668 36.7323C37.3661 36.8815 37.251 37.0195 37.1225 37.1457C36.998 37.2705 36.8623 37.3821 36.7157 37.4802C36.5687 37.5787 36.4138 37.6613 36.251 37.729C36.0878 37.7966 35.9198 37.8474 35.7465 37.882C35.5735 37.9162 35.3987 37.9334 35.222 37.9334H35.2017C35.0919 37.9334 34.9814 37.9301 34.8705 37.9259C34.6957 37.9192 34.5212 37.9083 34.3471 37.8936C34.1727 37.8786 33.999 37.8598 33.8257 37.8365C33.6524 37.8136 33.4794 37.7865 33.3076 37.7557C33.1354 37.7245 32.964 37.6895 32.7937 37.6504C32.6234 37.6114 32.4538 37.5685 32.2854 37.5215C32.117 37.4746 31.9497 37.4238 31.7835 37.369C31.6173 37.3141 31.4527 37.2555 31.2895 37.1931C31.1259 37.1307 30.9643 37.0646 30.8041 36.9943C30.644 36.9244 30.4853 36.8507 30.3285 36.7733C30.1718 36.6959 30.0169 36.6151 29.8639 36.5305C29.7108 36.4456 29.5597 36.3576 29.4108 36.2659C29.262 36.1743 29.1153 36.0792 28.971 35.9807C28.8266 35.8822 28.6845 35.7804 28.5446 35.6752C28.4048 35.5699 28.2679 35.4617 28.133 35.3501C27.9984 35.2385 27.8664 35.1238 27.7371 35.0062C27.6081 34.8886 27.4814 34.768 27.3577 34.6443C27.234 34.5207 27.1134 34.3944 26.9957 34.2651C26.878 34.1358 26.7633 34.0039 26.6517 33.8694C26.54 33.7348 26.4318 33.5977 26.3265 33.4579C26.2212 33.3184 26.1193 33.1764 26.0208 33.0317C25.9223 32.8874 25.8272 32.7408 25.7355 32.592C25.6437 32.4432 25.5558 32.2921 25.4712 32.1391C25.3862 31.9862 25.3054 31.8313 25.2279 31.6746C25.1505 31.5179 25.0768 31.3597 25.0069 31.1992C24.9366 31.0391 24.8704 30.8775 24.808 30.714C24.7456 30.5509 24.6869 30.3863 24.632 30.2202C24.5775 30.0541 24.5264 29.8872 24.4794 29.7185C24.4324 29.5501 24.3896 29.381 24.3505 29.2104C24.3114 29.0402 24.2764 28.8688 24.2452 28.697C24.2144 28.5249 24.1873 28.352 24.1644 28.1788C24.1414 28.0055 24.1222 27.8319 24.1076 27.6579C24.0925 27.4835 24.0816 27.3092 24.0749 27.1344C24.0711 27.0224 24.0685 26.9112 24.0681 26.7996C24.0666 26.6214 24.0828 26.4448 24.1166 26.27C24.1501 26.0953 24.2008 25.9254 24.2685 25.7604C24.3358 25.5954 24.4193 25.4391 24.5178 25.2907C24.6166 25.1426 24.729 25.0054 24.855 24.8795C24.9813 24.751 25.1189 24.6364 25.2682 24.5353C25.417 24.4342 25.5746 24.3489 25.7407 24.279C25.9069 24.2091 26.078 24.1565 26.2547 24.1208C26.431 24.085 26.6096 24.067 26.7897 24.0666H26.9359C27.0652 24.0651 27.1904 24.0888 27.3104 24.1369C27.4307 24.1854 27.5371 24.2549 27.6296 24.3459C27.7164 24.4319 27.7829 24.5319 27.8299 24.645C27.8766 24.7581 27.8999 24.8761 27.8995 24.9987V28.3051L27.7153 28.375C27.6085 28.4156 27.5066 28.4667 27.4104 28.5283C27.3137 28.5896 27.2246 28.6602 27.1423 28.7399C27.0604 28.8196 26.987 28.9064 26.9231 29.0011C26.8588 29.0958 26.8047 29.1958 26.7607 29.3014C26.7179 29.4028 26.6859 29.5077 26.6648 29.6159C26.6438 29.7238 26.634 29.8331 26.6355 29.9432C26.637 30.0534 26.6498 30.1623 26.6739 30.2698C26.6979 30.3773 26.7329 30.481 26.7784 30.5814C27.0096 31.0917 27.2848 31.5773 27.604 32.038C27.9228 32.4988 28.2807 32.9272 28.677 33.3237C29.0732 33.7198 29.5018 34.0772 29.9627 34.3963C30.4237 34.715 30.9094 34.9901 31.4203 35.2212C31.5203 35.267 31.6245 35.302 31.732 35.326C31.8395 35.3501 31.9482 35.3632 32.0583 35.3647C32.1689 35.3662 32.2779 35.3565 32.3862 35.3354C32.4941 35.3144 32.5989 35.2824 32.7005 35.2396C32.8061 35.1956 32.9065 35.1415 33.0008 35.0772C33.0956 35.013 33.1828 34.9401 33.2625 34.8578C33.3418 34.7758 33.4125 34.6868 33.4742 34.5902C33.5355 34.494 33.5866 34.3921 33.6272 34.2854L33.6971 34.1013H36.9984C37.0597 34.1013 37.1206 34.1073 37.1807 34.1189C37.2409 34.1309 37.2995 34.1486 37.3563 34.1719C37.4127 34.1952 37.4668 34.2241 37.518 34.258C37.5691 34.2922 37.6161 34.3309 37.6597 34.3741C37.7029 34.4177 37.7417 34.4647 37.7759 34.5158C37.8101 34.5669 37.8387 34.6206 37.8623 34.6774C37.8857 34.7341 37.9033 34.7928 37.9154 34.8529C37.927 34.913 37.933 34.9739 37.933 35.0352V35.0359Z" fill="white"/>
<path d="M38.4131 33.6225C38.3206 33.5293 38.2199 33.4462 38.1105 33.3729C38.0014 33.2996 37.8864 33.238 37.765 33.1877C37.6435 33.1373 37.5187 33.0993 37.3898 33.0738C37.2608 33.0482 37.1307 33.0354 36.9991 33.0358H33.3313C33.2772 33.0358 33.2242 33.0437 33.1727 33.0599C33.1208 33.076 33.0727 33.0993 33.0283 33.1302C32.9836 33.161 32.9448 33.1974 32.9114 33.2399C32.8779 33.2827 32.8516 33.3293 32.8324 33.3797L32.6324 33.9088C32.6023 33.987 32.5583 34.0562 32.4997 34.1163C32.441 34.1764 32.373 34.2223 32.2956 34.2546C32.2264 34.2843 32.1542 34.2989 32.0786 34.2982C32.0034 34.2978 31.9312 34.282 31.8624 34.2512C31.4102 34.0464 30.9797 33.8029 30.5714 33.5202C30.1631 33.2376 29.7834 32.9212 29.4323 32.5702C29.0811 32.2192 28.7642 31.8396 28.4818 31.4315C28.1991 31.0233 27.9555 30.593 27.7506 30.1409C27.7198 30.0722 27.704 30 27.7032 29.9248C27.7025 29.8493 27.7171 29.7771 27.7468 29.708C27.7792 29.6302 27.8254 29.5622 27.8856 29.5039C27.9457 29.4453 28.0153 29.4013 28.0935 29.3713L28.6217 29.1706C28.6725 29.1514 28.7191 29.1255 28.7616 29.092C28.8044 29.0586 28.8409 29.0195 28.8717 28.9751C28.9025 28.9304 28.9262 28.8823 28.9424 28.8308C28.9582 28.779 28.9665 28.7264 28.9665 28.6722V24.9975C28.9668 24.8667 28.9544 24.7371 28.9292 24.6086C28.904 24.4804 28.8661 24.3556 28.8161 24.235C28.7661 24.114 28.7044 23.9994 28.6315 23.8908C28.5585 23.7821 28.4758 23.6814 28.3826 23.5893C28.2875 23.495 28.1837 23.4108 28.0721 23.3368C27.96 23.2628 27.842 23.2008 27.7175 23.15C27.5935 23.0997 27.4653 23.0617 27.3337 23.0365C27.2017 23.011 27.069 22.9989 26.9348 23.0001H26.7882C26.6637 23.0004 26.5397 23.0072 26.416 23.0196C26.2923 23.0324 26.1693 23.0508 26.0475 23.0756C25.9257 23.1 25.805 23.1309 25.6862 23.1673C25.5674 23.2038 25.4505 23.2459 25.3358 23.294C25.2212 23.3417 25.1088 23.3951 24.9994 23.4541C24.89 23.5131 24.7836 23.5773 24.6802 23.6465C24.5772 23.716 24.4775 23.79 24.3817 23.8693C24.2858 23.9486 24.1941 24.0321 24.1061 24.1204C24.0185 24.2083 23.9354 24.3008 23.8568 24.397C23.7779 24.4932 23.7042 24.5932 23.6354 24.6965C23.5666 24.8002 23.503 24.907 23.4444 25.0167C23.3861 25.1264 23.3335 25.2388 23.2861 25.3538C23.2387 25.4688 23.197 25.5857 23.1613 25.7048C23.1256 25.8239 23.0955 25.9442 23.0714 26.0663C23.0474 26.1885 23.0293 26.311 23.0177 26.435C23.0057 26.5587 22.9996 26.6827 23 26.8071C23 26.9281 23.0038 27.0502 23.0075 27.1724C23.0147 27.3637 23.0267 27.5546 23.0429 27.7455C23.0594 27.9364 23.0801 28.1266 23.1053 28.3163C23.1305 28.5061 23.1598 28.6952 23.194 28.8838C23.2282 29.0721 23.2666 29.2596 23.3091 29.4464C23.3519 29.6328 23.3993 29.8185 23.4504 30.003C23.5019 30.1875 23.5579 30.3705 23.6177 30.5524C23.6779 30.7343 23.7422 30.9144 23.8106 31.0932C23.879 31.2721 23.9516 31.4491 24.0283 31.6246C24.105 31.8001 24.1854 31.9738 24.2704 32.1455C24.3553 32.3173 24.4441 32.4868 24.5366 32.6544C24.6294 32.822 24.726 32.987 24.8264 33.1501C24.9268 33.3132 25.0309 33.4736 25.1392 33.6319C25.2471 33.7901 25.3588 33.9457 25.4738 34.0986C25.5889 34.2516 25.7077 34.4019 25.8298 34.5492C25.952 34.6965 26.078 34.8412 26.2069 34.9825C26.3359 35.1242 26.4678 35.2625 26.6036 35.3982C26.7389 35.5335 26.8773 35.6658 27.019 35.7947C27.1607 35.9236 27.3051 36.0491 27.4529 36.1712C27.6002 36.2934 27.7506 36.4121 27.9036 36.5271C28.0566 36.6421 28.2123 36.7538 28.3702 36.8616C28.5285 36.9695 28.6894 37.074 28.8525 37.1743C29.0153 37.2746 29.1807 37.3712 29.3484 37.4637C29.5161 37.5565 29.6857 37.6452 29.8575 37.7301C30.0293 37.8147 30.203 37.8955 30.3785 37.9721C30.5537 38.0488 30.7312 38.1213 30.9102 38.1897C31.0891 38.2581 31.2692 38.322 31.4512 38.3822C31.6331 38.4423 31.8166 38.4979 32.0008 38.5494C32.1854 38.6005 32.3711 38.6479 32.5576 38.6903C32.7444 38.7332 32.932 38.7715 33.1204 38.8057C33.3091 38.8395 33.4982 38.8692 33.6881 38.8944C33.878 38.9196 34.0682 38.9402 34.2592 38.9564C34.4502 38.9729 34.6411 38.9846 34.8325 38.9921C34.9532 38.9962 35.0727 38.9989 35.1927 39H35.2216C35.3453 38.9996 35.469 38.9929 35.5923 38.9801C35.7153 38.9677 35.8378 38.9489 35.9593 38.9245C36.0807 38.8997 36.2002 38.8692 36.3187 38.8331C36.4371 38.7967 36.5536 38.7546 36.6679 38.7069C36.7822 38.6591 36.8939 38.6058 37.0029 38.5471C37.1119 38.4885 37.218 38.4246 37.321 38.3559C37.4236 38.2867 37.5229 38.2127 37.6184 38.1341C37.7142 38.0552 37.8056 37.9721 37.8932 37.8842C37.9804 37.7966 38.0635 37.7049 38.1417 37.6091C38.2203 37.5133 38.2939 37.4137 38.3627 37.3107C38.4312 37.2077 38.4947 37.1018 38.553 36.9924C38.6116 36.883 38.6643 36.7714 38.7116 36.6568C38.759 36.5425 38.8007 36.426 38.8368 36.3077C38.8725 36.1893 38.9026 36.069 38.9271 35.9476C38.9511 35.8262 38.9692 35.7041 38.9816 35.5808C38.9936 35.4576 39 35.3339 39 35.2103V35.0359C39.0004 34.9044 38.9876 34.7743 38.962 34.6454C38.9365 34.5165 38.8989 34.3918 38.8485 34.2704C38.7981 34.149 38.7361 34.034 38.6628 33.9246C38.5898 33.8156 38.5064 33.7149 38.4131 33.6225ZM37.933 35.0359V35.2095C37.9334 35.3899 37.9157 35.5681 37.8804 35.7451C37.8451 35.9217 37.7924 36.0931 37.7229 36.2592C37.6533 36.4257 37.568 36.5831 37.4668 36.7323C37.3661 36.8815 37.251 37.0195 37.1225 37.1457C36.998 37.2705 36.8623 37.3821 36.7157 37.4802C36.5687 37.5787 36.4138 37.6613 36.251 37.729C36.0878 37.7966 35.9198 37.8474 35.7465 37.882C35.5735 37.9162 35.3987 37.9334 35.222 37.9334H35.2017C35.0919 37.9334 34.9814 37.9301 34.8705 37.9259C34.6957 37.9192 34.5212 37.9083 34.3471 37.8936C34.1727 37.8786 33.999 37.8598 33.8257 37.8365C33.6524 37.8136 33.4794 37.7865 33.3076 37.7557C33.1354 37.7245 32.964 37.6895 32.7937 37.6504C32.6234 37.6114 32.4538 37.5685 32.2854 37.5215C32.117 37.4746 31.9497 37.4238 31.7835 37.369C31.6173 37.3141 31.4527 37.2555 31.2895 37.1931C31.1259 37.1307 30.9643 37.0646 30.8041 36.9943C30.644 36.9244 30.4853 36.8507 30.3285 36.7733C30.1718 36.6959 30.0169 36.6151 29.8639 36.5305C29.7108 36.4456 29.5597 36.3576 29.4108 36.2659C29.262 36.1743 29.1153 36.0792 28.971 35.9807C28.8266 35.8822 28.6845 35.7804 28.5446 35.6752C28.4048 35.5699 28.2679 35.4617 28.133 35.3501C27.9984 35.2385 27.8664 35.1238 27.7371 35.0062C27.6081 34.8886 27.4814 34.768 27.3577 34.6443C27.234 34.5207 27.1134 34.3944 26.9957 34.2651C26.878 34.1358 26.7633 34.0039 26.6517 33.8694C26.54 33.7348 26.4318 33.5977 26.3265 33.4579C26.2212 33.3184 26.1193 33.1764 26.0208 33.0317C25.9223 32.8874 25.8272 32.7408 25.7355 32.592C25.6437 32.4432 25.5558 32.2921 25.4712 32.1391C25.3862 31.9862 25.3054 31.8313 25.2279 31.6746C25.1505 31.5179 25.0768 31.3597 25.0069 31.1992C24.9366 31.0391 24.8704 30.8775 24.808 30.714C24.7456 30.5509 24.6869 30.3863 24.632 30.2202C24.5775 30.0541 24.5264 29.8872 24.4794 29.7185C24.4324 29.5501 24.3896 29.381 24.3505 29.2104C24.3114 29.0402 24.2764 28.8688 24.2452 28.697C24.2144 28.5249 24.1873 28.352 24.1644 28.1788C24.1414 28.0055 24.1222 27.8319 24.1076 27.6579C24.0925 27.4835 24.0816 27.3092 24.0749 27.1344C24.0711 27.0224 24.0685 26.9112 24.0681 26.7996C24.0666 26.6214 24.0828 26.4448 24.1166 26.27C24.1501 26.0953 24.2008 25.9254 24.2685 25.7604C24.3358 25.5954 24.4193 25.4391 24.5178 25.2907C24.6166 25.1426 24.729 25.0054 24.855 24.8795C24.9813 24.751 25.1189 24.6364 25.2682 24.5353C25.417 24.4342 25.5746 24.3489 25.7407 24.279C25.9069 24.2091 26.078 24.1565 26.2547 24.1208C26.431 24.085 26.6096 24.067 26.7897 24.0666H26.9359C27.0652 24.0651 27.1904 24.0888 27.3104 24.1369C27.4307 24.1854 27.5371 24.2549 27.6296 24.3459C27.7164 24.4319 27.7829 24.5319 27.8299 24.645C27.8766 24.7581 27.8999 24.8761 27.8995 24.9987V28.3051L27.7153 28.375C27.6085 28.4156 27.5066 28.4667 27.4104 28.5283C27.3137 28.5896 27.2246 28.6602 27.1423 28.7399C27.0604 28.8196 26.987 28.9064 26.9231 29.0011C26.8588 29.0958 26.8047 29.1958 26.7607 29.3014C26.7179 29.4028 26.6859 29.5077 26.6648 29.6159C26.6438 29.7238 26.634 29.8331 26.6355 29.9432C26.637 30.0534 26.6498 30.1623 26.6739 30.2698C26.6979 30.3773 26.7329 30.481 26.7784 30.5814C27.0096 31.0917 27.2848 31.5773 27.604 32.038C27.9228 32.4988 28.2807 32.9272 28.677 33.3237C29.0732 33.7198 29.5018 34.0772 29.9627 34.3963C30.4237 34.715 30.9094 34.9901 31.4203 35.2212C31.5203 35.267 31.6245 35.302 31.732 35.326C31.8395 35.3501 31.9482 35.3632 32.0583 35.3647C32.1689 35.3662 32.2779 35.3565 32.3862 35.3354C32.4941 35.3144 32.5989 35.2824 32.7005 35.2396C32.8061 35.1956 32.9065 35.1415 33.0008 35.0772C33.0956 35.013 33.1828 34.9401 33.2625 34.8578C33.3418 34.7758 33.4125 34.6868 33.4742 34.5902C33.5355 34.494 33.5866 34.3921 33.6272 34.2854L33.6971 34.1013H36.9984C37.0597 34.1013 37.1206 34.1073 37.1807 34.1189C37.2409 34.1309 37.2995 34.1486 37.3563 34.1719C37.4127 34.1952 37.4668 34.2241 37.518 34.258C37.5691 34.2922 37.6161 34.3309 37.6597 34.3741C37.7029 34.4177 37.7417 34.4647 37.7759 34.5158C37.8101 34.5669 37.8387 34.6206 37.8623 34.6774C37.8857 34.7341 37.9033 34.7928 37.9154 34.8529C37.927 34.913 37.933 34.9739 37.933 35.0352V35.0359Z" stroke="white" stroke-width="0.6" mask="url(#path-4-outside-1_291_1080)"/>
<defs>
<filter id="filter0_d_291_1080" x="0" y="0" width="64" height="64" filterUnits="userSpaceOnUse" color-interpolation-filters="sRGB">
<feFlood flood-opacity="0" result="BackgroundImageFix"/>
<feColorMatrix in="SourceAlpha" type="matrix" values="0 0 0 0 0 0 0 0 0 0 0 0 0 0 0 0 0 0 127 0" result="hardAlpha"/>
<feOffset dx="4" dy="4"/>
<feComposite in2="hardAlpha" operator="out"/>
<feColorMatrix type="matrix" values="0 0 0 0 0 0 0 0 0 0 0 0 0 0 0 0 0 0 0.25 0"/>
<feBlend mode="normal" in2="BackgroundImageFix" result="effect1_dropShadow_291_1080"/>
<feBlend mode="normal" in="SourceGraphic" in2="effect1_dropShadow_291_1080" result="shape"/>
</filter>
</defs>
</svg>
