<svg width="19" height="16" viewBox="0 0 19 16" fill="none" xmlns="http://www.w3.org/2000/svg">
<path d="M17.4288 11.6193V6.00775L9.83075 10.1328C9.55642 10.2866 9.26858 10.3635 8.96725 10.3635C8.66592 10.3635 8.37808 10.2866 8.10375 10.1328L0.4615 5.9655C0.2975 5.87183 0.179583 5.758 0.10775 5.624C0.0359168 5.49017 0 5.34117 0 5.177C0 5.01283 0.0359168 4.86383 0.10775 4.73C0.179583 4.596 0.2975 4.48217 0.4615 4.3885L8.10375 0.231C8.24092 0.154 8.38067 0.0962499 8.523 0.0577499C8.66533 0.0192499 8.81342 0 8.96725 0C9.12108 0 9.26917 0.0192499 9.4115 0.0577499C9.55383 0.0962499 9.69358 0.154 9.83075 0.231L18.4517 4.92125C18.6056 4.99808 18.7236 5.10933 18.8057 5.255C18.8878 5.4005 18.9288 5.55525 18.9288 5.71925V11.6193C18.9288 11.8321 18.8569 12.0103 18.7133 12.1538C18.5698 12.2974 18.3916 12.3693 18.1788 12.3693C17.9659 12.3693 17.7878 12.2974 17.6443 12.1538C17.5006 12.0103 17.4288 11.8321 17.4288 11.6193ZM8.10375 15.5463L3.4115 13.0095C3.11667 12.8455 2.88558 12.6212 2.71825 12.3365C2.55092 12.052 2.46725 11.7424 2.46725 11.4078V7.954L8.10375 11.0078C8.37808 11.1616 8.66592 11.2385 8.96725 11.2385C9.26858 11.2385 9.55642 11.1616 9.83075 11.0078L15.4672 7.954V11.4078C15.4672 11.7424 15.3836 12.052 15.2163 12.3365C15.0489 12.6212 14.8178 12.8455 14.523 13.0095L9.83075 15.5463C9.69358 15.6231 9.55383 15.6808 9.4115 15.7193C9.26917 15.7578 9.12108 15.777 8.96725 15.777C8.81342 15.777 8.66533 15.7578 8.523 15.7193C8.38067 15.6808 8.24092 15.6231 8.10375 15.5463Z" fill="#2563EB"/>
</svg>
