<svg width="52" height="52" viewBox="0 0 52 52" fill="none" xmlns="http://www.w3.org/2000/svg">
<g filter="url(#filter0_di_291_468)">
<rect x="3.45868" y="2.76685" width="40" height="40" rx="12" fill="#34D399" shape-rendering="crispEdges"/>
<path d="M17.0485 29.8502C16.6275 29.8502 16.2712 29.7043 15.9795 29.4127C15.6879 29.121 15.542 28.7647 15.542 28.3437V19.69C15.542 19.269 15.6879 18.9127 15.9795 18.621C16.2712 18.3293 16.6275 18.1835 17.0485 18.1835H20.542V16.7733C20.542 16.3523 20.6879 15.996 20.9795 15.7043C21.2712 15.4127 21.6275 15.2668 22.0485 15.2668H24.8689C25.2899 15.2668 25.6462 15.4127 25.9379 15.7043C26.2295 15.996 26.3754 16.3523 26.3754 16.7733V18.1835H29.8689C30.2899 18.1835 30.6462 18.3293 30.9379 18.621C31.2295 18.9127 31.3754 19.269 31.3754 19.69V28.3437C31.3754 28.7647 31.2295 29.121 30.9379 29.4127C30.6462 29.7043 30.2899 29.8502 29.8689 29.8502H17.0485ZM21.792 18.1835H25.1254V16.7733C25.1254 16.7091 25.0986 16.6504 25.0451 16.5971C24.9918 16.5436 24.9331 16.5168 24.8689 16.5168H22.0485C21.9843 16.5168 21.9256 16.5436 21.8722 16.5971C21.8188 16.6504 21.792 16.7091 21.792 16.7733V18.1835ZM30.1254 25.0585H25.542V26.5168H21.3754V25.0585H16.792V28.3437C16.792 28.4079 16.8188 28.4666 16.8722 28.52C16.9256 28.5734 16.9843 28.6002 17.0485 28.6002H29.8689C29.9331 28.6002 29.9918 28.5734 30.0451 28.52C30.0986 28.4666 30.1254 28.4079 30.1254 28.3437V25.0585ZM22.6254 25.2668H24.292V23.6002H22.6254V25.2668ZM16.792 23.8085H21.3754V22.3502H25.542V23.8085H30.1254V19.69C30.1254 19.6258 30.0986 19.5671 30.0451 19.5137C29.9918 19.4602 29.9331 19.4335 29.8689 19.4335H17.0485C16.9843 19.4335 16.9256 19.4602 16.8722 19.5137C16.8188 19.5671 16.792 19.6258 16.792 19.69V23.8085Z" fill="white"/>
</g>
<defs>
<filter id="filter0_di_291_468" x="-2.86102e-06" y="-9.98974e-05" width="51.0678" height="51.0678" filterUnits="userSpaceOnUse" color-interpolation-filters="sRGB">
<feFlood flood-opacity="0" result="BackgroundImageFix"/>
<feColorMatrix in="SourceAlpha" type="matrix" values="0 0 0 0 0 0 0 0 0 0 0 0 0 0 0 0 0 0 127 0" result="hardAlpha"/>
<feOffset dx="2.07521" dy="2.76695"/>
<feGaussianBlur stdDeviation="2.76695"/>
<feComposite in2="hardAlpha" operator="out"/>
<feColorMatrix type="matrix" values="0 0 0 0 0.207843 0 0 0 0 0.737255 0 0 0 0 0.541176 0 0 0 0.35 0"/>
<feBlend mode="normal" in2="BackgroundImageFix" result="effect1_dropShadow_291_468"/>
<feBlend mode="normal" in="SourceGraphic" in2="effect1_dropShadow_291_468" result="shape"/>
<feColorMatrix in="SourceAlpha" type="matrix" values="0 0 0 0 0 0 0 0 0 0 0 0 0 0 0 0 0 0 127 0" result="hardAlpha"/>
<feOffset dx="-0.691736" dy="-0.691736"/>
<feGaussianBlur stdDeviation="2.76695"/>
<feComposite in2="hardAlpha" operator="arithmetic" k2="-1" k3="1"/>
<feColorMatrix type="matrix" values="0 0 0 0 0.216667 0 0 0 0 0.216667 0 0 0 0 0.216667 0 0 0 0.51 0"/>
<feBlend mode="normal" in2="shape" result="effect2_innerShadow_291_468"/>
</filter>
</defs>
</svg>
