<svg width="34" height="31" viewBox="0 0 34 31" fill="none" xmlns="http://www.w3.org/2000/svg">
<mask id="mask0_291_571" style="mask-type:luminance" maskUnits="userSpaceOnUse" x="0" y="6" width="35" height="12">
<path d="M0.000366211 6.82959H34.0004V17.5963H0.000366211V6.82959Z" fill="white"/>
</mask>
<g mask="url(#mask0_291_571)">
<path d="M16.9324 6.935C11.8329 6.935 6.7333 6.935 1.62843 6.935C0.218844 6.935 0.0298073 7.12935 0.0240521 8.52742C0.0187396 10.4435 0.00811467 12.3591 0.0298073 14.2751C0.0568125 16.3421 1.28843 17.5511 3.37358 17.5835C4.39978 17.5998 5.42642 17.5622 6.45262 17.5945C6.95509 17.6105 7.18707 17.5405 7.13306 16.9305C7.06311 16.1695 7.51689 15.8241 8.27835 15.8458C8.89416 15.8675 9.50996 15.8728 10.1258 15.8458C11.0174 15.8082 11.7359 15.9322 11.5845 17.0978C11.5305 17.5352 11.8058 17.5892 12.1569 17.5892C15.3767 17.5835 18.5908 17.5782 21.8106 17.5892C22.194 17.5892 22.3724 17.5024 22.3343 17.0708C22.248 16.1154 22.7664 15.8024 23.6527 15.8458C24.3708 15.8782 25.0893 15.8458 25.8078 15.8511C26.4617 15.8565 26.8721 16.1318 26.7858 16.8495C26.7154 17.4378 26.9425 17.6162 27.526 17.5945C28.5845 17.5511 29.6488 17.6052 30.7077 17.5782C32.6685 17.5241 33.9594 16.2075 33.9758 14.2539C33.9922 12.3701 33.9811 10.4917 33.9811 8.60844C33.9811 7.19974 33.7164 6.92969 32.328 6.92969C27.2015 6.92969 22.0643 6.92969 16.9324 6.935Z" fill="white"/>
</g>
<mask id="mask1_291_571" style="mask-type:luminance" maskUnits="userSpaceOnUse" x="0" y="19" width="34" height="12">
<path d="M0.888794 19.4097H33.0755V30.515H0.888794V19.4097Z" fill="white"/>
</mask>
<g mask="url(#mask1_291_571)">
<path d="M13.0005 30.4983C9.40841 30.4983 5.81052 30.493 2.21794 30.5041C1.54812 30.5041 0.921692 30.412 0.916379 29.5704C0.894687 26.3537 0.905312 23.1423 0.905312 19.9256C0.905312 19.6126 0.948697 19.3589 1.35378 19.4939C3.15825 20.0876 5.0163 19.7693 6.8531 19.8339C7.33388 19.8503 7.62562 19.8662 7.78234 20.4599C7.96607 21.1669 8.56549 21.5556 9.33802 21.5609C10.0889 21.5662 10.7264 21.2856 10.953 20.5515C11.1478 19.9256 11.4989 19.8286 12.0713 19.8339C15.3558 19.8556 18.6455 19.8503 21.93 19.8392C22.4595 19.8392 22.8645 19.8122 23.0266 20.5356C23.178 21.205 23.7991 21.5503 24.5229 21.5609C25.2684 21.572 25.9223 21.3236 26.1543 20.5786C26.3597 19.9096 26.7484 19.8286 27.3589 19.8339C28.996 19.8392 30.6597 20.0336 32.2641 19.6179C32.9122 19.4505 33.0743 19.4722 33.0636 20.1845C33.0256 23.1587 33.0583 26.1376 33.0473 29.1113C33.042 30.3474 32.8635 30.5094 31.589 30.5094C26.7272 30.5147 21.8653 30.5094 17.0035 30.5094C15.6692 30.4983 14.3349 30.4983 13.0005 30.4983Z" fill="white"/>
</g>
<mask id="mask2_291_571" style="mask-type:luminance" maskUnits="userSpaceOnUse" x="10" y="0" width="14" height="6">
<path d="M10.0692 0H23.7825V5.12966H10.0692V0Z" fill="white"/>
</mask>
<g mask="url(#mask2_291_571)">
<path d="M23.7117 1.0254C23.6524 0.113421 22.9122 0.0217803 22.2043 0.0164677C20.4596 8.74707e-05 18.7202 0.0107124 16.9755 0.0107124V0.0164677C15.3007 0.0164677 13.626 0.0164677 11.9516 0.0164677C10.5686 0.0217803 10.1635 0.410478 10.1582 1.74879V3.75116C10.1525 3.83217 10.1525 3.9185 10.1472 3.99951C10.1418 4.10709 10.1472 4.20449 10.1582 4.2855V5.05183H12.5944V3.00076H21.2861V5.05183H23.7224V4.40946C23.7387 4.35014 23.7494 4.28019 23.7441 4.19342C23.7277 3.1411 23.7817 2.07816 23.7117 1.0254Z" fill="white"/>
</g>
</svg>
