<svg width="12" height="12" viewBox="0 0 12 12" fill="none" xmlns="http://www.w3.org/2000/svg">
<path fill-rule="evenodd" clip-rule="evenodd" d="M5.99995 10.8C8.64914 10.8 10.8 8.64914 10.8 5.99995C10.8 3.35076 8.64914 1.19995 5.99995 1.19995C3.35076 1.19995 1.19995 3.35076 1.19995 5.99995C1.19995 8.64914 3.35076 10.8 5.99995 10.8ZM8.22415 5.22415C8.45153 4.98872 8.44828 4.6145 8.21684 4.38306C7.9854 4.15162 7.61118 4.14837 7.37575 4.37575L5.39995 6.35155L4.62415 5.57575C4.38872 5.34837 4.0145 5.35162 3.78306 5.58306C3.55162 5.8145 3.54837 6.18872 3.77575 6.42415L4.97575 7.62415C5.21005 7.85838 5.58985 7.85838 5.82415 7.62415L8.22415 5.22415Z" fill="#047857"/>
</svg>
