<svg width="16" height="16" viewBox="0 0 16 16" fill="none" xmlns="http://www.w3.org/2000/svg">
<path fill-rule="evenodd" clip-rule="evenodd" d="M8 16C12.4153 16 16 12.4153 16 8C16 3.58468 12.4153 0 8 0C3.58468 0 0 3.58468 0 8C0 12.4153 3.58468 16 8 16ZM11.707 6.707C12.086 6.31462 12.0806 5.69092 11.6948 5.30518C11.3091 4.91945 10.6854 4.91403 10.293 5.293L7 8.586L5.707 7.293C5.31462 6.91403 4.69092 6.91945 4.30518 7.30518C3.91945 7.69092 3.91403 8.31462 4.293 8.707L6.293 10.707C6.6835 11.0974 7.3165 11.0974 7.707 10.707L11.707 6.707Z" fill="#6557E3"/>
</svg>
