<svg width="17" height="17" viewBox="0 0 17 17" fill="none" xmlns="http://www.w3.org/2000/svg">
<path d="M9.20835 8.21699V5.66699C9.20835 5.4663 9.14047 5.29807 9.00471 5.1623C8.86894 5.02654 8.70071 4.95866 8.50002 4.95866C8.29933 4.95866 8.1311 5.02654 7.99533 5.1623C7.85957 5.29807 7.79169 5.4663 7.79169 5.66699V8.48262C7.79169 8.57706 7.8094 8.66855 7.84481 8.7571C7.88023 8.84564 7.93335 8.92533 8.00419 8.99616L10.3417 11.3337C10.4715 11.4635 10.6368 11.5285 10.8375 11.5285C11.0382 11.5285 11.2035 11.4635 11.3334 11.3337C11.4632 11.2038 11.5281 11.0385 11.5281 10.8378C11.5281 10.6371 11.4632 10.4719 11.3334 10.342L9.20835 8.21699ZM8.50002 15.5837C7.52016 15.5837 6.59933 15.3977 5.73752 15.0258C4.87571 14.654 4.12606 14.1493 3.48856 13.5118C2.85106 12.8743 2.34637 12.1246 1.9745 11.2628C1.60262 10.401 1.41669 9.48019 1.41669 8.50033C1.41669 7.52046 1.60262 6.59963 1.9745 5.73783C2.34637 4.87602 2.85106 4.12637 3.48856 3.48887C4.12606 2.85137 4.87571 2.34668 5.73752 1.9748C6.59933 1.60293 7.52016 1.41699 8.50002 1.41699C9.47988 1.41699 10.4007 1.60293 11.2625 1.9748C12.1243 2.34668 12.874 2.85137 13.5115 3.48887C14.149 4.12637 14.6537 4.87602 15.0255 5.73783C15.3974 6.59963 15.5834 7.52046 15.5834 8.50033C15.5834 9.48019 15.3974 10.401 15.0255 11.2628C14.6537 12.1246 14.149 12.8743 13.5115 13.5118C12.874 14.1493 12.1243 14.654 11.2625 15.0258C10.4007 15.3977 9.47988 15.5837 8.50002 15.5837Z" fill="white"/>
</svg>
