<svg width="64" height="64" viewBox="0 0 64 64" fill="none" xmlns="http://www.w3.org/2000/svg">
<g filter="url(#filter0_d_291_1064)">
<rect width="60" height="60" rx="15" fill="#1CCAE2"/>
<rect x="0.5" y="0.5" width="59" height="59" rx="14.5" stroke="white"/>
</g>
<path d="M19.0172 28.4694C17.4856 30.4012 16.4849 32.9758 16.0429 36.122C15.9984 36.4366 15.9886 36.7517 16.0131 37.0685C16.0375 37.3846 16.0955 37.6949 16.1871 37.9986C16.2788 38.3023 16.4019 38.593 16.5565 38.8702C16.7111 39.1473 16.8933 39.4049 17.1037 39.6425C17.3153 39.8806 17.549 40.0943 17.8055 40.2825C18.0621 40.4712 18.3354 40.6307 18.6261 40.7608C18.9168 40.8915 19.2173 40.9897 19.5292 41.0564C19.8405 41.1226 20.155 41.1557 20.4734 41.1551H27.8695C27.9373 41.1562 28.0046 41.1502 28.0713 41.1378C28.1375 41.1253 28.2025 41.1068 28.2655 41.0814C28.3278 41.0564 28.3875 41.025 28.4444 40.9881C28.5008 40.9507 28.5535 40.9083 28.6017 40.8606C28.65 40.8134 28.6928 40.7614 28.7308 40.7055C28.7688 40.6491 28.8008 40.59 28.8268 40.5276C28.8528 40.4652 28.8724 40.4007 28.8859 40.3345C28.8989 40.2678 28.906 40.2011 28.906 40.1333C28.906 40.0655 28.8989 39.9988 28.8859 39.9321C28.8724 39.8659 28.8528 39.8014 28.8268 39.739C28.8008 39.6767 28.7688 39.6175 28.7308 39.5611C28.6928 39.5053 28.65 39.4532 28.6017 39.406C28.5535 39.3583 28.5008 39.316 28.4444 39.2786C28.3875 39.2417 28.3278 39.2102 28.2655 39.1853C28.2025 39.1598 28.1375 39.1413 28.0713 39.1289C28.0046 39.1164 27.9373 39.1104 27.8695 39.1115H20.4734C20.3883 39.1121 20.3031 39.1083 20.2185 39.0996C20.1333 39.0909 20.0493 39.0779 19.9663 39.06C19.8828 39.0426 19.8003 39.0204 19.7195 38.9944C19.6382 38.9678 19.559 38.9369 19.4814 38.9022C19.4033 38.8675 19.3279 38.8284 19.2542 38.7856C19.1804 38.7422 19.1094 38.6955 19.041 38.6445C18.9727 38.5941 18.9071 38.5399 18.8442 38.4824C18.7812 38.4249 18.7221 38.3636 18.6657 38.2996C18.6093 38.2356 18.5567 38.1689 18.5079 38.0995C18.4585 38.0295 18.4135 37.9574 18.3723 37.8831C18.3305 37.8082 18.2937 37.7318 18.2606 37.6531C18.2275 37.575 18.1982 37.4947 18.1738 37.4134C18.1494 37.3315 18.1293 37.2491 18.1136 37.165C18.0979 37.0815 18.0865 36.9969 18.08 36.9123C18.0735 36.8271 18.0713 36.742 18.0735 36.6568C18.0762 36.5716 18.0832 36.487 18.0946 36.4024C18.8366 31.1226 21.2669 27.8115 25.1236 26.8282C25.225 26.8032 25.3205 26.7636 25.4099 26.7094C25.4994 26.6552 25.5786 26.5885 25.648 26.5093C25.7169 26.4306 25.7722 26.3433 25.814 26.2473C25.8558 26.1513 25.8823 26.0515 25.8937 25.9474C25.9046 25.8433 25.8997 25.7397 25.8791 25.6372C25.8579 25.5341 25.8221 25.437 25.7712 25.3459C25.7202 25.2543 25.6567 25.1724 25.5808 25.1002C25.5049 25.0286 25.4197 24.9695 25.3253 24.924C23.5155 24.0361 22.3912 22.2474 22.3912 20.2553C22.3901 19.9023 22.4254 19.5525 22.4969 19.2059C22.5685 18.8599 22.6743 18.5247 22.8148 18.2004C22.9558 17.876 23.1277 17.5696 23.3322 17.2811C23.5361 16.9925 23.7671 16.7278 24.0258 16.487C24.2856 16.2419 24.5671 16.025 24.8708 15.8373C25.174 15.6491 25.4935 15.4934 25.8286 15.3698C26.1638 15.2467 26.5077 15.1577 26.8608 15.104C27.2138 15.0503 27.5685 15.033 27.9249 15.0509C30.66 15.1751 32.869 17.3879 32.9541 20.0888C32.9607 20.3383 32.9498 20.5867 32.9211 20.834C32.8918 21.0819 32.8457 21.3265 32.7817 21.5673C32.7177 21.8087 32.6369 22.044 32.5392 22.2735C32.4422 22.5029 32.3283 22.7242 32.1992 22.9373C32.0701 23.1505 31.9258 23.3538 31.7675 23.5464C31.6091 23.7389 31.4383 23.9195 31.2539 24.0877C31.0695 24.2558 30.8742 24.4098 30.6681 24.5497C30.462 24.6902 30.2467 24.815 30.0227 24.9245C29.9283 24.9701 29.8432 25.0286 29.7673 25.1008C29.6908 25.1729 29.6273 25.2543 29.5769 25.3459C29.5259 25.4376 29.4901 25.5347 29.469 25.6372C29.4483 25.7397 29.4435 25.8433 29.4543 25.9474C29.4652 26.0515 29.4917 26.1513 29.534 26.2473C29.5758 26.3433 29.6311 26.4306 29.7 26.5098C29.7689 26.5885 29.8481 26.6552 29.9376 26.7094C30.027 26.7642 30.123 26.8038 30.2245 26.8282C30.6529 26.9345 31.07 27.0739 31.4757 27.2474C31.8808 27.421 32.2702 27.626 32.6423 27.8625C33.0149 28.0989 33.3658 28.3641 33.695 28.6576C34.0242 28.9515 34.3279 29.2693 34.6056 29.6121C34.6485 29.6647 34.6967 29.7119 34.7488 29.7553C34.8014 29.7981 34.8578 29.8356 34.9175 29.8676C34.9771 29.8996 35.0395 29.9256 35.1046 29.9457C35.1691 29.9657 35.2353 29.9787 35.3031 29.9858C35.3704 29.9928 35.4376 29.9934 35.5054 29.9874C35.5732 29.9815 35.6394 29.969 35.7044 29.9495C35.7695 29.9305 35.8324 29.9055 35.8926 29.8746C35.9528 29.8432 36.0093 29.8063 36.0624 29.764C36.115 29.7222 36.1633 29.6761 36.2067 29.6246C36.2501 29.5731 36.288 29.5183 36.3206 29.4592C36.3531 29.4 36.3797 29.3388 36.3998 29.2748C36.4204 29.2102 36.4339 29.1451 36.441 29.0779C36.448 29.0112 36.4486 28.9439 36.4426 28.8772C36.4361 28.81 36.4236 28.7443 36.4041 28.6798C36.3851 28.6158 36.3596 28.5534 36.3282 28.4943C36.2962 28.4347 36.2593 28.3793 36.2164 28.3273C35.7402 27.7399 35.2049 27.2116 34.6111 26.7436C34.0172 26.275 33.3794 25.878 32.6965 25.552C33.0767 25.2017 33.4157 24.8144 33.7129 24.3914C34.0107 23.9678 34.2596 23.5182 34.4603 23.0414C34.6609 22.5647 34.809 22.0722 34.9045 21.5635C34.9994 21.0553 35.0395 20.5423 35.0249 20.0254C34.9066 16.2641 31.8298 13.1825 28.0203 13.0094C27.5241 12.9845 27.0305 13.0089 26.5391 13.0837C26.0483 13.1586 25.5694 13.2822 25.103 13.4536C24.6371 13.6256 24.1929 13.8425 23.7704 14.1045C23.3484 14.3664 22.9563 14.668 22.5951 15.0091C22.5056 15.0932 22.4178 15.18 22.3321 15.2689C22.2464 15.3579 22.1634 15.4484 22.0826 15.5417C22.0018 15.635 21.9231 15.7299 21.8472 15.827C21.7713 15.9241 21.6975 16.0233 21.627 16.1242C21.556 16.2251 21.4876 16.3281 21.422 16.4323C21.3564 16.5369 21.2934 16.6427 21.2332 16.7506C21.173 16.858 21.1161 16.967 21.0613 17.0777C21.0071 17.1883 20.955 17.3006 20.9062 17.4139C20.8574 17.5267 20.8118 17.6412 20.769 17.7572C20.7261 17.8728 20.686 17.9894 20.6491 18.1071C20.6122 18.2248 20.5786 18.343 20.5477 18.4629C20.5168 18.5822 20.4891 18.702 20.4647 18.823C20.4398 18.9439 20.4186 19.0654 20.4002 19.1874C20.3817 19.3095 20.3666 19.4315 20.3546 19.5541C20.3422 19.6772 20.3335 19.7998 20.3275 19.9234C20.3221 20.0465 20.3194 20.1697 20.3199 20.2928C20.3205 20.4164 20.3243 20.5395 20.3313 20.6627C20.3378 20.7858 20.3481 20.9089 20.3611 21.0315C20.3747 21.154 20.391 21.2761 20.4105 21.3981C20.43 21.5196 20.4528 21.6411 20.4783 21.7615C20.5043 21.8819 20.5331 22.0017 20.5651 22.1211C20.5971 22.2404 20.6318 22.3586 20.6697 22.4758C20.7077 22.5929 20.7489 22.7095 20.7929 22.8245C20.8368 22.94 20.8834 23.0539 20.9333 23.1667C20.9832 23.2795 21.0358 23.3907 21.0917 23.5008C21.147 23.6109 21.2056 23.7194 21.2669 23.8268C21.3276 23.9336 21.3916 24.0394 21.4583 24.143C21.525 24.2471 21.5939 24.3491 21.666 24.4494C21.7376 24.5492 21.8119 24.6479 21.889 24.7444C21.966 24.8404 22.0452 24.9348 22.1271 25.0276C22.2089 25.1198 22.293 25.2098 22.3793 25.2977C22.4655 25.3861 22.5539 25.4717 22.645 25.5553C21.9361 25.8942 21.275 26.3102 20.6627 26.8027C20.0498 27.2946 19.5015 27.8505 19.0172 28.4694Z" fill="white"/>
<path d="M41.422 40.975C42.7123 39.067 43.375 37.7865 43.8935 35.245C44.188 33.8018 43.8669 32.428 42.9889 31.3769C42.0018 30.1951 40.4083 29.5481 38.5079 29.5627C37.7546 29.5676 36.915 30.1241 36.8147 31.0477C36.7566 31.5825 36.6232 32.2241 36.4941 32.8446C36.4193 33.2058 36.3417 33.5794 36.281 33.9244C36.1177 34.8524 36.5934 35.3801 36.9654 35.6963C37.1412 35.8422 37.325 35.9772 37.5165 36.102C37.3245 36.7327 36.953 37.3374 36.6259 37.8239C36.2897 38.3229 35.8921 38.8588 35.4051 39.246C35.2174 39.1164 35.0232 38.9971 34.8226 38.8886C34.3892 38.6619 33.7189 38.4157 32.907 38.8962C32.5013 39.137 32.0728 39.4228 31.659 39.6989C31.2311 39.9842 30.7891 40.2797 30.4051 40.501C29.6045 40.962 29.4077 41.9285 29.6805 42.5962C30.3872 44.3279 31.5814 45.5319 33.0426 45.9864C33.4683 46.1193 33.9038 46.1855 34.3491 46.1855C35.2516 46.1855 36.1617 45.9094 37.0012 45.3698C39.1945 43.9613 40.1377 42.8755 41.422 40.975ZM33.6657 44.0377C32.8755 43.7921 32.1921 43.1103 31.7214 42.1042C32.0831 41.8835 32.4568 41.634 32.8202 41.3916C33.1765 41.154 33.5432 40.9089 33.8762 40.7071C34.0117 40.7809 34.1717 40.8894 34.3404 41.0038C34.5096 41.1182 34.6859 41.2381 34.8719 41.3466C34.9479 41.3905 35.0276 41.4241 35.1116 41.4485C35.1957 41.4724 35.2814 41.4854 35.3693 41.4881C35.4566 41.4903 35.5428 41.4821 35.628 41.4632C35.7137 41.4442 35.795 41.4144 35.8731 41.3748C37.0099 40.7977 37.7643 39.8274 38.3517 38.9542C38.9065 38.1309 39.5606 37.0229 39.6946 35.7554C39.7038 35.6686 39.7016 35.5829 39.6886 35.4972C39.6756 35.4115 39.6517 35.3286 39.6176 35.2488C39.5834 35.1691 39.5395 35.0948 39.4863 35.0265C39.4332 34.9581 39.3719 34.8974 39.3035 34.8448C39.1327 34.7124 38.9564 34.5953 38.7867 34.4819C38.6191 34.3707 38.4602 34.265 38.3419 34.1679C38.394 33.8826 38.4575 33.5767 38.5242 33.2546C38.6381 32.7079 38.7547 32.1455 38.8306 31.6123C39.9538 31.6638 40.8552 32.0364 41.3905 32.677C41.864 33.2437 42.0321 34.0128 41.8629 34.8421C41.3889 37.1634 40.8129 38.1938 39.6989 39.8415C38.5963 41.4724 37.8592 42.3803 35.871 43.6581C35.1393 44.1272 34.3768 44.2585 33.6657 44.0377Z" fill="white"/>
<defs>
<filter id="filter0_d_291_1064" x="0" y="0" width="64" height="64" filterUnits="userSpaceOnUse" color-interpolation-filters="sRGB">
<feFlood flood-opacity="0" result="BackgroundImageFix"/>
<feColorMatrix in="SourceAlpha" type="matrix" values="0 0 0 0 0 0 0 0 0 0 0 0 0 0 0 0 0 0 127 0" result="hardAlpha"/>
<feOffset dx="4" dy="4"/>
<feComposite in2="hardAlpha" operator="out"/>
<feColorMatrix type="matrix" values="0 0 0 0 0 0 0 0 0 0 0 0 0 0 0 0 0 0 0.25 0"/>
<feBlend mode="normal" in2="BackgroundImageFix" result="effect1_dropShadow_291_1064"/>
<feBlend mode="normal" in="SourceGraphic" in2="effect1_dropShadow_291_1064" result="shape"/>
</filter>
</defs>
</svg>
