<svg width="24" height="29" viewBox="0 0 24 29" fill="none" xmlns="http://www.w3.org/2000/svg">
<path d="M9.47917 15.8229V18.0104C9.47917 18.4236 9.61892 18.77 9.89844 19.0495C10.178 19.329 10.5243 19.4688 10.9375 19.4688H12.3958C12.809 19.4688 13.1554 19.329 13.4349 19.0495C13.7144 18.77 13.8542 18.4236 13.8542 18.0104V15.8229H16.0417C16.4549 15.8229 16.8012 15.6832 17.0807 15.4036C17.3602 15.1241 17.5 14.7778 17.5 14.3646V12.9063C17.5 12.4931 17.3602 12.1467 17.0807 11.8672C16.8012 11.5877 16.4549 11.4479 16.0417 11.4479H13.8542V9.26042C13.8542 8.84722 13.7144 8.50087 13.4349 8.22135C13.1554 7.94184 12.809 7.80208 12.3958 7.80208H10.9375C10.5243 7.80208 10.178 7.94184 9.89844 8.22135C9.61892 8.50087 9.47917 8.84722 9.47917 9.26042V11.4479H7.29167C6.87847 11.4479 6.53212 11.5877 6.2526 11.8672C5.97309 12.1467 5.83333 12.4931 5.83333 12.9063V14.3646C5.83333 14.7778 5.97309 15.1241 6.2526 15.4036C6.53212 15.6832 6.87847 15.8229 7.29167 15.8229H9.47917ZM11.1927 28.7656C11.0469 28.7413 10.901 28.7049 10.7552 28.6563C7.47396 27.5625 4.86111 25.5391 2.91667 22.5859C0.972222 19.6328 0 16.4549 0 13.0521V6.16146C0 5.55382 0.176215 5.00694 0.528646 4.52083C0.881076 4.03472 1.33681 3.68229 1.89583 3.46354L10.6458 0.182292C10.9861 0.0607639 11.3264 0 11.6667 0C12.0069 0 12.3472 0.0607639 12.6875 0.182292L21.4375 3.46354C21.9965 3.68229 22.4523 4.03472 22.8047 4.52083C23.1571 5.00694 23.3333 5.55382 23.3333 6.16146V13.0521C23.3333 16.4549 22.3611 19.6328 20.4167 22.5859C18.4722 25.5391 15.8594 27.5625 12.5781 28.6563C12.4323 28.7049 12.2865 28.7413 12.1406 28.7656C11.9948 28.7899 11.8368 28.8021 11.6667 28.8021C11.4965 28.8021 11.3385 28.7899 11.1927 28.7656Z" fill="#6557E3"/>
</svg>
