<svg width="64" height="64" viewBox="0 0 64 64" fill="none" xmlns="http://www.w3.org/2000/svg">
<g filter="url(#filter0_d_291_1073)">
<rect width="60" height="60" rx="15" fill="#5751E1"/>
<rect x="0.5" y="0.5" width="59" height="59" rx="14.5" stroke="white"/>
</g>
<path d="M43.6737 27.1305C43.8715 27.276 44 27.5108 44 27.775V43.2772C44 44.0267 43.694 44.7081 43.1997 45.201C42.7065 45.6934 42.0241 46 41.2734 46H19.7271C18.2308 46 17 44.7742 17 43.2772V27.775C17 27.5108 17.1285 27.2765 17.3263 27.1305L20.239 24.6931V17.7228C20.239 16.9733 20.5461 16.2919 21.0393 15.799C21.533 15.3066 22.2155 15 22.9662 15H38.0338C38.7845 15 39.4669 15.3066 39.9607 15.799C40.4539 16.2919 40.761 16.9733 40.761 17.7228V24.6921L43.6737 27.1305ZM30.5 22.1673C31.0833 22.1673 31.6301 22.3234 32.1011 22.5966C32.1673 22.2208 32.4956 21.9355 32.8912 21.9355C33.3339 21.9355 33.6935 22.2941 33.6935 22.736V25.3785C33.6996 25.6179 33.7977 25.8335 33.952 25.9876L33.9551 25.9906C34.1149 26.1497 34.3385 26.2487 34.5879 26.2487C34.8373 26.2487 35.0619 26.1497 35.2212 25.9906L35.2243 25.9876C35.3841 25.828 35.4833 25.6047 35.4833 25.3557C35.4833 23.9789 34.9268 22.735 34.0274 21.8375L34.0244 21.8345C33.1249 20.936 31.879 20.3804 30.501 20.3804C29.1418 20.3804 27.9105 20.9213 27.0121 21.7981L26.9756 21.837C26.0747 22.7365 25.5162 23.9815 25.5162 25.3557C25.5162 26.732 26.0732 27.9765 26.9726 28.8745L26.9756 28.8775C27.8751 29.7755 29.1215 30.3311 30.5 30.3311C31.1424 30.3311 31.7545 30.2114 32.313 29.9937C32.8963 29.7664 33.4274 29.4315 33.8797 29.0154C34.205 28.7169 34.7118 28.7376 35.0108 29.0624C35.3098 29.3871 35.2885 29.8927 34.9637 30.1912C34.3658 30.7412 33.6652 31.1831 32.8958 31.4831C32.1511 31.773 31.3423 31.9331 30.5 31.9331C28.6845 31.9331 27.0384 31.1967 25.845 30.0063L25.842 30.0033C24.6492 28.8098 23.9121 27.1674 23.9121 25.3557C23.9121 23.54 24.6497 21.8951 25.842 20.7046L25.889 20.6617C27.0773 19.497 28.7052 18.7783 30.5 18.7783C32.3155 18.7783 33.9616 19.5147 35.155 20.7051L35.158 20.7082C36.3508 21.9016 37.0879 23.5441 37.0879 25.3547C37.0879 26.0406 36.8076 26.6638 36.3554 27.1164L36.3523 27.1194C35.8976 27.5719 35.2738 27.8507 34.5879 27.8507C34.0001 27.8507 33.4573 27.6452 33.0288 27.3022C32.9453 27.4103 32.8548 27.5133 32.7582 27.6098C32.18 28.1866 31.3812 28.5442 30.5 28.5442C29.6188 28.5442 28.82 28.1866 28.2423 27.6098C27.6646 27.033 27.3065 26.2355 27.3065 25.3557C27.3065 24.4759 27.6646 23.6784 28.2423 23.1011C28.82 22.5244 29.6188 22.1673 30.5 22.1673ZM31.624 24.2335C31.3367 23.9466 30.9391 23.7693 30.5 23.7693C30.0609 23.7693 29.6633 23.9466 29.376 24.2335C29.0891 24.5204 28.9111 24.9173 28.9111 25.3557C28.9111 25.7941 29.0891 26.1911 29.376 26.478C29.6633 26.7643 30.0609 26.9421 30.5 26.9421C30.9391 26.9421 31.3367 26.7643 31.624 26.478C31.9043 26.1982 32.0803 25.8138 32.0894 25.3875V25.3557H32.0889V25.3148C32.0778 24.8926 31.9023 24.5113 31.624 24.2335ZM20.239 26.779L19.0488 27.775L20.239 28.7714V26.779ZM21.8437 30.1144L28.4998 35.6862H32.5002L39.1563 30.1149V17.7228C39.1563 17.4147 39.0299 17.1339 38.8265 16.9313C38.6237 16.7283 38.3424 16.602 38.0338 16.602H22.9662C22.6576 16.602 22.3763 16.7283 22.1735 16.9313C21.9701 17.1339 21.8437 17.4147 21.8437 17.7228V30.1144ZM40.761 28.7719L41.9518 27.775L40.761 26.7785V28.7719ZM18.6046 29.4896V43.2772C18.6046 43.3434 18.6107 43.4075 18.6213 43.4702L26.965 36.4872C24.1782 34.1544 21.3914 31.822 18.6046 29.4896ZM34.035 36.4872L42.3787 43.4702C42.3898 43.408 42.3954 43.3429 42.3954 43.2772V29.4896C39.6086 31.822 36.8218 34.1544 34.035 36.4872ZM40.9947 44.398L32.5002 37.2882H28.4998L20.0053 44.398H40.9947Z" fill="white"/>
<defs>
<filter id="filter0_d_291_1073" x="0" y="0" width="64" height="64" filterUnits="userSpaceOnUse" color-interpolation-filters="sRGB">
<feFlood flood-opacity="0" result="BackgroundImageFix"/>
<feColorMatrix in="SourceAlpha" type="matrix" values="0 0 0 0 0 0 0 0 0 0 0 0 0 0 0 0 0 0 127 0" result="hardAlpha"/>
<feOffset dx="4" dy="4"/>
<feComposite in2="hardAlpha" operator="out"/>
<feColorMatrix type="matrix" values="0 0 0 0 0 0 0 0 0 0 0 0 0 0 0 0 0 0 0.25 0"/>
<feBlend mode="normal" in2="BackgroundImageFix" result="effect1_dropShadow_291_1073"/>
<feBlend mode="normal" in="SourceGraphic" in2="effect1_dropShadow_291_1073" result="shape"/>
</filter>
</defs>
</svg>
