<svg width="14" height="14" viewBox="0 0 14 14" fill="none" xmlns="http://www.w3.org/2000/svg">
<path d="M6.07515 0.946208C6.40337 0.281268 7.35156 0.281267 7.67978 0.946207L8.97343 3.567C9.10365 3.83082 9.35524 4.01375 9.64635 4.0563L12.5407 4.47936C13.2744 4.58659 13.5667 5.48834 13.0356 6.00564L10.9427 8.04419C10.7316 8.24975 10.6353 8.54603 10.6851 8.8364L11.1788 11.7153C11.3042 12.4462 10.5369 13.0036 9.88053 12.6584L7.29392 11.2981C7.03321 11.161 6.72172 11.161 6.46101 11.2981L3.8744 12.6584C3.218 13.0036 2.45071 12.4462 2.57608 11.7153L3.06984 8.8364C3.11964 8.54603 3.02331 8.24975 2.81227 8.04419L0.719302 6.00564C0.188192 5.48834 0.480576 4.58659 1.21418 4.47936L4.10858 4.0563C4.39969 4.01375 4.65128 3.83082 4.7815 3.567L6.07515 0.946208Z" stroke="#FFB800" stroke-width="0.894737" stroke-linecap="round" stroke-linejoin="round"/>
</svg>
