<svg width="27" height="30" viewBox="0 0 27 30" fill="none" xmlns="http://www.w3.org/2000/svg">
<path d="M2.91667 29.1667C2.11458 29.1667 1.42795 28.8811 0.856771 28.3099C0.28559 27.7387 0 27.0521 0 26.25V5.83333C0 5.03125 0.28559 4.34462 0.856771 3.77344C1.42795 3.20226 2.11458 2.91667 2.91667 2.91667H4.375V1.45833C4.375 1.04514 4.51476 0.698785 4.79427 0.419271C5.07378 0.139757 5.42014 0 5.83333 0C6.24653 0 6.59288 0.139757 6.8724 0.419271C7.15191 0.698785 7.29167 1.04514 7.29167 1.45833V2.91667H18.9583V1.45833C18.9583 1.04514 19.0981 0.698785 19.3776 0.419271C19.6571 0.139757 20.0035 0 20.4167 0C20.8299 0 21.1762 0.139757 21.4557 0.419271C21.7352 0.698785 21.875 1.04514 21.875 1.45833V2.91667H23.3333C24.1354 2.91667 24.822 3.20226 25.3932 3.77344C25.9644 4.34462 26.25 5.03125 26.25 5.83333V26.25C26.25 27.0521 25.9644 27.7387 25.3932 28.3099C24.822 28.8811 24.1354 29.1667 23.3333 29.1667H2.91667ZM2.91667 26.25H23.3333V11.6667H2.91667V26.25ZM13.125 17.5C12.7118 17.5 12.3655 17.3602 12.0859 17.0807C11.8064 16.8012 11.6667 16.4549 11.6667 16.0417C11.6667 15.6285 11.8064 15.2821 12.0859 15.0026C12.3655 14.7231 12.7118 14.5833 13.125 14.5833C13.5382 14.5833 13.8845 14.7231 14.1641 15.0026C14.4436 15.2821 14.5833 15.6285 14.5833 16.0417C14.5833 16.4549 14.4436 16.8012 14.1641 17.0807C13.8845 17.3602 13.5382 17.5 13.125 17.5ZM6.2526 17.0807C5.97309 16.8012 5.83333 16.4549 5.83333 16.0417C5.83333 15.6285 5.97309 15.2821 6.2526 15.0026C6.53212 14.7231 6.87847 14.5833 7.29167 14.5833C7.70486 14.5833 8.05122 14.7231 8.33073 15.0026C8.61024 15.2821 8.75 15.6285 8.75 16.0417C8.75 16.4549 8.61024 16.8012 8.33073 17.0807C8.05122 17.3602 7.70486 17.5 7.29167 17.5C6.87847 17.5 6.53212 17.3602 6.2526 17.0807ZM18.9583 17.5C18.5451 17.5 18.1988 17.3602 17.9193 17.0807C17.6398 16.8012 17.5 16.4549 17.5 16.0417C17.5 15.6285 17.6398 15.2821 17.9193 15.0026C18.1988 14.7231 18.5451 14.5833 18.9583 14.5833C19.3715 14.5833 19.7179 14.7231 19.9974 15.0026C20.2769 15.2821 20.4167 15.6285 20.4167 16.0417C20.4167 16.4549 20.2769 16.8012 19.9974 17.0807C19.7179 17.3602 19.3715 17.5 18.9583 17.5ZM13.125 23.3333C12.7118 23.3333 12.3655 23.1936 12.0859 22.9141C11.8064 22.6345 11.6667 22.2882 11.6667 21.875C11.6667 21.4618 11.8064 21.1154 12.0859 20.8359C12.3655 20.5564 12.7118 20.4167 13.125 20.4167C13.5382 20.4167 13.8845 20.5564 14.1641 20.8359C14.4436 21.1154 14.5833 21.4618 14.5833 21.875C14.5833 22.2882 14.4436 22.6345 14.1641 22.9141C13.8845 23.1936 13.5382 23.3333 13.125 23.3333ZM6.2526 22.9141C5.97309 22.6345 5.83333 22.2882 5.83333 21.875C5.83333 21.4618 5.97309 21.1154 6.2526 20.8359C6.53212 20.5564 6.87847 20.4167 7.29167 20.4167C7.70486 20.4167 8.05122 20.5564 8.33073 20.8359C8.61024 21.1154 8.75 21.4618 8.75 21.875C8.75 22.2882 8.61024 22.6345 8.33073 22.9141C8.05122 23.1936 7.70486 23.3333 7.29167 23.3333C6.87847 23.3333 6.53212 23.1936 6.2526 22.9141ZM18.9583 23.3333C18.5451 23.3333 18.1988 23.1936 17.9193 22.9141C17.6398 22.6345 17.5 22.2882 17.5 21.875C17.5 21.4618 17.6398 21.1154 17.9193 20.8359C18.1988 20.5564 18.5451 20.4167 18.9583 20.4167C19.3715 20.4167 19.7179 20.5564 19.9974 20.8359C20.2769 21.1154 20.4167 21.4618 20.4167 21.875C20.4167 22.2882 20.2769 22.6345 19.9974 22.9141C19.7179 23.1936 19.3715 23.3333 18.9583 23.3333Z" fill="#6557E3"/>
</svg>
