<svg width="19" height="19" viewBox="0 0 19 19" fill="none" xmlns="http://www.w3.org/2000/svg">
<path d="M9.50175 19C8.18775 19 6.95267 18.7507 5.7965 18.252C4.64033 17.7533 3.63467 17.0766 2.7795 16.2218C1.92433 15.3669 1.24725 14.3617 0.74825 13.206C0.249417 12.0503 0 10.8156 0 9.50175C0 8.18775 0.249333 6.95267 0.748 5.7965C1.24667 4.64033 1.92342 3.63467 2.77825 2.7795C3.63308 1.92433 4.63833 1.24725 5.794 0.74825C6.94967 0.249417 8.18442 0 9.49825 0C10.8123 0 12.0473 0.249333 13.2035 0.748C14.3597 1.24667 15.3653 1.92342 16.2205 2.77825C17.0757 3.63308 17.7528 4.63833 18.2518 5.794C18.7506 6.94967 19 8.18442 19 9.49825C19 10.8123 18.7507 12.0473 18.252 13.2035C17.7533 14.3597 17.0766 15.3653 16.2218 16.2205C15.3669 17.0757 14.3617 17.7528 13.206 18.2518C12.0503 18.7506 10.8156 19 9.50175 19ZM9.5 17.5C11.7333 17.5 13.625 16.725 15.175 15.175C16.725 13.625 17.5 11.7333 17.5 9.5C17.5 9.38333 17.4974 9.26408 17.4923 9.14225C17.4871 9.02042 17.4813 8.9115 17.475 8.8155C17.4108 9.2795 17.2098 9.66342 16.872 9.96725C16.5343 10.2711 16.1283 10.423 15.6538 10.423H13.3845C12.8768 10.423 12.4422 10.2424 12.0807 9.88125C11.7192 9.51992 11.5385 9.08558 11.5385 8.57825V7.65575H7.84625V5.811C7.84625 5.30367 8.027 4.86858 8.3885 4.50575C8.75 4.14292 9.18458 3.9615 9.69225 3.9615H10.6155V3.577C10.6155 3.14233 10.7469 2.78233 11.0098 2.497C11.2724 2.21183 11.5891 2.01283 11.9598 1.9C11.5686 1.77183 11.1698 1.67308 10.7635 1.60375C10.3572 1.53458 9.936 1.5 9.5 1.5C7.26667 1.5 5.375 2.275 3.825 3.825C2.275 5.375 1.5 7.26667 1.5 9.5V9.64425C1.5 9.68908 1.50317 9.73717 1.5095 9.7885H6.25C7.273 9.7885 8.14417 10.1481 8.8635 10.8673C9.58267 11.5866 9.94225 12.4563 9.94225 13.4765V14.4038H7.173V17.1443C7.54483 17.2596 7.92367 17.3477 8.3095 17.4088C8.6955 17.4696 9.09233 17.5 9.5 17.5Z" fill="#DB2777"/>
</svg>
