<svg width="38" height="19" viewBox="0 0 38 19" fill="none" xmlns="http://www.w3.org/2000/svg">
<path d="M1.58333 19C1.13472 19 0.758681 18.8483 0.455208 18.5448C0.151736 18.2413 0 17.8653 0 17.4167V16.5063C0 15.3715 0.580555 14.4479 1.74167 13.7354C2.90278 13.0229 4.43333 12.6667 6.33333 12.6667C6.67639 12.6667 7.00625 12.6733 7.32292 12.6865C7.63958 12.6997 7.94306 12.7326 8.23333 12.7854C7.86389 13.3396 7.58681 13.9201 7.40208 14.5271C7.21736 15.134 7.125 15.7674 7.125 16.4271V19H1.58333ZM11.0833 19C10.6347 19 10.2587 18.8483 9.95521 18.5448C9.65174 18.2413 9.5 17.8653 9.5 17.4167V16.4271C9.5 15.5826 9.7309 14.8108 10.1927 14.1115C10.6545 13.4122 11.3076 12.7986 12.1521 12.2708C12.9965 11.7431 14.0059 11.3472 15.1802 11.0833C16.3545 10.8194 17.6278 10.6875 19 10.6875C20.3986 10.6875 21.6851 10.8194 22.8594 11.0833C24.0337 11.3472 25.0431 11.7431 25.8875 12.2708C26.7319 12.7986 27.3785 13.4122 27.8271 14.1115C28.2757 14.8108 28.5 15.5826 28.5 16.4271V17.4167C28.5 17.8653 28.3483 18.2413 28.0448 18.5448C27.7413 18.8483 27.3653 19 26.9167 19H11.0833ZM30.875 19V16.4271C30.875 15.741 30.7892 15.0944 30.6177 14.4875C30.4462 13.8806 30.1889 13.3132 29.8458 12.7854C30.1361 12.7326 30.433 12.6997 30.7365 12.6865C31.0399 12.6733 31.35 12.6667 31.6667 12.6667C33.5667 12.6667 35.0972 13.0163 36.2583 13.7156C37.4194 14.4149 38 15.3451 38 16.5063V17.4167C38 17.8653 37.8483 18.2413 37.5448 18.5448C37.2413 18.8483 36.8653 19 36.4167 19H30.875ZM12.8646 15.8333H25.175C24.9111 15.3056 24.1788 14.8438 22.9781 14.4479C21.7774 14.0521 20.4514 13.8542 19 13.8542C17.5486 13.8542 16.2226 14.0521 15.0219 14.4479C13.8212 14.8438 13.1021 15.3056 12.8646 15.8333ZM6.33333 11.0833C5.4625 11.0833 4.71701 10.7733 4.09687 10.1531C3.47674 9.53299 3.16667 8.7875 3.16667 7.91667C3.16667 7.01944 3.47674 6.26736 4.09687 5.66042C4.71701 5.05347 5.4625 4.75 6.33333 4.75C7.23056 4.75 7.98264 5.05347 8.58958 5.66042C9.19653 6.26736 9.5 7.01944 9.5 7.91667C9.5 8.7875 9.19653 9.53299 8.58958 10.1531C7.98264 10.7733 7.23056 11.0833 6.33333 11.0833ZM31.6667 11.0833C30.7958 11.0833 30.0503 10.7733 29.4302 10.1531C28.8101 9.53299 28.5 8.7875 28.5 7.91667C28.5 7.01944 28.8101 6.26736 29.4302 5.66042C30.0503 5.05347 30.7958 4.75 31.6667 4.75C32.5639 4.75 33.316 5.05347 33.9229 5.66042C34.5299 6.26736 34.8333 7.01944 34.8333 7.91667C34.8333 8.7875 34.5299 9.53299 33.9229 10.1531C33.316 10.7733 32.5639 11.0833 31.6667 11.0833ZM19 9.5C17.6806 9.5 16.559 9.03819 15.6354 8.11458C14.7118 7.19097 14.25 6.06944 14.25 4.75C14.25 3.40417 14.7118 2.27604 15.6354 1.36563C16.559 0.455208 17.6806 0 19 0C20.3458 0 21.474 0.455208 22.3844 1.36563C23.2948 2.27604 23.75 3.40417 23.75 4.75C23.75 6.06944 23.2948 7.19097 22.3844 8.11458C21.474 9.03819 20.3458 9.5 19 9.5ZM19 6.33333C19.4486 6.33333 19.8247 6.1816 20.1281 5.87812C20.4316 5.57465 20.5833 5.19861 20.5833 4.75C20.5833 4.30139 20.4316 3.92535 20.1281 3.62188C19.8247 3.3184 19.4486 3.16667 19 3.16667C18.5514 3.16667 18.1753 3.3184 17.8719 3.62188C17.5684 3.92535 17.4167 4.30139 17.4167 4.75C17.4167 5.19861 17.5684 5.57465 17.8719 5.87812C18.1753 6.1816 18.5514 6.33333 19 6.33333Z" fill="white"/>
</svg>
