<svg width="52" height="52" viewBox="0 0 52 52" fill="none" xmlns="http://www.w3.org/2000/svg">
<g filter="url(#filter0_di_291_462)">
<rect x="3.45868" y="2.76685" width="40" height="40" rx="12" fill="#F472B6" shape-rendering="crispEdges"/>
<path d="M32.2087 17.1901V28.3438C32.2087 28.7581 32.0612 29.1128 31.7662 29.4078C31.4712 29.7028 31.1165 29.8503 30.7022 29.8503H27.8337C27.6566 29.8503 27.5081 29.7903 27.3883 29.6705C27.2685 29.5506 27.2087 29.4021 27.2087 29.2251C27.2087 29.0478 27.2685 28.8994 27.3883 28.7798C27.5081 28.6601 27.6566 28.6003 27.8337 28.6003H30.7022C30.7771 28.6003 30.8385 28.5762 30.8866 28.5282C30.9347 28.4801 30.9587 28.4187 30.9587 28.3438V17.1901C30.9587 17.1152 30.9347 17.0537 30.8866 17.0057C30.8385 16.9576 30.7771 16.9336 30.7022 16.9336H23.4587C23.3838 16.9336 23.3224 16.9576 23.2743 17.0057C23.2262 17.0537 23.2022 17.1152 23.2022 17.1901V17.8871C23.2022 18.0642 23.1423 18.2127 23.0224 18.3326C22.9026 18.4523 22.7541 18.5121 22.577 18.5121C22.3998 18.5121 22.2514 18.4523 22.1318 18.3326C22.0121 18.2127 21.9522 18.0642 21.9522 17.8871V17.1644C21.9522 16.7594 22.0978 16.4114 22.3889 16.1203C22.68 15.8291 23.0281 15.6836 23.4331 15.6836H30.7022C31.1165 15.6836 31.4712 15.8311 31.7662 16.1261C32.0612 16.4211 32.2087 16.7757 32.2087 17.1901ZM14.7087 22.9159C14.7087 22.6702 14.7645 22.4387 14.8762 22.2213C14.9878 22.0038 15.1441 21.8267 15.3449 21.6901L19.2551 18.9032C19.3937 18.8035 19.5355 18.7318 19.6803 18.6882C19.8252 18.6446 19.9733 18.6228 20.1245 18.6228C20.2758 18.6228 20.424 18.6446 20.5693 18.6882C20.7144 18.7318 20.8565 18.8035 20.9956 18.9032L24.9058 21.6901C25.1066 21.8267 25.2628 22.0038 25.3745 22.2213C25.4862 22.4387 25.542 22.6702 25.542 22.9159V28.3438C25.542 28.7581 25.3945 29.1128 25.0995 29.4078C24.8045 29.7028 24.4499 29.8503 24.0356 29.8503H22.5772C22.1631 29.8503 21.8085 29.7028 21.5135 29.4078C21.2185 29.1128 21.071 28.7581 21.071 28.3438V25.8919H19.1797V28.3438C19.1797 28.7581 19.0322 29.1128 18.7372 29.4078C18.4422 29.7028 18.0876 29.8503 17.6735 29.8503H16.2151C15.8008 29.8503 15.4462 29.7028 15.1512 29.4078C14.8562 29.1128 14.7087 28.7581 14.7087 28.3438V22.9159ZM15.9587 22.9032V28.3438C15.9587 28.4187 15.9827 28.4801 16.0308 28.5282C16.0788 28.5762 16.1403 28.6003 16.2151 28.6003H17.6735C17.7482 28.6003 17.8096 28.5762 17.8576 28.5282C17.9058 28.4801 17.9299 28.4187 17.9299 28.3438V25.908C17.9299 25.5564 18.0531 25.2576 18.2993 25.0113C18.5456 24.7651 18.8444 24.6419 19.1958 24.6419H21.0549C21.4063 24.6419 21.7051 24.7651 21.9514 25.0113C22.1976 25.2576 22.3208 25.5564 22.3208 25.908V28.3438C22.3208 28.4187 22.3449 28.4801 22.3931 28.5282C22.4411 28.5762 22.5025 28.6003 22.5772 28.6003H24.0356C24.1104 28.6003 24.1719 28.5762 24.2199 28.5282C24.268 28.4801 24.292 28.4187 24.292 28.3438V22.9032C24.292 22.8604 24.2826 22.8203 24.2639 22.783C24.2453 22.7456 24.2172 22.7135 24.1797 22.6867L20.2695 19.9288C20.2269 19.8967 20.1788 19.8807 20.1253 19.8807C20.0719 19.8807 20.0238 19.8967 19.9812 19.9288L16.071 22.6867C16.0335 22.7135 16.0054 22.7456 15.9868 22.783C15.9681 22.8203 15.9587 22.8604 15.9587 22.9032ZM28.0981 20.1707H28.8193C28.9197 20.1707 29.0076 20.133 29.0828 20.0578C29.1581 19.9825 29.1958 19.8946 29.1958 19.7942V19.073C29.1958 18.9726 29.1581 18.8847 29.0828 18.8094C29.0076 18.7341 28.9197 18.6965 28.8193 18.6965H28.0981C27.9976 18.6965 27.9098 18.7341 27.8345 18.8094C27.7592 18.8847 27.7216 18.9726 27.7216 19.073V19.7942C27.7216 19.8946 27.7592 19.9825 27.8345 20.0578C27.9098 20.133 27.9976 20.1707 28.0981 20.1707ZM28.0981 23.504H28.8193C28.9197 23.504 29.0076 23.4664 29.0828 23.3911C29.1581 23.3158 29.1958 23.228 29.1958 23.1276V22.4063C29.1958 22.3059 29.1581 22.218 29.0828 22.1428C29.0076 22.0675 28.9197 22.0298 28.8193 22.0298H28.0981C27.9976 22.0298 27.9098 22.0675 27.8345 22.1428C27.7592 22.218 27.7216 22.3059 27.7216 22.4063V23.1276C27.7216 23.228 27.7592 23.3158 27.8345 23.3911C27.9098 23.4664 27.9976 23.504 28.0981 23.504ZM28.0981 26.8373H28.8193C28.9197 26.8373 29.0076 26.7997 29.0828 26.7244C29.1581 26.6491 29.1958 26.5613 29.1958 26.4609V25.7396C29.1958 25.6392 29.1581 25.5514 29.0828 25.4761C29.0076 25.4008 28.9197 25.3632 28.8193 25.3632H28.0981C27.9976 25.3632 27.9098 25.4008 27.8345 25.4761C27.7592 25.5514 27.7216 25.6392 27.7216 25.7396V26.4609C27.7216 26.5613 27.7592 26.6491 27.8345 26.7244C27.9098 26.7997 27.9976 26.8373 28.0981 26.8373Z" fill="white"/>
</g>
<defs>
<filter id="filter0_di_291_462" x="-2.86102e-06" y="-9.98974e-05" width="51.0678" height="51.0678" filterUnits="userSpaceOnUse" color-interpolation-filters="sRGB">
<feFlood flood-opacity="0" result="BackgroundImageFix"/>
<feColorMatrix in="SourceAlpha" type="matrix" values="0 0 0 0 0 0 0 0 0 0 0 0 0 0 0 0 0 0 127 0" result="hardAlpha"/>
<feOffset dx="2.07521" dy="2.76695"/>
<feGaussianBlur stdDeviation="2.76695"/>
<feComposite in2="hardAlpha" operator="out"/>
<feColorMatrix type="matrix" values="0 0 0 0 0.956863 0 0 0 0 0.447059 0 0 0 0 0.713726 0 0 0 0.35 0"/>
<feBlend mode="normal" in2="BackgroundImageFix" result="effect1_dropShadow_291_462"/>
<feBlend mode="normal" in="SourceGraphic" in2="effect1_dropShadow_291_462" result="shape"/>
<feColorMatrix in="SourceAlpha" type="matrix" values="0 0 0 0 0 0 0 0 0 0 0 0 0 0 0 0 0 0 127 0" result="hardAlpha"/>
<feOffset dx="-0.691736" dy="-0.691736"/>
<feGaussianBlur stdDeviation="2.76695"/>
<feComposite in2="hardAlpha" operator="arithmetic" k2="-1" k3="1"/>
<feColorMatrix type="matrix" values="0 0 0 0 0.216667 0 0 0 0 0.216667 0 0 0 0 0.216667 0 0 0 0.51 0"/>
<feBlend mode="normal" in2="shape" result="effect2_innerShadow_291_462"/>
</filter>
</defs>
</svg>
