<svg width="24" height="24" viewBox="0 0 24 24" fill="none" xmlns="http://www.w3.org/2000/svg">
<path d="M13.7627 12.0005C13.7627 12.9737 12.9737 13.7627 12.0005 13.7627C11.0273 13.7627 10.2383 12.9737 10.2383 12.0005C10.2383 11.0273 11.0273 10.2383 12.0005 10.2383C12.9737 10.2383 13.7627 11.0273 13.7627 12.0005Z" fill="white"/>
<path d="M14.9758 6.67383H9.02344C7.72779 6.67383 6.67383 7.72779 6.67383 9.02344V14.9758C6.67383 16.2714 7.72779 17.3254 9.02344 17.3254H14.9758C16.2714 17.3254 17.3254 16.2714 17.3254 14.9758V9.02344C17.3254 7.72779 16.2714 6.67383 14.9758 6.67383ZM11.9996 14.9366C10.3801 14.9366 9.0626 13.6191 9.0626 11.9996C9.0626 10.3801 10.3801 9.0626 11.9996 9.0626C13.6191 9.0626 14.9366 10.3801 14.9366 11.9996C14.9366 13.6191 13.6191 14.9366 11.9996 14.9366ZM15.3674 9.21924C15.0429 9.21924 14.78 8.95628 14.78 8.63184C14.78 8.30739 15.0429 8.04443 15.3674 8.04443C15.6918 8.04443 15.9548 8.30739 15.9548 8.63184C15.9548 8.95628 15.6918 9.21924 15.3674 9.21924Z" fill="white"/>
<path d="M16.7266 2H7.27344C4.36572 2 2 4.36572 2 7.27344V16.7266C2 19.6343 4.36572 22 7.27344 22H16.7266C19.6343 22 22 19.6343 22 16.7266V7.27344C22 4.36572 19.6343 2 16.7266 2ZM18.4844 14.9688C18.4844 16.9072 16.9072 18.4844 14.9688 18.4844H9.03125C7.09277 18.4844 5.51562 16.9072 5.51562 14.9688V9.03125C5.51562 7.09277 7.09277 5.51562 9.03125 5.51562H14.9688C16.9072 5.51562 18.4844 7.09277 18.4844 9.03125V14.9688Z" fill="white"/>
</svg>
