<svg width="34" height="26" viewBox="0 0 34 26" fill="none" xmlns="http://www.w3.org/2000/svg">
<mask id="mask0_291_535" style="mask-type:luminance" maskUnits="userSpaceOnUse" x="-1" y="0" width="35" height="26">
<path d="M-0.000152588 0H33.1913V26H-0.000152588V0Z" fill="white"/>
</mask>
<g mask="url(#mask0_291_535)">
<path d="M33.1865 24.1868H0.00317383C0.00317383 23.5913 0.0031738 23.1193 0.00447037 23.1193C0.00447037 23.1193 0.178207 22.5994 0.389544 21.9619L1.54347 18.4954C1.75524 17.858 1.92854 16.7874 1.92854 16.1163V1.28426C1.92854 0.612646 2.47827 0.064209 3.14945 0.064209H29.9032C30.5744 0.064209 31.1224 0.612646 31.1224 1.28426V16.1163C31.1224 16.7874 31.3069 17.8536 31.5329 18.4868L32.7746 21.9706C33.0019 22.602 33.1865 23.1193 33.1865 23.1193C33.1865 23.1193 33.1865 23.5908 33.1865 24.1868ZM20.9091 22.0722L20.2297 20.228H12.9085L12.2806 22.0722H20.9091ZM29.3275 3.23987C29.3275 2.60716 28.8089 2.08984 28.1762 2.08984H5.01388C4.3816 2.08984 3.86385 2.60716 3.86385 3.23987V14.5233C3.86385 15.156 4.3816 15.6737 5.01388 15.6737H28.1762C28.8089 15.6737 29.3275 15.156 29.3275 14.5233V3.23987ZM0.00317383 24.727C0.00317383 25.3982 0.552476 25.9484 1.22365 25.9484H31.9673C32.6376 25.9484 33.1865 25.3982 33.1865 24.727H0.00317383Z" fill="white"/>
</g>
</svg>
