<svg width="22" height="28" viewBox="0 0 22 28" fill="none" xmlns="http://www.w3.org/2000/svg">
<path d="M9.33989 17.1875L1.19301 16.1562C0.620098 16.0875 0.247702 15.7781 0.0758272 15.2281C-0.0960478 14.6781 0.0242647 14.2083 0.436765 13.8188L14.4961 0.34375C14.6107 0.229167 14.7482 0.143229 14.9086 0.0859375C15.0691 0.0286458 15.2868 0 15.5618 0C16.0201 0 16.3696 0.194792 16.6102 0.584375C16.8508 0.973958 16.8566 1.375 16.6274 1.7875L12.0899 10.3125L20.2368 11.3438C20.8097 11.4125 21.1821 11.7219 21.354 12.2719C21.5258 12.8219 21.4055 13.2917 20.993 13.6813L6.93364 27.1562C6.81906 27.2708 6.68156 27.3568 6.52114 27.4141C6.36072 27.4714 6.14301 27.5 5.86801 27.5C5.40968 27.5 5.0602 27.3052 4.81958 26.9156C4.57895 26.526 4.57322 26.125 4.80239 25.7125L9.33989 17.1875Z" fill="#FBC12C"/>
</svg>
