<svg width="13" height="19" viewBox="0 0 13 19" fill="none" xmlns="http://www.w3.org/2000/svg">
<path d="M10.342 0.0812699C10.4576 0.148643 10.5471 0.253436 10.5958 0.378529C10.6446 0.503622 10.6496 0.641621 10.6102 0.769981L8.48184 7.71884H12.4089C12.5243 7.71879 12.6372 7.7527 12.7336 7.81638C12.8301 7.88007 12.9058 7.97074 12.9516 8.07719C12.9973 8.18365 13.0111 8.30124 12.9911 8.41545C12.9711 8.52965 12.9182 8.63547 12.839 8.71984L3.38484 18.813C3.29336 18.9108 3.17163 18.9745 3.03949 18.9938C2.90735 19.0131 2.7726 18.9869 2.65719 18.9194C2.54177 18.8519 2.45251 18.7472 2.40396 18.6222C2.3554 18.4972 2.3504 18.3594 2.38979 18.2312L4.51816 11.2811H0.591123C0.475717 11.2812 0.362823 11.2473 0.266379 11.1836C0.169934 11.1199 0.0941597 11.0292 0.0484109 10.9228C0.00266205 10.8163 -0.011059 10.6987 0.0089415 10.5845C0.028942 10.4703 0.0817883 10.3645 0.160957 10.2801L9.61516 0.186951C9.70652 0.0893434 9.82807 0.0256608 9.96002 0.00625811C10.092 -0.0131446 10.2266 0.0128737 10.342 0.0800825V0.0812699Z" fill="#6557E3"/>
</svg>
