<svg width="30" height="30" viewBox="0 0 30 30" fill="none" xmlns="http://www.w3.org/2000/svg">
<path d="M14.5833 29.1667C12.566 29.1667 10.6701 28.7839 8.89583 28.0182C7.12153 27.2526 5.57813 26.2135 4.26563 24.901C2.95313 23.5885 1.91406 22.0451 1.14844 20.2708C0.382813 18.4965 0 16.6007 0 14.5833C0 12.566 0.382813 10.6701 1.14844 8.89583C1.91406 7.12153 2.95313 5.57813 4.26563 4.26563C5.57813 2.95313 7.12153 1.91406 8.89583 1.14844C10.6701 0.382813 12.566 0 14.5833 0C16.6007 0 18.4965 0.382813 20.2708 1.14844C22.0451 1.91406 23.5885 2.95313 24.901 4.26563C26.2135 5.57813 27.2526 7.12153 28.0182 8.89583C28.7839 10.6701 29.1667 12.566 29.1667 14.5833C29.1667 16.6007 28.7839 18.4965 28.0182 20.2708C27.2526 22.0451 26.2135 23.5885 24.901 24.901C23.5885 26.2135 22.0451 27.2526 20.2708 28.0182C18.4965 28.7839 16.6007 29.1667 14.5833 29.1667ZM14.5833 26.25C17.8403 26.25 20.599 25.1198 22.8594 22.8594C25.1198 20.599 26.25 17.8403 26.25 14.5833C26.25 14.4132 26.2439 14.237 26.2318 14.0547C26.2196 13.8724 26.2135 13.7205 26.2135 13.599C26.092 14.3038 25.7639 14.8872 25.2292 15.349C24.6944 15.8108 24.0625 16.0417 23.3333 16.0417H20.4167C19.6146 16.0417 18.928 15.7561 18.3568 15.1849C17.7856 14.6137 17.5 13.9271 17.5 13.125V11.6667H11.6667V8.75C11.6667 7.94792 11.9523 7.26129 12.5234 6.6901C13.0946 6.11892 13.7813 5.83333 14.5833 5.83333H16.0417C16.0417 5.27431 16.1936 4.78212 16.4974 4.35677C16.8012 3.93142 17.1719 3.58507 17.6094 3.31771C17.1233 3.19618 16.6311 3.09896 16.1328 3.02604C15.6346 2.95313 15.1181 2.91667 14.5833 2.91667C11.3264 2.91667 8.56771 4.04688 6.30729 6.30729C4.04688 8.56771 2.91667 11.3264 2.91667 14.5833H10.2083C11.8125 14.5833 13.1858 15.1545 14.3281 16.2969C15.4705 17.4392 16.0417 18.8125 16.0417 20.4167V21.875H11.6667V25.8854C12.1528 26.0069 12.6328 26.0981 13.1068 26.1589C13.5807 26.2196 14.0729 26.25 14.5833 26.25Z" fill="#6557E3"/>
</svg>
