<svg width="17" height="17" viewBox="0 0 17 17" fill="none" xmlns="http://www.w3.org/2000/svg">
<path d="M16.0819 4.66838L14.9627 5.61402V3.94418L15.9024 4.54269C15.9644 4.58142 16.0243 4.62338 16.0819 4.66838ZM16.7104 5.7038L14.9627 7.18212L9.53424 11.7787C9.32994 11.9447 9.09354 12.067 8.84004 12.1378C8.73934 12.1616 8.63744 12.1796 8.53474 12.1917H8.22354C8.12084 12.1796 8.01894 12.1616 7.91829 12.1378C7.66692 12.069 7.43256 11.9487 7.23 11.7847L1.79553 7.18212L0.0478799 5.7038C0.0198099 5.81954 0.00376 5.93788 0 6.05692V14.9627C0 15.4389 0.18917 15.8957 0.5259 16.2324C0.86263 16.5692 1.31933 16.7583 1.79553 16.7583H14.9627C15.4389 16.7583 15.8956 16.5692 16.2323 16.2324C16.5691 15.8957 16.7582 15.4389 16.7582 14.9627V6.05692C16.7545 5.93788 16.7384 5.81954 16.7104 5.7038ZM7.99614 10.8629L2.99255 6.6255V1.79553C2.99255 1.31933 3.18172 0.86263 3.51845 0.5259C3.85518 0.18917 4.31188 0 4.78808 0H11.9702C12.4464 0 12.9031 0.18917 13.2398 0.5259C13.5765 0.86263 13.7657 1.31933 13.7657 1.79553V6.6255L8.76214 10.8629C8.65464 10.9525 8.51914 11.0016 8.37914 11.0016C8.23914 11.0016 8.10364 10.9525 7.99614 10.8629ZM5.38659 3.59106C5.38659 3.74979 5.44965 3.90203 5.56189 4.01427C5.67413 4.12651 5.82637 4.18957 5.9851 4.18957H10.7731C10.9319 4.18957 11.0841 4.12651 11.1964 4.01427C11.3086 3.90203 11.3717 3.74979 11.3717 3.59106C11.3717 3.43232 11.3086 3.28009 11.1964 3.16785C11.0841 3.05561 10.9319 2.99255 10.7731 2.99255H5.9851C5.82637 2.99255 5.67413 3.05561 5.56189 3.16785C5.44965 3.28009 5.38659 3.43232 5.38659 3.59106ZM5.9851 6.58361H10.7731C10.9319 6.58361 11.0841 6.52055 11.1964 6.40831C11.3086 6.29607 11.3717 6.14383 11.3717 5.9851C11.3717 5.82636 11.3086 5.67413 11.1964 5.56189C11.0841 5.44965 10.9319 5.38659 10.7731 5.38659H5.9851C5.82637 5.38659 5.67413 5.44965 5.56189 5.56189C5.44965 5.67413 5.38659 5.82636 5.38659 5.9851C5.38659 6.14383 5.44965 6.29607 5.56189 6.40831C5.67413 6.52055 5.82637 6.58361 5.9851 6.58361ZM1.79553 3.94418L0.84989 4.54269C0.78939 4.58729 0.73145 4.63525 0.67632 4.68633L1.79553 5.61402V3.94418Z" fill="#6557E3"/>
</svg>
