<svg width="15" height="10" viewBox="0 0 15 10" fill="none" xmlns="http://www.w3.org/2000/svg">
<path d="M9.80005 0.149597C9.97261 0.149597 10.138 0.218986 10.26 0.341003L14.259 4.34003C14.3196 4.40041 14.3688 4.47297 14.4016 4.55194C14.4342 4.63077 14.4514 4.71564 14.4514 4.80096C14.4514 4.88634 14.4343 4.97113 14.4016 5.04999C14.3852 5.08944 14.3647 5.12697 14.3411 5.16229L14.26 5.26093L10.26 9.26093C10.138 9.38283 9.97252 9.45135 9.80005 9.45135C9.62757 9.45135 9.46209 9.38283 9.34009 9.26093C9.21815 9.13899 9.14975 8.9734 9.14966 8.80096C9.14966 8.62849 9.21818 8.463 9.34009 8.341L12.2307 5.45038H0.800049C0.627658 5.45038 0.461987 5.38185 0.340088 5.25995C0.218468 5.13816 0.149749 4.97308 0.149658 4.80096C0.149658 4.62865 0.218297 4.46289 0.340088 4.341C0.461986 4.21911 0.627658 4.15057 0.800049 4.15057H12.2307L9.34009 1.26093C9.21815 1.13899 9.14975 0.973398 9.14966 0.800964C9.14966 0.628488 9.21818 0.463004 9.34009 0.341003C9.46211 0.218986 9.62749 0.149597 9.80005 0.149597Z" fill="white" stroke="white" stroke-width="0.3"/>
</svg>
