<svg width="16" height="16" viewBox="0 0 16 16" fill="none" xmlns="http://www.w3.org/2000/svg">
<path d="M7.2 4.7999C7.2 6.1245 6.1246 7.1999 4.8 7.1999C3.47541 7.1999 2.4 6.1245 2.4 4.7999C2.4 3.47531 3.47541 2.3999 4.8 2.3999C6.1246 2.3999 7.2 3.47531 7.2 4.7999ZM13.6 4.7999C13.6 6.1245 12.5246 7.1999 11.2 7.1999C9.87541 7.1999 8.8 6.1245 8.8 4.7999C8.8 3.47531 9.87541 2.3999 11.2 2.3999C12.5246 2.3999 13.6 3.47531 13.6 4.7999ZM10.344 13.5999C10.3808 13.3383 10.4 13.0719 10.4 12.7999C10.4019 11.543 9.97899 10.3223 9.2 9.3359C10.4376 8.62138 11.9624 8.62137 13.2 9.33588C14.4376 10.0504 15.2 11.3709 15.2 12.7999V13.5999H10.344ZM4.8 8.7999C7.00766 8.7999 8.8 10.5922 8.8 12.7999V13.5999H0.800003V12.7999C0.800003 10.5922 2.59234 8.7999 4.8 8.7999Z" fill="#8B79FD"/>
</svg>
