<svg width="21" height="15" viewBox="0 0 21 15" fill="none" xmlns="http://www.w3.org/2000/svg">
<path d="M0 12.3923C0 11.8769 0.133 11.417 0.399 11.0125C0.665 10.608 1.02042 10.2936 1.46525 10.0693C2.41525 9.60392 3.37067 9.24525 4.3315 8.99325C5.2925 8.74142 6.34858 8.6155 7.49975 8.6155C8.65108 8.6155 9.70717 8.74142 10.668 8.99325C11.629 9.24525 12.5845 9.60392 13.5345 10.0693C13.9793 10.2936 14.3348 10.608 14.6008 11.0125C14.8668 11.417 14.9998 11.8769 14.9998 12.3923V13.0962C14.9998 13.4987 14.852 13.8526 14.5565 14.1578C14.261 14.4629 13.9023 14.6155 13.4805 14.6155H1.519C1.09733 14.6155 0.73875 14.4678 0.44325 14.1723C0.14775 13.8766 0 13.5179 0 13.0962V12.3923ZM16.6133 14.6155C16.7389 14.386 16.8348 14.1421 16.9008 13.8837C16.9668 13.6254 16.9998 13.3629 16.9998 13.0962V12.2692C16.9998 11.6129 16.8389 10.9873 16.5173 10.3925C16.1954 9.7975 15.7396 9.28725 15.1498 8.86175C15.8203 8.96175 16.4568 9.1165 17.0595 9.326C17.662 9.53567 18.237 9.78342 18.7845 10.0693C19.3012 10.3449 19.7002 10.6693 19.9815 11.0423C20.2628 11.4154 20.4035 11.8244 20.4035 12.2692V13.0962C20.4035 13.5179 20.2558 13.8766 19.9603 14.1723C19.6648 14.4678 19.3062 14.6155 18.8845 14.6155H16.6133ZM5.02575 5.974C4.34192 5.29017 4 4.4655 4 3.5C4 2.53467 4.34192 1.71 5.02575 1.026C5.70975 0.341999 6.53442 0 7.49975 0C8.46525 0 9.28992 0.341999 9.97375 1.026C10.6578 1.71 10.9998 2.53467 10.9998 3.5C10.9998 4.4655 10.6578 5.29017 9.97375 5.974C9.28992 6.658 8.46525 7 7.49975 7C6.53442 7 5.70975 6.658 5.02575 5.974ZM15.1085 5.974C14.4245 6.658 13.5998 7 12.6345 7C12.5217 7 12.3781 6.98717 12.2038 6.9615C12.0293 6.93583 11.8857 6.90767 11.773 6.877C12.1652 6.40133 12.4677 5.87533 12.6805 5.299C12.8933 4.72283 12.9998 4.12317 12.9998 3.5C12.9998 2.877 12.8918 2.27892 12.6758 1.70575C12.4598 1.13275 12.1588 0.60525 11.773 0.12325C11.9165 0.0719165 12.0601 0.0385832 12.2038 0.0232498C12.3473 0.00774982 12.4908 0 12.6345 0C13.5998 0 14.4245 0.341999 15.1085 1.026C15.7923 1.71 16.1343 2.53467 16.1343 3.5C16.1343 4.4655 15.7923 5.29017 15.1085 5.974Z" fill="#4F46E5"/>
</svg>
