<svg width="19" height="19" viewBox="0 0 19 19" fill="none" xmlns="http://www.w3.org/2000/svg">
<path fill-rule="evenodd" clip-rule="evenodd" d="M9.5 19C14.7432 19 19 14.7432 19 9.5C19 4.25681 14.7432 0 9.5 0C4.25681 0 0 4.25681 0 9.5C0 14.7432 4.25681 19 9.5 19ZM8.97156 6.137C8.60717 5.89388 8.13852 5.87112 7.75228 6.07778C7.36604 6.28443 7.12493 6.68695 7.125 7.125V11.875C7.12493 12.3131 7.36604 12.7156 7.75228 12.9222C8.13852 13.1289 8.60717 13.1061 8.97156 12.863L12.5341 10.488C12.8644 10.2678 13.0628 9.89701 13.0628 9.5C13.0628 9.10299 12.8644 8.73225 12.5341 8.512L8.97156 6.137Z" fill="#2563EB"/>
</svg>
