<svg width="9" height="9" viewBox="0 0 9 9" fill="none" xmlns="http://www.w3.org/2000/svg">
<path d="M3.85714 5.14286H0.642857C0.460714 5.14286 0.308036 5.08125 0.184821 4.95804C0.0616071 4.83482 0 4.68214 0 4.5C0 4.31786 0.0616071 4.16518 0.184821 4.04196C0.308036 3.91875 0.460714 3.85714 0.642857 3.85714H3.85714V0.642857C3.85714 0.460714 3.91875 0.308036 4.04196 0.184821C4.16518 0.0616071 4.31786 0 4.5 0C4.68214 0 4.83482 0.0616071 4.95804 0.184821C5.08125 0.308036 5.14286 0.460714 5.14286 0.642857V3.85714H8.35714C8.53929 3.85714 8.69197 3.91875 8.81518 4.04196C8.93839 4.16518 9 4.31786 9 4.5C9 4.68214 8.93839 4.83482 8.81518 4.95804C8.69197 5.08125 8.53929 5.14286 8.35714 5.14286H5.14286V8.35714C5.14286 8.53929 5.08125 8.69197 4.95804 8.81518C4.83482 8.93839 4.68214 9 4.5 9C4.31786 9 4.16518 8.93839 4.04196 8.81518C3.91875 8.69197 3.85714 8.53929 3.85714 8.35714V5.14286Z" fill="#6557E3"/>
</svg>
