<svg width="26" height="18" viewBox="0 0 26 18" fill="none" xmlns="http://www.w3.org/2000/svg">
<path d="M3.825 15.75L6 12C4.35 12 2.9375 11.4125 1.7625 10.2375C0.5875 9.0625 0 7.65 0 6C0 4.35 0.5875 2.9375 1.7625 1.7625C2.9375 0.5875 4.35 0 6 0C7.65 0 9.0625 0.5875 10.2375 1.7625C11.4125 2.9375 12 4.35 12 6C12 6.575 11.9313 7.10625 11.7938 7.59375C11.6562 8.08125 11.45 8.55 11.175 9L6.4125 17.25C6.2875 17.475 6.1125 17.6562 5.8875 17.7938C5.6625 17.9313 5.4125 18 5.1375 18C4.5625 18 4.13125 17.75 3.84375 17.25C3.55625 16.75 3.55 16.25 3.825 15.75ZM17.325 15.75L19.5 12C17.85 12 16.4375 11.4125 15.2625 10.2375C14.0875 9.0625 13.5 7.65 13.5 6C13.5 4.35 14.0875 2.9375 15.2625 1.7625C16.4375 0.5875 17.85 0 19.5 0C21.15 0 22.5625 0.5875 23.7375 1.7625C24.9125 2.9375 25.5 4.35 25.5 6C25.5 6.575 25.4313 7.10625 25.2938 7.59375C25.1563 8.08125 24.95 8.55 24.675 9L19.9125 17.25C19.7875 17.475 19.6125 17.6562 19.3875 17.7938C19.1625 17.9313 18.9125 18 18.6375 18C18.0625 18 17.6313 17.75 17.3438 17.25C17.0563 16.75 17.05 16.25 17.325 15.75Z" fill="#6557E3"/>
</svg>
