<svg width="76" height="76" viewBox="0 0 76 76" fill="none" xmlns="http://www.w3.org/2000/svg">
<g filter="url(#filter0_i_291_632)">
<rect width="76" height="76" rx="9.96968" fill="#0165E0"/>
<g filter="url(#filter1_f_291_632)">
<path d="M7.76704 15.1992C8.11301 12.4125 12.731 12.4238 15.3745 12.6636C16.0477 12.7247 16.263 13.5918 15.752 14.0342C14.5378 15.0852 12.9324 16.7352 12.4835 18.4224C10.168 27.1254 10.3925 41.2838 10.7829 49.5667C10.9881 53.9216 10.3269 58.2826 8.65976 62.311L7.76704 64.4681C7.76704 64.4681 6.05202 29.0129 7.76704 15.1992Z" fill="white" fill-opacity="0.3"/>
<path d="M7.76704 15.1992C8.11301 12.4125 12.731 12.4238 15.3745 12.6636C16.0477 12.7247 16.263 13.5918 15.752 14.0342C14.5378 15.0852 12.9324 16.7352 12.4835 18.4224C10.168 27.1254 10.3925 41.2838 10.7829 49.5667C10.9881 53.9216 10.3269 58.2826 8.65976 62.311L7.76704 64.4681C7.76704 64.4681 6.05202 29.0129 7.76704 15.1992Z" fill="url(#paint0_linear_291_632)"/>
</g>
<g filter="url(#filter2_f_291_632)">
<path d="M16.2727 8.85815L63.541 8.85815" stroke="white" stroke-width="0.755807" stroke-linecap="round"/>
</g>
<g filter="url(#filter3_di_291_632)">
<path fill-rule="evenodd" clip-rule="evenodd" d="M33.8211 23.9981C35.513 22.2368 37.8678 21.1462 40.4692 21.1462C43.9378 21.1462 46.9439 23.0731 48.5625 25.9443C49.9994 25.302 51.5556 24.9704 53.1295 24.9712C59.3729 24.9712 64.4408 30.0777 64.4408 36.3789C64.4408 42.6802 59.3729 47.7867 53.1295 47.7867C52.3664 47.7867 51.6226 47.71 50.8942 47.5651C49.4779 50.0894 46.7704 51.8044 43.6873 51.8044C42.432 51.8069 41.1928 51.5221 40.0646 50.972C38.629 54.3442 35.2857 56.7144 31.3932 56.7144C27.3272 56.7144 23.8779 54.1515 22.5483 50.548C21.9565 50.6729 21.3533 50.7357 20.7485 50.7353C15.9118 50.7353 12 46.7657 12 41.8905C12 38.6146 13.7613 35.7627 16.3743 34.2211C15.8199 32.9441 15.5346 31.5666 15.536 30.1745C15.536 24.5477 20.103 20 25.7298 20C29.0249 20 31.9732 21.5705 33.8231 24.0081" fill="white"/>
</g>
<path fill-rule="evenodd" clip-rule="evenodd" d="M19.6393 39.0279C19.6063 39.1138 19.6511 39.1317 19.6617 39.1469C19.7601 39.2182 19.8601 39.2699 19.9603 39.3279C20.496 39.6112 21.0009 39.694 21.5289 39.694C22.6041 39.694 23.2728 39.1217 23.2728 38.2006V38.1825C23.2728 37.3308 22.5174 37.0205 21.8122 36.7989L21.7199 36.769C21.1861 36.596 20.7255 36.4453 20.7255 36.0946V36.0767C20.7255 35.7761 20.9953 35.5545 21.4115 35.5545C21.874 35.5545 22.4251 35.7084 22.7778 35.9033C22.7778 35.9033 22.8822 35.9707 22.9202 35.8699C22.9408 35.8154 23.1206 35.3342 23.1398 35.2803C23.1603 35.2238 23.1244 35.1812 23.0876 35.1592C22.683 34.9126 22.1241 34.7449 21.546 34.7449L21.4387 34.7453C20.454 34.7453 19.7661 35.3408 19.7661 36.1925V36.2108C19.7661 37.1088 20.5253 37.4017 21.2345 37.604L21.3485 37.6395C21.865 37.7982 22.312 37.9362 22.312 38.2985V38.3166C22.312 38.65 22.021 38.8986 21.5547 38.8986C21.3734 38.8986 20.7955 38.8955 20.1692 38.4997C20.0935 38.4555 20.0503 38.4237 19.9919 38.3881C19.9611 38.3694 19.884 38.3357 19.8505 38.4367L19.6385 39.0263M35.3819 39.0263C35.349 39.1123 35.3937 39.1302 35.4047 39.1454C35.5028 39.2167 35.6032 39.2683 35.7034 39.3263C36.2391 39.6096 36.7439 39.6925 37.2719 39.6925C38.3472 39.6925 39.0158 39.1202 39.0158 38.1991V38.1809C39.0158 37.3292 38.2624 37.019 37.5552 36.7974L37.4629 36.7675C36.9291 36.5945 36.4686 36.4438 36.4686 36.0931V36.0751C36.4686 35.7745 36.7383 35.5529 37.1546 35.5529C37.6171 35.5529 38.1662 35.7069 38.5208 35.9017C38.5208 35.9017 38.6252 35.9692 38.6634 35.8684C38.6838 35.8138 38.8638 35.3327 38.8812 35.2787C38.9018 35.2223 38.8657 35.1797 38.8291 35.1577C38.4245 34.9111 37.8656 34.7434 37.2875 34.7434L37.18 34.7438C36.1953 34.7438 35.5074 35.3392 35.5074 36.191V36.2093C35.5074 37.1072 36.2666 37.4001 36.9758 37.6025L37.0896 37.6379C37.608 37.7967 38.0531 37.9347 38.0531 38.297V38.3151C38.0531 38.6484 37.7622 38.897 37.2958 38.897C37.1141 38.897 36.5347 38.8939 35.9103 38.4981C35.8346 38.454 35.7903 38.4236 35.7329 38.3866C35.7134 38.3742 35.6226 38.3388 35.5916 38.4351L35.3796 39.0248M46.1322 37.2211C46.1322 37.7414 46.0351 38.1518 45.8451 38.4428C45.6554 38.7299 45.3691 38.8706 44.9702 38.8706C44.5713 38.8706 44.2861 38.7311 44.0992 38.4448C43.911 38.1557 43.816 37.7433 43.816 37.223C43.816 36.7028 43.9115 36.2942 44.0992 36.0071C44.2858 35.7219 44.5694 35.5851 44.9702 35.5851C45.371 35.5851 45.6562 35.7233 45.8451 36.0071C46.0362 36.2942 46.1322 36.7028 46.1322 37.223M47.0302 36.2576C46.9417 35.9589 46.8047 35.6969 46.6216 35.4772C46.4384 35.2575 46.2073 35.0802 45.9318 34.9531C45.6581 34.8249 45.3344 34.7604 44.9683 34.7604C44.6022 34.7604 44.2804 34.8253 44.0048 34.9531C43.7312 35.081 43.498 35.2575 43.3149 35.4772C43.1323 35.6969 42.9951 35.9589 42.9064 36.2576C42.8187 36.5544 42.7742 36.8781 42.7742 37.223C42.7742 37.568 42.8187 37.8917 42.9064 38.1885C42.9945 38.4871 43.1319 38.7492 43.3149 38.9689C43.4982 39.1886 43.7312 39.3639 44.0048 39.4892C44.2804 39.614 44.6041 39.6776 44.9683 39.6776C45.3325 39.6776 45.6562 39.614 45.9299 39.4892C46.2035 39.3643 46.4366 39.1886 46.6197 38.9689C46.8026 38.7492 46.9396 38.4871 47.0282 38.1885C47.1157 37.8917 47.1602 37.568 47.1602 37.223C47.1602 36.88 47.1157 36.5544 47.0282 36.2576M54.4086 38.7242C54.3791 38.6369 54.2939 38.6698 54.2939 38.6698C54.1634 38.7197 54.0241 38.766 53.8758 38.7891C53.7262 38.8126 53.5597 38.8244 53.3844 38.8244C52.9508 38.8244 52.6039 38.6951 52.3573 38.439C52.1087 38.1827 51.97 37.7703 51.9719 37.2115C51.9732 36.7028 52.0962 36.3212 52.3168 36.0283C52.5346 35.7393 52.8699 35.589 53.3131 35.589C53.6831 35.589 53.9663 35.6319 54.2631 35.7248C54.2631 35.7248 54.3334 35.7555 54.3671 35.6628C54.4459 35.445 54.5041 35.2889 54.5887 35.05C54.6126 34.9816 54.554 34.9527 54.5327 34.9444C54.4163 34.8989 54.1415 34.8243 53.9334 34.7929C53.7387 34.7633 53.5133 34.7478 53.2589 34.7478C52.8812 34.7478 52.5459 34.8124 52.2588 34.9403C51.9717 35.0681 51.7289 35.2448 51.5362 35.4645C51.3435 35.6842 51.1971 35.9462 51.0988 36.2449C51.0015 36.5417 50.9523 36.8673 50.9523 37.2123C50.9523 37.9561 51.1527 38.5592 51.5497 39.0005C51.9467 39.4437 52.544 39.6672 53.3225 39.6672C53.7831 39.6672 54.2552 39.5742 54.5943 39.4398C54.5943 39.4398 54.6591 39.4086 54.6309 39.3331L54.4093 38.7242M55.9798 36.7201C56.0228 36.4311 56.102 36.1902 56.2265 36.0033C56.4128 35.7181 56.6967 35.562 57.0955 35.562C57.4944 35.562 57.7584 35.7188 57.9473 36.0033C58.0725 36.1911 58.1272 36.4407 58.1477 36.7201L55.9702 36.7197L55.9798 36.7201ZM59.0052 36.0842C58.9287 35.7971 58.7393 35.5061 58.6159 35.3731C58.4194 35.1631 58.2286 35.0147 58.0378 34.9338C57.7624 34.8167 57.4661 34.7566 57.1668 34.7571C56.7872 34.7571 56.4423 34.8213 56.1629 34.9517C55.8835 35.0831 55.6484 35.262 55.4634 35.4855C55.2786 35.709 55.1397 35.973 55.051 36.2755C54.9624 36.5742 54.9177 36.9018 54.9177 37.2448C54.9177 37.5955 54.9641 37.9212 55.0554 38.216C55.1478 38.5128 55.2963 38.7729 55.4967 38.9887C55.6971 39.2065 55.9534 39.3761 56.2617 39.4955C56.5681 39.614 56.94 39.6755 57.3659 39.6742C58.2446 39.6713 58.7071 39.4757 58.8959 39.3697C58.9296 39.3508 58.9614 39.3183 58.9217 39.2244L58.7233 38.6675C58.6928 38.5845 58.6088 38.6145 58.6088 38.6145C58.391 38.6958 58.0827 38.8419 57.3601 38.84C56.888 38.8392 56.5392 38.6999 56.3195 38.4816C56.096 38.258 55.9843 37.9324 55.9669 37.4699L59.0115 37.4722C59.0115 37.4722 59.0917 37.4714 59.1 37.3932C59.1033 37.3608 59.2042 36.7689 59.0092 36.0848L59.0052 36.0842ZM31.6421 36.7201C31.685 36.4311 31.7644 36.1902 31.8887 36.0033C32.0753 35.7181 32.3589 35.562 32.7578 35.562C33.1567 35.562 33.4207 35.7188 33.6095 36.0033C33.7346 36.1911 33.7893 36.4407 33.8099 36.7201L31.6324 36.7197L31.6421 36.7201ZM34.6674 36.0842C34.5911 35.7971 34.4015 35.5061 34.2782 35.3731C34.0816 35.1631 33.8909 35.0147 33.7001 34.9338C33.4247 34.8167 33.1284 34.7566 32.8291 34.7571C32.4495 34.7571 32.1045 34.8213 31.8251 34.9517C31.5457 35.0831 31.3106 35.262 31.1256 35.4855C30.9412 35.709 30.8019 35.973 30.7133 36.2755C30.6248 36.5742 30.5803 36.9018 30.5803 37.2448C30.5803 37.5955 30.6264 37.9212 30.7183 38.216C30.8104 38.5128 30.9591 38.7729 31.1576 38.9887C31.358 39.2065 31.6143 39.3761 31.9226 39.4955C32.229 39.614 32.599 39.6755 33.0268 39.6742C33.9055 39.6713 34.368 39.4757 34.5568 39.3697C34.5903 39.3508 34.6223 39.3183 34.5824 39.2244L34.384 38.6675C34.3533 38.5845 34.2693 38.6145 34.2693 38.6145C34.0516 38.6958 33.7432 38.8419 33.0206 38.84C32.5504 38.8392 32.1997 38.6999 31.9801 38.4816C31.7565 38.258 31.6448 37.9324 31.6274 37.4699L34.6721 37.4722C34.6721 37.4722 34.7522 37.4714 34.7605 37.3932C34.7638 37.3608 34.8647 36.7689 34.6695 36.0848L34.6674 36.0842ZM25.0711 38.7049C24.9518 38.6097 24.9352 38.5864 24.8957 38.5245C24.8354 38.4315 24.8046 38.2991 24.8046 38.1295C24.8046 37.8636 24.8932 37.6709 25.0763 37.5418C25.0743 37.5422 25.3383 37.3144 25.9588 37.3221C26.235 37.327 26.5105 37.3505 26.7836 37.3924V38.7741H26.784C26.784 38.7741 26.3986 38.8571 25.9631 38.8833C25.3445 38.9205 25.0709 38.7053 25.0728 38.7059L25.0711 38.7049ZM26.2812 36.5659C26.1579 36.5569 25.9979 36.5525 25.8072 36.5525C25.547 36.5525 25.2946 36.5848 25.0595 36.6484C24.8225 36.7124 24.6086 36.8114 24.4255 36.9432C24.242 37.0742 24.091 37.2456 23.9843 37.4443C23.8765 37.6447 23.8216 37.8798 23.8216 38.1457C23.8216 38.4155 23.8684 38.6486 23.9609 38.8394C24.0516 39.0286 24.188 39.1922 24.3579 39.3154C24.5269 39.4383 24.7356 39.5293 24.9765 39.5832C25.2154 39.6377 25.4852 39.6653 25.7819 39.6653C26.0941 39.6653 26.4043 39.6391 26.705 39.5884C26.961 39.5443 27.216 39.4947 27.47 39.4396C27.5713 39.4163 27.6839 39.3857 27.6839 39.3857C27.759 39.3666 27.7532 39.2863 27.7532 39.2863L27.7515 36.5114C27.7515 35.9025 27.5889 35.4496 27.2678 35.1702C26.9479 34.8908 26.4797 34.7502 25.8727 34.7502C25.6453 34.7502 25.2773 34.781 25.0576 34.8251C25.0576 34.8251 24.3947 34.9538 24.1211 35.1681C24.1211 35.1681 24.0609 35.2051 24.0937 35.2889L24.3095 35.867C24.3363 35.942 24.4093 35.9164 24.4093 35.9164C24.4093 35.9164 24.4323 35.9073 24.4593 35.8913C25.0431 35.5734 25.7831 35.583 25.7831 35.583C26.1107 35.583 26.365 35.6495 26.5346 35.7795C26.7005 35.9069 26.7851 36.0994 26.7851 36.5041V36.6326C26.525 36.5949 26.2841 36.5731 26.2841 36.5731L26.2812 36.5659ZM50.7539 34.9993C50.7582 34.9891 50.7605 34.9782 50.7606 34.9671C50.7607 34.9561 50.7585 34.9451 50.7542 34.9349C50.75 34.9247 50.7437 34.9154 50.7358 34.9077C50.7279 34.9 50.7185 34.8939 50.7082 34.8899C50.6563 34.8702 50.3979 34.8157 50.1995 34.8033C49.8179 34.7794 49.606 34.8438 49.4152 34.9294C49.2267 35.0143 49.0182 35.151 48.9026 35.309L48.9022 34.939C48.9022 34.8881 48.8662 34.8471 48.8149 34.8471H48.0364C47.9859 34.8471 47.9493 34.8881 47.9493 34.939V39.4674C47.9494 39.4919 47.9591 39.5153 47.9764 39.5326C47.9937 39.5499 48.0172 39.5596 48.0416 39.5597H48.8394C48.8638 39.5596 48.8873 39.5499 48.9045 39.5326C48.9218 39.5153 48.9315 39.4918 48.9315 39.4674V37.1936C48.9315 36.8891 48.965 36.5866 49.0319 36.3958C49.0978 36.2071 49.1874 36.0566 49.2978 35.9487C49.4032 35.8445 49.5321 35.7672 49.6736 35.7233C49.8064 35.6852 49.9439 35.6658 50.0821 35.6659C50.2411 35.6659 50.4155 35.7067 50.4155 35.7067C50.4741 35.7133 50.5066 35.6774 50.5265 35.6246C50.5787 35.4857 50.7269 35.0696 50.7558 34.9868" fill="#00A1E0"/>
<path fill-rule="evenodd" clip-rule="evenodd" d="M43.3021 32.9086C43.2035 32.8788 43.1031 32.855 43.0017 32.8373C42.8651 32.8145 42.7269 32.8038 42.5885 32.8053C42.0387 32.8053 41.6054 32.9606 41.3011 33.2674C40.9989 33.5719 40.7933 34.0357 40.6902 34.646L40.653 34.852H39.963C39.963 34.852 39.8788 34.8485 39.8611 34.9404L39.7478 35.5725C39.7399 35.633 39.7659 35.6707 39.8468 35.6703H40.5185L39.837 39.4748C39.7836 39.7812 39.7225 40.0332 39.6549 40.2242C39.5882 40.4126 39.5231 40.5539 39.4429 40.6564C39.3652 40.7556 39.2916 40.8287 39.1646 40.8713C39.0598 40.9065 38.9392 40.9227 38.807 40.9227C38.7334 40.9227 38.6355 40.9104 38.5632 40.8959C38.491 40.8817 38.4534 40.8655 38.3993 40.8427C38.3993 40.8427 38.3204 40.8127 38.2894 40.8917C38.2642 40.9562 38.0852 41.4486 38.064 41.5095C38.0424 41.5696 38.0726 41.617 38.1108 41.6307C38.2002 41.6627 38.2667 41.6831 38.3885 41.7118C38.5577 41.7517 38.7002 41.7542 38.8338 41.7542C39.1136 41.7542 39.3685 41.7149 39.5799 41.6386C39.7927 41.5617 39.9778 41.4278 40.1416 41.2464C40.3187 41.0509 40.4301 40.846 40.5367 40.5666C40.6421 40.2897 40.7319 39.9459 40.8037 39.5453L41.4886 35.6703H42.4898C42.4898 35.6703 42.5742 35.6734 42.5918 35.5819L42.7051 34.9498C42.713 34.8893 42.6872 34.8516 42.6058 34.852H41.6341C41.6389 34.83 41.683 34.4881 41.7946 34.1663C41.8422 34.0289 41.9318 33.9181 42.0077 33.842C42.0786 33.7695 42.1659 33.7152 42.2623 33.6836C42.3679 33.651 42.478 33.6351 42.5885 33.6366C42.68 33.6366 42.7698 33.6476 42.8382 33.6619C42.9325 33.6819 42.9691 33.6925 42.9938 33.6998C43.0928 33.7301 43.1061 33.7008 43.1256 33.6528L43.3579 33.0146C43.3818 32.946 43.3237 32.9171 43.3021 32.9086ZM29.7219 39.4829C29.7219 39.5337 29.6856 39.5752 29.6348 39.5752H28.8287C28.7777 39.5752 28.7414 39.5337 28.7414 39.4829V32.9951C28.7414 32.9444 28.7777 32.9034 28.8287 32.9034H29.6348C29.6856 32.9034 29.7219 32.9444 29.7219 32.9951V39.4829Z" fill="#00A1E0"/>
</g>
<defs>
<filter id="filter0_i_291_632" x="-9.06969" y="-9.06969" width="85.0697" height="85.0697" filterUnits="userSpaceOnUse" color-interpolation-filters="sRGB">
<feFlood flood-opacity="0" result="BackgroundImageFix"/>
<feBlend mode="normal" in="SourceGraphic" in2="BackgroundImageFix" result="shape"/>
<feColorMatrix in="SourceAlpha" type="matrix" values="0 0 0 0 0 0 0 0 0 0 0 0 0 0 0 0 0 0 127 0" result="hardAlpha"/>
<feOffset dx="-9.06969" dy="-9.06969"/>
<feGaussianBlur stdDeviation="7.55807"/>
<feComposite in2="hardAlpha" operator="arithmetic" k2="-1" k3="1"/>
<feColorMatrix type="matrix" values="0 0 0 0 0 0 0 0 0 0 0 0 0 0 0 0 0 0 0.3 0"/>
<feBlend mode="normal" in2="shape" result="effect1_innerShadow_291_632"/>
</filter>
<filter id="filter1_f_291_632" x="0.958349" y="6.51922" width="21.1228" height="63.9953" filterUnits="userSpaceOnUse" color-interpolation-filters="sRGB">
<feFlood flood-opacity="0" result="BackgroundImageFix"/>
<feBlend mode="normal" in="SourceGraphic" in2="BackgroundImageFix" result="shape"/>
<feGaussianBlur stdDeviation="3.02323" result="effect1_foregroundBlur_291_632"/>
</filter>
<filter id="filter2_f_291_632" x="9.84838" y="2.43377" width="60.117" height="12.8488" filterUnits="userSpaceOnUse" color-interpolation-filters="sRGB">
<feFlood flood-opacity="0" result="BackgroundImageFix"/>
<feBlend mode="normal" in="SourceGraphic" in2="BackgroundImageFix" result="shape"/>
<feGaussianBlur stdDeviation="3.02323" result="effect1_foregroundBlur_291_632"/>
</filter>
<filter id="filter3_di_291_632" x="7.77899" y="16.6232" width="65.9482" height="50.2217" filterUnits="userSpaceOnUse" color-interpolation-filters="sRGB">
<feFlood flood-opacity="0" result="BackgroundImageFix"/>
<feColorMatrix in="SourceAlpha" type="matrix" values="0 0 0 0 0 0 0 0 0 0 0 0 0 0 0 0 0 0 127 0" result="hardAlpha"/>
<feOffset dx="2.53263" dy="3.37684"/>
<feGaussianBlur stdDeviation="3.37684"/>
<feComposite in2="hardAlpha" operator="out"/>
<feColorMatrix type="matrix" values="0 0 0 0 0.0159073 0 0 0 0 0.321138 0 0 0 0 0.696571 0 0 0 1 0"/>
<feBlend mode="normal" in2="BackgroundImageFix" result="effect1_dropShadow_291_632"/>
<feBlend mode="normal" in="SourceGraphic" in2="effect1_dropShadow_291_632" result="shape"/>
<feColorMatrix in="SourceAlpha" type="matrix" values="0 0 0 0 0 0 0 0 0 0 0 0 0 0 0 0 0 0 127 0" result="hardAlpha"/>
<feOffset dx="-0.844209" dy="-0.844209"/>
<feGaussianBlur stdDeviation="3.37684"/>
<feComposite in2="hardAlpha" operator="arithmetic" k2="-1" k3="1"/>
<feColorMatrix type="matrix" values="0 0 0 0 0.216667 0 0 0 0 0.216667 0 0 0 0 0.216667 0 0 0 0.51 0"/>
<feBlend mode="normal" in2="shape" result="effect2_innerShadow_291_632"/>
</filter>
<linearGradient id="paint0_linear_291_632" x1="7.00481" y1="13.947" x2="11.5636" y2="17.7676" gradientUnits="userSpaceOnUse">
<stop stop-color="white"/>
<stop offset="1" stop-color="white" stop-opacity="0"/>
</linearGradient>
</defs>
</svg>
