<svg width="56" height="53" viewBox="0 0 56 53" fill="none" xmlns="http://www.w3.org/2000/svg">
<g filter="url(#filter0_i_291_762)">
<rect width="55.2725" height="52.5574" rx="6.89447" fill="#00B1EB"/>
<g filter="url(#filter1_f_291_762)">
<path d="M5.64883 10.5106C5.90064 8.582 9.26426 8.59134 11.1861 8.7576C11.6598 8.79858 11.8078 9.41463 11.4411 9.71733C10.5599 10.4447 9.40358 11.5794 9.07896 12.7396C7.41681 18.6802 7.5543 28.2963 7.83117 34.0527C7.98291 37.2075 7.48279 40.3686 6.22233 43.2646L5.64883 44.5823C5.64883 44.5823 4.40155 20.0634 5.64883 10.5106Z" fill="white" fill-opacity="0.3"/>
<path d="M5.64883 10.5106C5.90064 8.582 9.26426 8.59134 11.1861 8.7576C11.6598 8.79858 11.8078 9.41463 11.4411 9.71733C10.5599 10.4447 9.40358 11.5794 9.07896 12.7396C7.41681 18.6802 7.5543 28.2963 7.83117 34.0527C7.98291 37.2075 7.48279 40.3686 6.22233 43.2646L5.64883 44.5823C5.64883 44.5823 4.40155 20.0634 5.64883 10.5106Z" fill="url(#paint0_linear_291_762)"/>
</g>
<g filter="url(#filter2_f_291_762)">
<path d="M11.8349 6.12598L46.2117 6.12597" stroke="white" stroke-width="0.522674" stroke-linecap="round"/>
</g>
<g filter="url(#filter3_d_291_762)">
<path fill-rule="evenodd" clip-rule="evenodd" d="M40.2955 17.2986L34.8095 17.2952V30.6136L30.0173 17.2952H25.2655L21.1737 28.4331C20.738 25.6247 17.8928 24.6549 15.6544 23.9279C14.1763 23.4433 12.6081 22.7304 12.6225 21.9426C12.6348 21.2959 13.4638 20.6952 15.1061 20.7856C16.2102 20.8453 17.1837 20.9363 19.1213 21.8903L21.0271 18.5017C19.2583 17.583 16.8147 17.0022 14.8124 17H14.8008C12.4659 17 10.5198 17.7725 9.31362 19.0456C8.47288 19.9346 8.02001 21.0638 8.00109 22.313C7.97041 24.0315 8.58776 25.2511 9.88475 26.2233C10.98 27.0435 12.3806 27.5748 13.6152 27.9656C15.1383 28.4474 16.3812 28.8661 16.3667 29.7597C16.3555 30.0847 16.2347 30.3878 16.0058 30.6342C15.6264 31.0339 15.043 31.1842 14.2375 31.1996C12.6837 31.2332 11.5311 30.9845 9.69527 29.877L8.00109 33.3134C9.83177 34.3766 11.9995 35 14.2113 35L14.4959 34.9967C16.4213 34.9614 17.9752 34.4011 19.2164 33.3806C19.2876 33.3232 19.3517 33.264 19.4175 33.2043L18.8671 34.7048H23.8506L24.687 32.1076C25.5623 32.4131 26.5583 32.5819 27.6164 32.5819C28.6459 32.5819 29.6159 32.4204 30.4755 32.1331L31.2817 34.7048H39.4089V29.3275H41.1811C45.466 29.3275 48 27.0994 48 23.3661C48 19.2073 45.5378 17.2989 40.2952 17.2989L40.2955 17.2986ZM27.6167 28.6947C26.9765 28.6947 26.3764 28.5805 25.859 28.3808L27.5977 22.7794H27.6307L29.3394 28.3967C28.8257 28.5828 28.2396 28.6947 27.6168 28.6947H27.6167ZM40.6175 25.4763H39.4092V20.9625H40.6175C42.2294 20.9625 43.5147 21.5091 43.5147 23.1895C43.5147 24.9284 42.2294 25.4763 40.6175 25.4763Z" fill="white"/>
</g>
</g>
<defs>
<filter id="filter0_i_291_762" x="-6.27209" y="-6.27209" width="61.5446" height="58.8297" filterUnits="userSpaceOnUse" color-interpolation-filters="sRGB">
<feFlood flood-opacity="0" result="BackgroundImageFix"/>
<feBlend mode="normal" in="SourceGraphic" in2="BackgroundImageFix" result="shape"/>
<feColorMatrix in="SourceAlpha" type="matrix" values="0 0 0 0 0 0 0 0 0 0 0 0 0 0 0 0 0 0 127 0" result="hardAlpha"/>
<feOffset dx="-6.27209" dy="-6.27209"/>
<feGaussianBlur stdDeviation="5.22674"/>
<feComposite in2="hardAlpha" operator="arithmetic" k2="-1" k3="1"/>
<feColorMatrix type="matrix" values="0 0 0 0 0 0 0 0 0 0 0 0 0 0 0 0 0 0 0.3 0"/>
<feBlend mode="normal" in2="shape" result="effect1_innerShadow_291_762"/>
</filter>
<filter id="filter1_f_291_762" x="0.913088" y="4.50806" width="14.9149" height="44.2559" filterUnits="userSpaceOnUse" color-interpolation-filters="sRGB">
<feFlood flood-opacity="0" result="BackgroundImageFix"/>
<feBlend mode="normal" in="SourceGraphic" in2="BackgroundImageFix" result="shape"/>
<feGaussianBlur stdDeviation="2.0907" result="effect1_foregroundBlur_291_762"/>
</filter>
<filter id="filter2_f_291_762" x="7.39218" y="1.68335" width="43.2622" height="8.88525" filterUnits="userSpaceOnUse" color-interpolation-filters="sRGB">
<feFlood flood-opacity="0" result="BackgroundImageFix"/>
<feBlend mode="normal" in="SourceGraphic" in2="BackgroundImageFix" result="shape"/>
<feGaussianBlur stdDeviation="2.0907" result="effect1_foregroundBlur_291_762"/>
</filter>
<filter id="filter3_d_291_762" x="4.54132" y="14.2331" width="51.0678" height="29.0678" filterUnits="userSpaceOnUse" color-interpolation-filters="sRGB">
<feFlood flood-opacity="0" result="BackgroundImageFix"/>
<feColorMatrix in="SourceAlpha" type="matrix" values="0 0 0 0 0 0 0 0 0 0 0 0 0 0 0 0 0 0 127 0" result="hardAlpha"/>
<feOffset dx="2.07521" dy="2.76695"/>
<feGaussianBlur stdDeviation="2.76695"/>
<feComposite in2="hardAlpha" operator="out"/>
<feColorMatrix type="matrix" values="0 0 0 0 0.00392157 0 0 0 0 0.54902 0 0 0 0 0.729412 0 0 0 1 0"/>
<feBlend mode="normal" in2="BackgroundImageFix" result="effect1_dropShadow_291_762"/>
<feBlend mode="normal" in="SourceGraphic" in2="effect1_dropShadow_291_762" result="shape"/>
</filter>
<linearGradient id="paint0_linear_291_762" x1="5.09448" y1="9.64473" x2="8.27107" y2="12.4444" gradientUnits="userSpaceOnUse">
<stop stop-color="white"/>
<stop offset="1" stop-color="white" stop-opacity="0"/>
</linearGradient>
</defs>
</svg>
