<svg width="18" height="18" viewBox="0 0 18 18" fill="none" xmlns="http://www.w3.org/2000/svg">
<path d="M8.14505 3.11662C8.47327 2.45168 9.42146 2.45168 9.74968 3.11662L11.0433 5.73741C11.1736 6.00122 11.4251 6.18416 11.7162 6.22671L14.6106 6.64977C15.3443 6.757 15.6366 7.65875 15.1055 8.17605L13.0126 10.2146C12.8015 10.4202 12.7052 10.7164 12.755 11.0068L13.2487 13.8857C13.3741 14.6166 12.6068 15.174 11.9504 14.8288L9.36382 13.4686C9.10311 13.3314 8.79162 13.3314 8.53091 13.4686L5.9443 14.8288C5.2879 15.174 4.52061 14.6166 4.64598 13.8857L5.13974 11.0068C5.18954 10.7164 5.09321 10.4202 4.88217 10.2146L2.7892 8.17605C2.25809 7.65875 2.55048 6.757 3.28408 6.64977L6.17848 6.22671C6.46959 6.18416 6.72118 6.00123 6.8514 5.73741L8.14505 3.11662Z" fill="#FFB800"/>
</svg>
