<svg width="40" height="34" viewBox="0 0 40 34" fill="none" xmlns="http://www.w3.org/2000/svg">
<mask id="mask0_291_546" style="mask-type:luminance" maskUnits="userSpaceOnUse" x="0" y="33" width="40" height="1">
<path d="M0 33.0332H39.294V34H0V33.0332Z" fill="white"/>
</mask>
<g mask="url(#mask0_291_546)">
<path d="M0.444418 33.1187C0.202849 33.1187 0.00631714 33.3142 0.00631714 33.5573C0.00631714 33.7993 0.202849 33.9949 0.444418 33.9949H5.2579C5.25893 33.9959 5.25995 33.9949 5.26046 33.9949H27.447V33.9959C27.4475 33.9959 27.4475 33.9949 27.4485 33.9949H38.8284C39.0705 33.9949 39.2665 33.7993 39.2665 33.5573C39.2665 33.3142 39.0705 33.1187 38.8284 33.1187H0.444418Z" fill="white"/>
</g>
<path d="M24.2182 20.3262C23.7581 18.2371 21.7851 18.4853 21.7012 18.4971C21.6812 18.4996 21.6612 18.5017 21.6403 18.5017H5.29029C4.01693 18.5017 3.43859 19.5785 3.42477 20.6589L5.62808 32.2123H26.9C26.4241 30.1149 24.6896 22.4717 24.2182 20.3262ZM14.3548 27.3046C13.1295 27.3046 12.1331 26.3066 12.1331 25.0803C12.1331 23.853 13.1295 22.855 14.3548 22.855C15.5795 22.855 16.576 23.853 16.576 25.0803C16.576 26.3066 15.5795 27.3046 14.3548 27.3046ZM15.6998 25.0803C15.6998 25.823 15.0964 26.4274 14.3548 26.4274C13.6127 26.4274 13.0093 25.823 13.0093 25.0803C13.0093 24.3372 13.6127 23.7328 14.3548 23.7328C15.0964 23.7328 15.6998 24.3372 15.6998 25.0803Z" fill="white"/>
<mask id="mask1_291_546" style="mask-type:luminance" maskUnits="userSpaceOnUse" x="14" y="0" width="22" height="33">
<path d="M14.4135 0H35.9009V32.247H14.4135V0Z" fill="white"/>
</mask>
<g mask="url(#mask1_291_546)">
<path d="M35.5457 31.1861C35.5303 31.2143 35.515 31.2414 35.4986 31.2675C35.1403 31.8505 34.4735 32.2123 33.7564 32.2123H29.4348C28.4327 32.2123 27.5846 31.4779 27.4188 30.4666C27.2335 29.3288 27.9879 28.2494 29.1021 28.0606L30.3939 27.8415L31.5772 27.6522C31.8157 27.6138 31.979 27.3891 31.9406 27.1496C31.9027 26.9106 31.6785 26.7473 31.4395 26.7862L30.6012 26.9198L28.7346 22.1298C28.6471 21.9041 28.3928 21.7931 28.1676 21.8806C27.9419 21.9686 27.8308 22.2235 27.9183 22.4492L29.7178 27.0662L28.9557 27.1951C28.1016 27.34 27.3953 27.8502 26.9664 28.5432C26.2749 25.4893 25.3895 21.575 25.0737 20.1369C24.5732 17.8635 22.6099 17.4991 21.6124 17.6239H15.2722C18.7694 16.1131 24.0409 16.5282 24.1018 16.5338C24.1136 16.5348 24.1254 16.5348 24.1377 16.5348C27.2207 16.5348 30.0935 18.0636 31.8234 20.6246C32.5537 21.7629 33.1991 22.9677 33.7401 24.2067L35.6736 28.6307C35.9787 29.3344 35.8589 30.6232 35.5457 31.1861ZM22.3223 -0.00195312C18.0273 -0.00195312 14.5337 3.49774 14.5337 7.79789C14.5337 12.0279 17.9142 15.4821 22.1114 15.5947C22.2553 15.5936 22.3934 15.5936 22.526 15.5957C26.7274 15.4867 30.1109 12.0305 30.1109 7.79789C30.1109 3.49774 26.6168 -0.00195312 22.3223 -0.00195312Z" fill="white"/>
</g>
</svg>
