<svg width="19" height="15" viewBox="0 0 19 15" fill="none" xmlns="http://www.w3.org/2000/svg">
<path d="M3.846 11.1538H11.1538V10.7963C11.1538 10.1654 10.8143 9.65067 10.1355 9.252C9.45667 8.85317 8.57817 8.65375 7.5 8.65375C6.42167 8.65375 5.54308 8.85317 4.86425 9.252C4.18542 9.65067 3.846 10.1654 3.846 10.7963V11.1538ZM7.5 7.34625C7.98583 7.34625 8.39892 7.176 8.73925 6.8355C9.07975 6.49517 9.25 6.08208 9.25 5.59625C9.25 5.11025 9.07975 4.69708 8.73925 4.35675C8.39892 4.01642 7.98583 3.84625 7.5 3.84625C7.014 3.84625 6.60083 4.01642 6.2605 4.35675C5.92017 4.69708 5.75 5.11025 5.75 5.59625C5.75 6.08208 5.92017 6.49517 6.2605 6.8355C6.60083 7.176 7.014 7.34625 7.5 7.34625ZM1.8075 15C1.3025 15 0.875 14.825 0.525 14.475C0.175 14.125 0 13.6974 0 13.1923V1.80775C0 1.30258 0.175 0.875 0.525 0.525C0.875 0.175 1.3025 0 1.8075 0H13.1923C13.6973 0 14.1248 0.175 14.4747 0.525C14.8247 0.875 14.9998 1.30258 14.9998 1.80775V6.38475L17.746 3.6385C17.8935 3.491 18.0592 3.45417 18.243 3.528C18.427 3.60167 18.519 3.74233 18.519 3.95V11.05C18.519 11.2577 18.427 11.3983 18.243 11.472C18.0592 11.5458 17.8935 11.509 17.746 11.3615L14.9998 8.61525V13.1923C14.9998 13.6974 14.8247 14.125 14.4747 14.475C14.1248 14.825 13.6973 15 13.1923 15H1.8075Z" fill="#059669"/>
</svg>
