<svg width="22" height="22" viewBox="0 0 22 22" fill="none" xmlns="http://www.w3.org/2000/svg">
<path d="M18.7014 3.19833C17.693 2.18013 16.4919 1.37294 15.1682 0.82383C13.8445 0.274721 12.4248 -0.00530863 10.9917 7.62094e-05C4.98712 7.62094e-05 0.0935 4.89233 0.088 10.8983C0.088 12.822 0.59125 14.6933 1.54138 16.3502L0 22.0001L5.7805 20.4848C7.37892 21.3569 9.17091 21.8132 10.9917 21.8117H10.9973C17.0033 21.8117 21.8955 16.9195 21.901 10.908C21.9022 9.47528 21.62 8.05653 21.0707 6.73337C20.5213 5.41022 19.717 4.20881 18.7014 3.19833ZM10.9917 19.9665C9.36812 19.9652 7.77456 19.5283 6.37725 18.7015L6.04725 18.5035L2.618 19.4027L3.53375 16.0573L3.31925 15.7122C2.41148 14.2689 1.93139 12.5979 1.93462 10.8928C1.93462 5.90708 6.0005 1.83983 10.9973 1.83983C12.1876 1.83769 13.3667 2.0712 14.4664 2.5269C15.5661 2.9826 16.5648 3.65147 17.4048 4.49495C18.2475 5.33528 18.9156 6.33407 19.3706 7.43378C19.8256 8.53348 20.0584 9.71235 20.0557 10.9025C20.0503 15.9061 15.9844 19.9665 10.9917 19.9665ZM15.9624 13.1822C15.6915 13.0461 14.3536 12.3875 14.102 12.294C13.8517 12.2046 13.6689 12.1578 13.4901 12.4301C13.3073 12.701 12.7847 13.3183 12.628 13.4957C12.4712 13.6786 12.309 13.6992 12.0367 13.5645C11.7659 13.427 10.8872 13.141 9.84775 12.2101C9.0365 11.4882 8.49337 10.5945 8.33113 10.3236C8.17437 10.0513 8.316 9.90558 8.45212 9.76945C8.57175 9.64845 8.723 9.45045 8.85913 9.2937C8.99662 9.13695 9.042 9.02145 9.13137 8.83995C9.22075 8.6557 9.17812 8.49895 9.11075 8.36283C9.042 8.2267 8.49887 6.88333 8.26925 6.34158C8.04925 5.8067 7.82512 5.88095 7.65737 5.87408C7.50062 5.86445 7.31775 5.86445 7.13488 5.86445C6.99679 5.86797 6.86092 5.89994 6.73576 5.95838C6.6106 6.01682 6.49885 6.10046 6.4075 6.20408C6.15725 6.47633 5.45738 7.13495 5.45738 8.47833C5.45738 9.8217 6.43362 11.1128 6.57112 11.2957C6.70587 11.4786 8.48787 14.2272 11.2227 15.4097C11.869 15.6916 12.3778 15.858 12.7751 15.9845C13.4283 16.1935 14.0181 16.1618 14.4884 16.0945C15.0109 16.0147 16.0985 15.4345 16.3281 14.7978C16.5536 14.1598 16.5536 13.6153 16.4849 13.5012C16.4175 13.3857 16.2346 13.3183 15.9624 13.1822Z" fill="white"/>
</svg>
