<svg width="24" height="24" viewBox="0 0 24 24" fill="none" xmlns="http://www.w3.org/2000/svg">
<path d="M12.0068 2C6.48214 2 2.00391 6.47823 2.00391 12.0029C2.00391 14.0959 2.68103 16.158 3.89677 17.8508L2.65025 21.575L6.49753 20.3438C11.0989 23.3909 17.3161 22.1136 20.3477 17.4968C23.3794 12.8801 22.1175 6.67829 17.5008 3.64664C15.8849 2.58479 13.9613 2 12.0068 2ZM17.3315 16.158L16.2542 17.2045C15.1308 18.3279 12.1607 17.1121 9.52919 14.4498C6.89765 11.7875 5.72807 8.84816 6.78992 7.75553L7.86716 6.67829C8.29806 6.27818 8.9444 6.27818 9.39069 6.67829L10.9604 8.24798C11.3913 8.6481 11.3913 9.29444 10.9912 9.72534C10.868 9.84845 10.7449 9.9254 10.5603 9.97157C10.037 10.1408 9.72925 10.6641 9.88314 11.2027C10.1601 12.3723 11.6837 13.8342 12.8071 14.1266C13.3303 14.219 13.8535 13.9573 14.0382 13.4495C14.2075 12.8955 14.8077 12.6031 15.3617 12.7724C15.5309 12.8186 15.6541 12.9263 15.7926 13.0494L17.3623 14.6191C17.7008 15.05 17.7008 15.7271 17.3315 16.158Z" fill="white"/>
</svg>
