<svg width="15" height="12" viewBox="0 0 15 12" fill="none" xmlns="http://www.w3.org/2000/svg">
<path d="M6.4 2.4C6.4 3.7246 5.3246 4.8 4 4.8C2.6754 4.8 1.6 3.7246 1.6 2.4C1.6 1.0754 2.6754 0 4 0C5.3246 0 6.4 1.0754 6.4 2.4ZM12.8 2.4C12.8 3.7246 11.7246 4.8 10.4 4.8C9.0754 4.8 8 3.7246 8 2.4C8 1.0754 9.0754 0 10.4 0C11.7246 0 12.8 1.0754 12.8 2.4ZM9.544 11.2C9.5808 10.9384 9.6 10.672 9.6 10.4C9.60185 9.14309 9.17899 7.92242 8.4 6.936C9.63759 6.22148 11.1624 6.22147 12.4 6.93597C13.6376 7.65048 14.4 8.97096 14.4 10.4V11.2H9.544ZM4 6.4C6.20766 6.4 8 8.19234 8 10.4V11.2H0V10.4C0 8.19234 1.79234 6.4 4 6.4Z" fill="#8B79FD"/>
</svg>
