<svg width="162" height="28" viewBox="0 0 162 28" fill="none" xmlns="http://www.w3.org/2000/svg">
<path d="M5.44954 27.7368L3.46829 17.4912L12.8253 27.7368H5.44954Z" fill="#642BB8"/>
<path d="M3.46833 17.4912L0 22.614L5.44957 27.7368L3.46833 17.4912Z" fill="#7635D6"/>
<path d="M7.89437 22.3362L8.95461 15.3046L3.34439 17.4912L7.89437 22.3362Z" fill="#5723A3"/>
<path d="M7.89444 22.3361L12.8254 27.7366H19.7575L7.89444 22.3361Z" fill="#5723A3"/>
<path d="M7.89444 22.3361L8.95468 15.3046L19.7575 27.7367L7.89444 22.3361Z" fill="#3A1078"/>
<path d="M8.95472 15.3046L9.88795 7.91922L5.0993 16.8068L8.95472 15.3046Z" fill="#3A1078"/>
<path d="M9.88788 7.91922L17.6171 9.85288L8.95465 15.3046L9.88788 7.91922Z" fill="#642BB8"/>
<path d="M17.6171 9.85281L18.5824 17.4912L8.95465 15.3045L17.6171 9.85281Z" fill="#5723A3"/>
<path d="M18.5824 17.4912L15.749 23.1245L8.95465 15.3046L18.5824 17.4912Z" fill="#642BB8"/>
<path d="M18.5824 17.4912L19.7573 27.7368L15.7489 23.1246L18.5824 17.4912Z" fill="#3A1078"/>
<path d="M17.617 9.85281L24.9148 11.8904L18.5824 17.4912L17.617 9.85281Z" fill="#3A1078"/>
<path d="M24.9147 11.8905L32.3073 16.3553L18.5823 17.4912L24.9147 11.8905Z" fill="#7635D6"/>
<path d="M32.3072 16.3552L31.3678 21.7899L25.626 16.9077L32.3072 16.3552Z" fill="#5723A3"/>
<path d="M25.6261 16.9076L18.5823 17.4912L19.2066 22.9383L25.6261 16.9076Z" fill="#5723A3"/>
<path d="M25.6261 16.9076L31.3679 21.7899L19.2066 22.9383L25.6261 16.9076Z" fill="#3A1078"/>
<path d="M31.3679 21.7899L32.3073 16.3552L36.4381 20.7936L31.3679 21.7899Z" fill="#7635D6"/>
<path d="M31.3679 21.7898L35.849 27.2323L36.4381 20.7935L31.3679 21.7898Z" fill="#7635D6"/>
<path d="M19.6258 3.60031L19.6105 3.64697L19.5385 3.65785L19.5554 3.60497L19.6258 3.60031Z" fill="#5723A3"/>
<path d="M39.839 18.5434L39.7809 18.6678L39.7579 18.5978L39.839 18.5434Z" fill="#3A1078"/>
<path d="M5.44961 27.7369C2.66516 27.7369 0.114789 25.4214 0.00616455 22.6157L5.44961 27.7369Z" fill="#5723A3"/>
<path d="M3.46828 17.4929L0.00454712 22.6063C0.00454712 22.5489 0.00454712 22.49 0.00454712 22.431C0.00497339 21.3449 0.338691 20.286 0.959378 19.4011C1.58007 18.5163 2.45694 17.8493 3.46828 17.4929Z" fill="#642BB8"/>
<path d="M9.88781 7.91922L5.09914 16.8068C4.86362 16.0983 4.74373 15.3555 4.7442 14.6078C4.74429 13.071 5.25043 11.5782 6.18227 10.3665C7.11415 9.15471 8.41831 8.29339 9.88781 7.91922Z" fill="#642BB8"/>
<path d="M17.5879 9.81879L17.5588 9.83896L9.88782 7.91931C10.4283 7.78245 10.9831 7.71313 11.5401 7.71291C12.3815 7.71171 13.2158 7.86959 14.0003 8.17845C14.2107 7.58073 14.5021 7.01559 14.8662 6.49931L17.5879 9.81879Z" fill="#7635D6"/>
<path d="M20.0893 1.99875L18.1876 8.12712L18.1386 8.16123L15.423 4.84179C15.9654 4.06702 16.6599 3.41447 17.463 2.92519C18.266 2.43591 19.1602 2.12048 20.0893 1.99875Z" fill="#3A1078"/>
<path d="M28.0862 1.47119L21.1266 6.18423L23.0987 0.0465681C23.3618 0.0160997 23.6263 0.000553895 23.8912 8.82117e-06C25.4129 -0.00246603 26.8909 0.51588 28.0862 1.47119Z" fill="#5723A3"/>
<path d="M26.1922 6.88268L24.9086 11.8906L17.539 9.85143L17.5589 9.83743L17.617 9.85143L24.6026 5.07938C25.2325 5.58144 25.7705 6.19183 26.1922 6.88268Z" fill="#642BB8"/>
<path d="M17.5899 9.81863L17.5604 9.83886L17.6178 9.85286L17.5899 9.81863Z" fill="#642BB8"/>
<path d="M17.5895 9.81882L17.6174 9.85305L17.6391 9.78613L17.5895 9.81882Z" fill="#642BB8"/>
<path d="M34.1753 15.3048L26.7827 10.8416L28.0617 5.83524C28.3538 6.31541 28.5861 6.83038 28.7533 7.36849C29.316 6.99541 29.9455 6.73809 30.606 6.61118L34.1753 15.3048Z" fill="#3A1078"/>
<path d="M35.8857 27.2322C35.0746 27.5658 34.2076 27.7371 33.3323 27.7366H28.1566L31.3694 21.7898L35.8536 27.1919L35.8398 27.2214V27.2322H35.8506L35.8704 27.2229L35.8857 27.2322Z" fill="#5723A3"/>
<path d="M31.3679 21.7898L28.1566 27.7366H24.9866L19.2066 22.9382L31.3679 21.7898Z" fill="#7635D6"/>
<path d="M24.9866 27.7369H19.7574L19.2066 22.9385L24.9866 27.7369Z" fill="#5723A3"/>
<path d="M41.8906 15.9129L38.5707 18.112L34.4399 13.672L41.2557 14.555C41.5168 14.9822 41.7297 15.4376 41.8906 15.9129Z" fill="#642BB8"/>
<path d="M39.7809 18.6676V18.6692L35.8521 27.1921L36.438 20.7937L39.758 18.5978L39.7809 18.6676Z" fill="#3A1078"/>
<path d="M44.9612 13.1429L38.1653 12.2956L40.7784 10.0811C42.5148 10.5053 44.0171 11.6051 44.9612 13.1429Z" fill="#5723A3"/>
<path d="M37.2305 8.92029L34.6174 11.1348L31.1185 2.42722C31.414 2.3748 31.7135 2.34832 32.0135 2.34808C32.7982 2.34913 33.5723 2.53181 34.2768 2.88218C34.9814 3.23255 35.5979 3.74139 36.0793 4.36995C36.5607 4.9985 36.8944 5.73023 37.0549 6.50932C37.2154 7.28846 37.1986 8.09446 37.0056 8.86594C37.0821 8.88149 37.1555 8.89857 37.2305 8.92029Z" fill="#642BB8"/>
<path d="M43.3441 18.6971C43.3435 19.9749 42.9927 21.2273 42.3307 22.3145C41.6689 23.4016 40.7219 24.2807 39.5958 24.8534L39.0818 25.0676L39.071 25.0551L42.9907 16.5198C43.223 17.2216 43.3424 17.9568 43.3441 18.6971Z" fill="#5723A3"/>
<path d="M57.8166 6.55193C59.5858 6.55193 61.0533 7.01525 62.2193 7.94188C63.3854 8.86852 64.156 10.129 64.5313 11.7234H61.5559C61.2477 10.9466 60.7652 10.3334 60.1084 9.88373C59.4651 9.43404 58.6878 9.20919 57.7764 9.20919C57.0259 9.20919 56.349 9.39997 55.7459 9.78153C55.1428 10.1631 54.6737 10.7082 54.3387 11.4168C54.0036 12.1254 53.8361 12.9566 53.8361 13.9105C53.8361 14.8508 54.0036 15.6752 54.3387 16.3838C54.6737 17.0924 55.1428 17.6375 55.7459 18.019C56.349 18.4006 57.0259 18.5914 57.7764 18.5914C58.6878 18.5914 59.4651 18.3665 60.1084 17.9168C60.7652 17.4671 61.2477 16.8539 61.5559 16.0772H64.5313C64.156 17.6715 63.3854 18.932 62.2193 19.8587C61.0533 20.7853 59.5858 21.2486 57.8166 21.2486C56.463 21.2486 55.2634 20.942 54.218 20.3288C53.1861 19.702 52.3819 18.8298 51.8056 17.7124C51.2427 16.595 50.9612 15.3277 50.9612 13.9105C50.9612 12.4797 51.2427 11.2055 51.8056 10.0881C52.3819 8.97072 53.1861 8.10541 54.218 7.49219C55.25 6.86535 56.4496 6.55193 57.8166 6.55193Z" fill="#5723A3"/>
<path d="M69.4929 6V21.1259H66.6583V6H69.4929Z" fill="#5723A3"/>
<path d="M77.2033 9.65892C78.2889 9.65892 79.2605 9.89058 80.1183 10.3539C80.9895 10.8172 81.673 11.4917 82.1689 12.3775C82.6648 13.2496 82.9127 14.2785 82.9127 15.464C82.9127 16.6496 82.6648 17.6784 82.1689 18.5505C81.673 19.4226 80.9895 20.0972 80.1183 20.5741C79.2605 21.0374 78.2889 21.2691 77.2033 21.2691C76.1177 21.2691 75.1393 21.0374 74.2681 20.5741C73.4103 20.0972 72.7335 19.4226 72.2376 18.5505C71.7417 17.6784 71.4938 16.6496 71.4938 15.464C71.4938 14.2785 71.7417 13.2496 72.2376 12.3775C72.7335 11.4917 73.4103 10.8172 74.2681 10.3539C75.1393 9.89058 76.1177 9.65892 77.2033 9.65892ZM77.2033 12.1527C76.4125 12.1527 75.7424 12.4388 75.1929 13.0112C74.6434 13.5699 74.3686 14.3875 74.3686 15.464C74.3686 16.5405 74.6434 17.365 75.1929 17.9373C75.7424 18.496 76.4125 18.7754 77.2033 18.7754C77.994 18.7754 78.6641 18.496 79.2136 17.9373C79.7631 17.365 80.0379 16.5405 80.0379 15.464C80.0379 14.3875 79.7631 13.5699 79.2136 13.0112C78.6641 12.4388 77.994 12.1527 77.2033 12.1527Z" fill="#5723A3"/>
<path d="M95.5715 9.80198V21.126H92.7369V18.8367C92.4421 19.5998 91.9529 20.1994 91.2693 20.6354C90.5992 21.0579 89.8219 21.2691 88.9373 21.2691C87.6507 21.2691 86.6254 20.8398 85.8614 19.9813C85.0975 19.1228 84.7155 17.9237 84.7155 16.3838V9.80198H87.53V16.0568C87.53 16.9561 87.7579 17.6579 88.2136 18.1621C88.6693 18.6527 89.2858 18.898 90.0631 18.898C90.8807 18.898 91.5307 18.6323 92.0132 18.1008C92.4957 17.5694 92.7369 16.8062 92.7369 15.8115V9.80198H95.5715Z" fill="#5723A3"/>
<path d="M102.511 9.65884C103.449 9.65884 104.247 9.88369 104.904 10.3334C105.574 10.7831 106.056 11.3895 106.351 12.1526V6H109.166V21.1259H106.351V18.7548C106.056 19.518 105.574 20.1312 104.904 20.5945C104.247 21.0442 103.449 21.269 102.511 21.269C101.573 21.269 100.729 21.0374 99.9782 20.574C99.2276 20.1107 98.6379 19.443 98.209 18.5709C97.7936 17.6851 97.5858 16.6495 97.5858 15.4639C97.5858 14.2784 97.7936 13.2495 98.209 12.3774C98.6379 11.4917 99.2276 10.8171 99.9782 10.3538C100.729 9.8905 101.573 9.65884 102.511 9.65884ZM103.396 12.173C102.511 12.173 101.801 12.466 101.265 13.052C100.729 13.6379 100.461 14.4419 100.461 15.4639C100.461 16.486 100.729 17.2899 101.265 17.8759C101.801 18.4482 102.511 18.7344 103.396 18.7344C104.254 18.7344 104.957 18.4414 105.507 17.8555C106.07 17.2559 106.351 16.4587 106.351 15.4639C106.351 14.4555 106.07 13.6584 105.507 13.0724C104.957 12.4728 104.254 12.173 103.396 12.173Z" fill="#5723A3"/>
<path d="M116.021 8.98432V12.7249H121.047V14.9325H116.021V18.8162H121.65V21.126H113.186V6.69499H121.65V8.98432H116.021Z" fill="#100530"/>
<path d="M141.702 9.65892C142.64 9.65892 143.444 9.88377 144.114 10.3335C144.784 10.7831 145.26 11.3895 145.541 12.1527V9.802H148.356V21.1669C148.356 22.2162 148.148 23.1564 147.733 23.9877C147.331 24.8326 146.721 25.4935 145.903 25.9704C145.099 26.4473 144.121 26.6858 142.968 26.6858C141.36 26.6858 140.06 26.2975 139.068 25.5207C138.076 24.744 137.473 23.6879 137.259 22.3524H140.053C140.214 22.9248 140.522 23.3677 140.978 23.6811C141.447 24.0081 142.043 24.1716 142.767 24.1716C143.598 24.1716 144.268 23.9195 144.777 23.4153C145.287 22.9248 145.541 22.1753 145.541 21.1669V18.7549C145.26 19.518 144.784 20.1312 144.114 20.5946C143.444 21.0443 142.64 21.2691 141.702 21.2691C140.763 21.2691 139.919 21.0374 139.169 20.5741C138.418 20.1108 137.828 19.4431 137.399 18.571C136.984 17.6852 136.776 16.6496 136.776 15.464C136.776 14.2785 136.984 13.2496 137.399 12.3775C137.828 11.4917 138.418 10.8172 139.169 10.3539C139.919 9.89058 140.763 9.65892 141.702 9.65892ZM142.586 12.1731C141.702 12.1731 140.991 12.4661 140.455 13.052C139.919 13.638 139.651 14.442 139.651 15.464C139.651 16.486 139.919 17.29 140.455 17.876C140.991 18.4483 141.702 18.7345 142.586 18.7345C143.444 18.7345 144.148 18.4415 144.697 17.8555C145.26 17.256 145.541 16.4588 145.541 15.464C145.541 14.4556 145.26 13.6584 144.697 13.0725C144.148 12.4729 143.444 12.1731 142.586 12.1731Z" fill="#100530"/>
<path d="M128.111 9.65884C129.05 9.65884 129.847 9.88369 130.504 10.3334C131.174 10.7831 131.656 11.3895 131.951 12.1526V6H134.766V21.1259H131.951V18.7548C131.656 19.518 131.174 20.1312 130.504 20.5945C129.847 21.0442 129.05 21.269 128.111 21.269C127.173 21.269 126.329 21.0374 125.578 20.574C124.828 20.1107 124.238 19.443 123.809 18.5709C123.394 17.6851 123.186 16.6495 123.186 15.4639C123.186 14.2784 123.394 13.2495 123.809 12.3774C124.238 11.4917 124.828 10.8171 125.578 10.3538C126.329 9.8905 127.173 9.65884 128.111 9.65884ZM128.996 12.173C128.111 12.173 127.401 12.466 126.865 13.052C126.329 13.6379 126.061 14.4419 126.061 15.4639C126.061 16.486 126.329 17.2899 126.865 17.8759C127.401 18.4482 128.111 18.7344 128.996 18.7344C129.854 18.7344 130.557 18.4414 131.107 17.8555C131.67 17.2559 131.951 16.4587 131.951 15.4639C131.951 14.4555 131.67 13.6584 131.107 13.0724C130.557 12.4728 129.854 12.173 128.996 12.173Z" fill="#100530"/>
<path d="M161.394 15.0348C161.394 15.3209 161.36 15.648 161.293 16.0159H153.131C153.171 17.0243 153.439 17.767 153.935 18.2439C154.431 18.7209 155.048 18.9593 155.785 18.9593C156.442 18.9593 156.984 18.7958 157.413 18.4688C157.856 18.1417 158.137 17.6988 158.258 17.1401H161.253C161.106 17.9305 160.791 18.6391 160.308 19.2659C159.826 19.8928 159.202 20.3833 158.439 20.7376C157.688 21.092 156.85 21.2691 155.926 21.2691C154.84 21.2691 153.875 21.0374 153.031 20.5741C152.186 20.0972 151.53 19.4226 151.06 18.5505C150.591 17.6784 150.357 16.6496 150.357 15.464C150.357 14.2785 150.591 13.2496 151.06 12.3775C151.53 11.4917 152.186 10.8172 153.031 10.3539C153.875 9.89058 154.84 9.65892 155.926 9.65892C157.025 9.65892 157.983 9.89058 158.8 10.3539C159.631 10.8172 160.268 11.4577 160.71 12.2753C161.166 13.0793 161.394 13.9991 161.394 15.0348ZM158.539 14.7486C158.579 13.822 158.338 13.1202 157.815 12.6432C157.306 12.1663 156.676 11.9278 155.926 11.9278C155.162 11.9278 154.518 12.1663 153.996 12.6432C153.473 13.1202 153.185 13.822 153.131 14.7486H158.539Z" fill="#100530"/>
</svg>
