<svg width="222" height="38" viewBox="0 0 222 38" fill="none" xmlns="http://www.w3.org/2000/svg">
<path d="M7.46591 37.9994L4.75157 23.9629L17.5707 37.9994H7.46591Z" fill="#642BB8"/>
<path d="M4.75166 23.9629L0 30.9812L7.46599 37.9994L4.75166 23.9629Z" fill="#7635D6"/>
<path d="M10.8154 30.6012L12.2679 20.9678L4.58182 23.9635L10.8154 30.6012Z" fill="#5723A3"/>
<path d="M10.8155 30.6006L17.5709 37.9994H27.068L10.8155 30.6006Z" fill="#5723A3"/>
<path d="M10.8155 30.6012L12.268 20.9678L27.068 38L10.8155 30.6012Z" fill="#3A1078"/>
<path d="M12.2682 20.9677L13.5467 10.8496L6.98621 23.0257L12.2682 20.9677Z" fill="#3A1078"/>
<path d="M13.5464 10.8496L24.1355 13.4987L12.2679 20.9677L13.5464 10.8496Z" fill="#642BB8"/>
<path d="M24.1355 13.499L25.4581 23.9637L12.2679 20.968L24.1355 13.499Z" fill="#5723A3"/>
<path d="M25.4581 23.9635L21.5763 31.6812L12.2679 20.9678L25.4581 23.9635Z" fill="#642BB8"/>
<path d="M25.4581 23.9629L27.0678 37.9994L21.5762 31.6807L25.4581 23.9629Z" fill="#3A1078"/>
<path d="M24.1356 13.499L34.1336 16.2906L25.4582 23.9637L24.1356 13.499Z" fill="#3A1078"/>
<path d="M34.1334 16.29L44.2613 22.4069L25.458 23.9631L34.1334 16.29Z" fill="#7635D6"/>
<path d="M44.2612 22.4062L42.9743 29.8518L35.108 23.1632L44.2612 22.4062Z" fill="#5723A3"/>
<path d="M35.108 23.1641L25.458 23.9635L26.3132 31.4261L35.108 23.1641Z" fill="#5723A3"/>
<path d="M35.1082 23.1641L42.9746 29.8528L26.3134 31.4261L35.1082 23.1641Z" fill="#3A1078"/>
<path d="M42.9745 29.8518L44.2615 22.4062L49.9207 28.4869L42.9745 29.8518Z" fill="#7635D6"/>
<path d="M42.9745 29.8522L49.1137 37.3085L49.9207 28.4873L42.9745 29.8522Z" fill="#7635D6"/>
<path d="M26.8876 4.93262L26.8667 4.99654L26.7681 5.01145L26.7912 4.93901L26.8876 4.93262Z" fill="#5723A3"/>
<path d="M54.5801 25.4053L54.5004 25.5757L54.4689 25.4799L54.5801 25.4053Z" fill="#3A1078"/>
<path d="M7.46597 37.9995C3.65123 37.9995 0.157178 34.8273 0.00836182 30.9834L7.46597 37.9995Z" fill="#5723A3"/>
<path d="M4.75156 23.9648L0.00619507 30.9703C0.00619507 30.8917 0.00619507 30.8109 0.00619507 30.7301C0.00677906 29.2422 0.463977 27.7915 1.31433 26.5791C2.16468 25.3669 3.36601 24.4531 4.75156 23.9648Z" fill="#642BB8"/>
<path d="M13.5464 10.8496L6.98582 23.0257C6.66315 22.0551 6.4989 21.0374 6.49954 20.013C6.49967 17.9076 7.19309 15.8625 8.46972 14.2024C9.7464 12.5422 11.5331 11.3622 13.5464 10.8496Z" fill="#642BB8"/>
<path d="M24.0956 13.452L24.0558 13.4797L13.5464 10.8497C14.2869 10.6622 15.047 10.5673 15.8102 10.5669C16.9629 10.5653 18.1059 10.7816 19.1805 11.2047C19.4688 10.3859 19.8681 9.61162 20.3668 8.9043L24.0956 13.452Z" fill="#7635D6"/>
<path d="M27.5227 2.73828L24.9173 11.1342L24.8503 11.181L21.1299 6.63329C21.8729 5.57184 22.8244 4.67784 23.9246 4.00752C25.0248 3.3372 26.2499 2.90506 27.5227 2.73828Z" fill="#3A1078"/>
<path d="M38.4785 2.01556L28.9437 8.47248L31.6455 0.0637989C32.006 0.0220568 32.3684 0.000758844 32.7312 1.20851e-05C34.816 -0.00337849 36.8409 0.706763 38.4785 2.01556Z" fill="#5723A3"/>
<path d="M35.8836 9.42954L34.125 16.2904L24.0286 13.4968L24.0559 13.4776L24.1355 13.4968L33.7059 6.95898C34.5688 7.64683 35.3059 8.48306 35.8836 9.42954Z" fill="#642BB8"/>
<path d="M24.0984 13.4521L24.058 13.4799L24.1366 13.499L24.0984 13.4521Z" fill="#642BB8"/>
<path d="M24.0978 13.452L24.1361 13.4989L24.1658 13.4072L24.0978 13.452Z" fill="#642BB8"/>
<path d="M46.8206 20.9686L36.6927 14.8539L38.4449 7.99512C38.8451 8.65296 39.1633 9.35848 39.3924 10.0957C40.1633 9.58457 41.0257 9.23204 41.9307 9.05817L46.8206 20.9686Z" fill="#3A1078"/>
<path d="M49.164 37.3078C48.0527 37.7648 46.8648 37.9995 45.6658 37.9988H38.575L42.9766 29.8516L49.1199 37.2525L49.1011 37.2929V37.3078H49.1158L49.143 37.295L49.164 37.3078Z" fill="#5723A3"/>
<path d="M42.9746 29.8516L38.575 37.9988H34.2321L26.3134 31.4249L42.9746 29.8516Z" fill="#7635D6"/>
<path d="M34.2321 37.9997H27.068L26.3134 31.4258L34.2321 37.9997Z" fill="#5723A3"/>
<path d="M57.3908 21.8006L52.8425 24.8133L47.1832 18.7305L56.5209 19.9402C56.8786 20.5254 57.1703 21.1494 57.3908 21.8006Z" fill="#642BB8"/>
<path d="M54.5004 25.5752V25.5773L49.1178 37.2538L49.9206 28.4879L54.469 25.4795L54.5004 25.5752Z" fill="#3A1078"/>
<path d="M61.5975 18.0064L52.287 16.8454L55.867 13.8115C58.2458 14.3928 60.304 15.8994 61.5975 18.0064Z" fill="#5723A3"/>
<path d="M51.0062 12.2208L47.4263 15.2547L42.6327 3.32523C43.0376 3.25341 43.4478 3.21713 43.8588 3.2168C44.9339 3.21825 45.9944 3.46851 46.9597 3.94853C47.925 4.42854 48.7695 5.12566 49.4291 5.98679C50.0887 6.84792 50.5458 7.8504 50.7657 8.91776C50.9856 9.98519 50.9625 11.0894 50.6981 12.1464C50.8029 12.1677 50.9035 12.1911 51.0062 12.2208Z" fill="#642BB8"/>
<path d="M59.382 25.6158C59.3813 27.3663 58.9006 29.0822 57.9937 30.5716C57.0869 32.061 55.7896 33.2654 54.2468 34.05L53.5426 34.3434L53.5279 34.3263L58.8979 22.6328C59.2161 23.5943 59.3797 24.6015 59.382 25.6158Z" fill="#5723A3"/>
<path d="M79.2096 10.3457C81.6333 10.3457 83.6439 10.9805 85.2414 12.25C86.8388 13.5195 87.8946 15.2464 88.4087 17.4306H84.3325C83.9101 16.3665 83.2491 15.5264 82.3494 14.9103C81.468 14.2942 80.4031 13.9862 79.1545 13.9862C78.1262 13.9862 77.199 14.2476 76.3727 14.7703C75.5464 15.293 74.9038 16.0398 74.4447 17.0106C73.9857 17.9814 73.7562 19.1202 73.7562 20.427C73.7562 21.7152 73.9857 22.8447 74.4447 23.8155C74.9038 24.7863 75.5464 25.5331 76.3727 26.0558C77.199 26.5785 78.1262 26.8399 79.1545 26.8399C80.4031 26.8399 81.468 26.5319 82.3494 25.9158C83.2491 25.2997 83.9101 24.4596 84.3325 23.3954H88.4087C87.8946 25.5797 86.8388 27.3066 85.2414 28.5761C83.6439 29.8456 81.6333 30.4804 79.2096 30.4804C77.355 30.4804 75.7117 30.0603 74.2795 29.2202C72.8656 28.3614 71.7639 27.1666 70.9744 25.6357C70.2032 24.1049 69.8176 22.3686 69.8176 20.427C69.8176 18.4668 70.2032 16.7212 70.9744 15.1903C71.7639 13.6595 72.8656 12.474 74.2795 11.6339C75.6933 10.7751 77.3367 10.3457 79.2096 10.3457Z" fill="white"/>
<path d="M95.2062 9.58984V30.3126H91.3227V9.58984H95.2062Z" fill="white"/>
<path d="M105.77 14.6025C107.257 14.6025 108.588 14.9199 109.763 15.5547C110.957 16.1894 111.893 17.1135 112.573 18.327C113.252 19.5219 113.592 20.9314 113.592 22.5556C113.592 24.1798 113.252 25.5893 112.573 26.7842C111.893 27.979 110.957 28.9031 109.763 29.5565C108.588 30.1913 107.257 30.5087 105.77 30.5087C104.282 30.5087 102.942 30.1913 101.748 29.5565C100.573 28.9031 99.646 27.979 98.9666 26.7842C98.2872 25.5893 97.9475 24.1798 97.9475 22.5556C97.9475 20.9314 98.2872 19.5219 98.9666 18.327C99.646 17.1135 100.573 16.1894 101.748 15.5547C102.942 14.9199 104.282 14.6025 105.77 14.6025ZM105.77 18.019C104.686 18.019 103.768 18.411 103.015 19.1951C102.263 19.9606 101.886 21.0807 101.886 22.5556C101.886 24.0305 102.263 25.1599 103.015 25.944C103.768 26.7095 104.686 27.0922 105.77 27.0922C106.853 27.0922 107.771 26.7095 108.524 25.944C109.277 25.1599 109.653 24.0305 109.653 22.5556C109.653 21.0807 109.277 19.9606 108.524 19.1951C107.771 18.411 106.853 18.019 105.77 18.019Z" fill="white"/>
<path d="M130.934 14.7979V30.3119H127.051V27.1755C126.647 28.221 125.977 29.0424 125.04 29.6398C124.122 30.2186 123.057 30.5079 121.845 30.5079C120.083 30.5079 118.678 29.9199 117.631 28.7437C116.585 27.5675 116.061 25.9247 116.061 23.8151V14.7979H119.917V23.367C119.917 24.5992 120.23 25.5606 120.854 26.2514C121.478 26.9235 122.323 27.2595 123.388 27.2595C124.508 27.2595 125.398 26.8955 126.059 26.1674C126.72 25.4393 127.051 24.3938 127.051 23.0309V14.7979H130.934Z" fill="white"/>
<path d="M140.442 14.6025C141.727 14.6025 142.82 14.9106 143.719 15.5266C144.638 16.1427 145.299 16.9735 145.703 18.019V9.58984H149.558V30.3126H145.703V27.0642C145.299 28.1096 144.638 28.9497 143.719 29.5845C142.82 30.2006 141.727 30.5086 140.442 30.5086C139.157 30.5086 138 30.1912 136.972 29.5565C135.943 28.9217 135.135 28.007 134.548 26.8121C133.979 25.5986 133.694 24.1798 133.694 22.5556C133.694 20.9314 133.979 19.5218 134.548 18.327C135.135 17.1135 135.943 16.1894 136.972 15.5546C138 14.9199 139.157 14.6025 140.442 14.6025ZM141.654 18.047C140.442 18.047 139.469 18.4484 138.734 19.2511C138 20.0539 137.633 21.1554 137.633 22.5556C137.633 23.9558 138 25.0572 138.734 25.86C139.469 26.6441 140.442 27.0362 141.654 27.0362C142.829 27.0362 143.793 26.6348 144.546 25.832C145.317 25.0106 145.703 23.9184 145.703 22.5556C145.703 21.1741 145.317 20.0819 144.546 19.2791C143.793 18.4577 142.829 18.047 141.654 18.047Z" fill="white"/>
<path d="M158.95 13.6784V18.8031H165.836V21.8275H158.95V27.1482H166.662V30.3126H155.067V10.542H166.662V13.6784H158.95Z" fill="white"/>
<path d="M194.133 14.6025C195.419 14.6025 196.52 14.9106 197.438 15.5267C198.356 16.1427 199.008 16.9735 199.394 18.019V14.7986H203.25V30.3686C203.25 31.8062 202.965 33.0943 202.396 34.2331C201.845 35.3906 201.01 36.2961 199.89 36.9495C198.788 37.6029 197.447 37.9296 195.868 37.9296C193.665 37.9296 191.884 37.3976 190.525 36.3334C189.166 35.2693 188.34 33.8224 188.046 31.9929H191.875C192.095 32.777 192.517 33.3837 193.142 33.8131C193.784 34.2612 194.601 34.4852 195.593 34.4852C196.731 34.4852 197.649 34.1398 198.347 33.449C199.045 32.777 199.394 31.7502 199.394 30.3686V27.0642C199.008 28.1097 198.356 28.9498 197.438 29.5845C196.52 30.2006 195.419 30.5087 194.133 30.5087C192.848 30.5087 191.691 30.1913 190.663 29.5565C189.635 28.9218 188.827 28.007 188.239 26.8122C187.67 25.5987 187.385 24.1798 187.385 22.5556C187.385 20.9314 187.67 19.5219 188.239 18.327C188.827 17.1135 189.635 16.1894 190.663 15.5547C191.691 14.9199 192.848 14.6025 194.133 14.6025ZM195.345 18.047C194.133 18.047 193.16 18.4484 192.426 19.2512C191.691 20.0539 191.324 21.1554 191.324 22.5556C191.324 23.9558 191.691 25.0573 192.426 25.86C193.16 26.6441 194.133 27.0362 195.345 27.0362C196.52 27.0362 197.484 26.6348 198.237 25.832C199.008 25.0106 199.394 23.9184 199.394 22.5556C199.394 21.1741 199.008 20.0819 198.237 19.2792C197.484 18.4577 196.52 18.047 195.345 18.047Z" fill="white"/>
<path d="M175.514 14.6025C176.8 14.6025 177.892 14.9106 178.792 15.5266C179.71 16.1427 180.371 16.9735 180.775 18.019V9.58984H184.631V30.3126H180.775V27.0642C180.371 28.1096 179.71 28.9497 178.792 29.5845C177.892 30.2006 176.8 30.5086 175.514 30.5086C174.229 30.5086 173.072 30.1912 172.044 29.5565C171.016 28.9217 170.208 28.007 169.62 26.8121C169.051 25.5986 168.767 24.1798 168.767 22.5556C168.767 20.9314 169.051 19.5218 169.62 18.327C170.208 17.1135 171.016 16.1894 172.044 15.5546C173.072 14.9199 174.229 14.6025 175.514 14.6025ZM176.726 18.047C175.514 18.047 174.541 18.4484 173.807 19.2511C173.072 20.0539 172.705 21.1554 172.705 22.5556C172.705 23.9558 173.072 25.0572 173.807 25.86C174.541 26.6441 175.514 27.0362 176.726 27.0362C177.901 27.0362 178.865 26.6348 179.618 25.832C180.389 25.0106 180.775 23.9184 180.775 22.5556C180.775 21.1741 180.389 20.0819 179.618 19.2791C178.865 18.4577 177.901 18.047 176.726 18.047Z" fill="white"/>
<path d="M221.112 21.9675C221.112 22.3596 221.066 22.8076 220.974 23.3117H209.792C209.847 24.6932 210.214 25.7107 210.894 26.3641C211.573 27.0175 212.418 27.3442 213.427 27.3442C214.327 27.3442 215.071 27.1202 215.658 26.6721C216.264 26.2241 216.65 25.6173 216.815 24.8519H220.919C220.717 25.9347 220.286 26.9055 219.625 27.7643C218.963 28.6231 218.11 29.2952 217.063 29.7806C216.035 30.266 214.887 30.5087 213.62 30.5087C212.133 30.5087 210.811 30.1913 209.654 29.5565C208.497 28.9031 207.598 27.979 206.955 26.7842C206.312 25.5893 205.991 24.1798 205.991 22.5556C205.991 20.9314 206.312 19.5219 206.955 18.327C207.598 17.1135 208.497 16.1894 209.654 15.5547C210.811 14.9199 212.133 14.6025 213.62 14.6025C215.126 14.6025 216.439 14.9199 217.559 15.5547C218.697 16.1894 219.569 17.0669 220.175 18.187C220.8 19.2885 221.112 20.5487 221.112 21.9675ZM217.201 21.5755C217.256 20.306 216.925 19.3445 216.209 18.6911C215.512 18.0377 214.649 17.711 213.62 17.711C212.574 17.711 211.692 18.0377 210.976 18.6911C210.26 19.3445 209.865 20.306 209.792 21.5755H217.201Z" fill="white"/>
</svg>
